{"glyphs":{"0":{"ha":833,"x_min":78,"x_max":756,"o":"m 417 -17 q 278 13 340 -17 q 171 101 215 43 q 102 246 126 160 q 78 444 78 332 q 102 642 78 557 q 171 784 126 726 q 278 870 215 842 q 417 899 340 899 q 556 870 493 899 q 663 784 618 842 q 731 642 707 726 q 756 444 756 557 q 731 246 756 332 q 663 101 707 160 q 556 13 618 43 q 417 -17 493 -17 m 417 740 q 355 726 383 740 q 306 678 326 713 q 272 588 285 644 q 260 444 260 531 q 272 301 260 358 q 306 208 285 243 q 355 157 326 172 q 417 142 383 142 q 478 157 450 142 q 528 208 507 172 q 561 301 549 243 q 574 444 574 358 q 561 588 574 531 q 528 678 549 644 q 478 726 507 713 q 417 740 450 740 m 417 342 q 342 370 372 342 q 313 447 313 399 q 342 524 313 496 q 417 553 372 553 q 491 524 461 553 q 521 447 521 496 q 491 370 521 399 q 417 342 461 342 z "},"1":{"ha":833,"x_min":114,"x_max":746,"o":"m 746 165 l 746 0 l 114 0 l 114 165 l 342 165 l 342 675 l 160 675 l 160 801 q 292 835 238 815 q 396 882 347 854 l 546 882 l 546 165 l 746 165 z "},"2":{"ha":833,"x_min":71,"x_max":743,"o":"m 81 117 q 253 265 175 196 q 386 393 331 333 q 472 506 442 453 q 503 606 503 558 q 465 705 503 671 q 358 739 428 739 q 262 712 306 739 q 181 649 218 685 l 71 758 q 140 819 106 793 q 212 863 174 846 q 292 890 250 881 q 386 899 335 899 q 513 878 456 899 q 610 822 569 858 q 674 733 651 785 q 697 618 697 682 q 671 505 697 563 q 599 390 644 447 q 496 274 554 332 q 374 161 438 217 q 455 169 411 165 q 533 172 499 172 l 743 172 l 743 0 l 81 0 l 81 117 z "},"3":{"ha":833,"x_min":58,"x_max":738,"o":"m 153 238 q 252 174 197 199 q 368 149 307 149 q 487 176 440 149 q 533 253 533 203 q 521 306 533 282 q 478 345 508 329 q 396 370 447 361 q 267 379 344 379 l 267 524 q 451 556 397 524 q 504 642 504 589 q 469 713 504 688 q 374 739 435 739 q 276 718 321 739 q 186 661 232 697 l 83 786 q 223 869 149 839 q 383 899 297 899 q 515 883 456 899 q 618 835 575 867 q 685 760 661 804 q 708 657 708 715 q 664 540 708 588 q 540 461 619 492 l 540 456 q 681 380 624 433 q 738 240 738 326 q 709 131 738 179 q 633 51 681 83 q 521 1 585 18 q 388 -17 457 -17 q 192 17 274 -17 q 58 108 110 51 l 153 238 z "},"4":{"ha":833,"x_min":49,"x_max":775,"o":"m 474 367 l 474 515 q 476 612 474 557 q 481 708 478 667 l 475 708 q 428 633 453 671 q 379 558 403 596 l 246 367 l 474 367 m 775 211 l 664 211 l 664 0 l 474 0 l 474 211 l 49 211 l 49 351 l 417 882 l 664 882 l 664 367 l 775 367 l 775 211 z "},"5":{"ha":833,"x_min":64,"x_max":739,"o":"m 156 236 q 251 174 200 200 q 364 149 301 149 q 487 183 439 149 q 535 286 535 218 q 490 388 535 353 q 374 422 444 422 q 334 420 351 422 q 300 413 317 418 q 265 399 283 407 q 225 378 247 390 l 135 436 l 158 882 l 699 882 l 699 710 l 335 710 l 319 544 q 376 560 350 556 q 436 565 403 565 q 552 549 497 565 q 649 499 607 532 q 715 414 690 465 q 739 292 739 363 q 710 161 739 218 q 634 65 682 104 q 524 4 586 25 q 393 -17 461 -17 q 198 19 278 -17 q 64 107 118 54 l 156 236 z "},"6":{"ha":833,"x_min":83,"x_max":757,"o":"m 436 136 q 487 144 463 136 q 530 170 511 153 q 560 215 549 188 q 571 279 571 242 q 535 377 571 347 q 440 407 499 407 q 360 388 401 407 q 278 321 318 368 q 302 233 286 268 q 339 176 318 197 q 385 145 360 154 q 436 136 410 136 m 638 671 q 568 715 610 696 q 482 733 526 733 q 405 719 442 733 q 340 672 368 704 q 293 586 311 639 q 272 456 275 533 q 377 526 319 501 q 485 551 435 551 q 592 535 543 551 q 678 485 642 518 q 736 400 715 451 q 757 279 757 349 q 731 156 757 210 q 662 63 706 101 q 561 3 618 24 q 440 -17 504 -17 q 308 8 372 -17 q 194 86 244 33 q 114 222 144 139 q 83 421 83 304 q 115 635 83 544 q 201 783 147 725 q 322 870 254 842 q 464 899 390 899 q 629 867 558 899 q 744 793 700 836 l 638 671 z "},"7":{"ha":833,"x_min":86,"x_max":749,"o":"m 268 0 q 290 202 274 110 q 335 378 306 294 q 413 542 365 463 q 529 710 460 622 l 86 710 l 86 882 l 749 882 l 749 757 q 614 583 665 664 q 533 415 563 501 q 492 228 504 328 q 474 0 479 129 l 268 0 l 268 0 z "},"8":{"ha":833,"x_min":85,"x_max":750,"o":"m 261 249 q 307 158 261 190 q 421 125 353 125 q 522 152 483 125 q 560 235 560 179 q 544 286 560 265 q 501 324 529 307 q 433 356 472 342 q 347 389 394 371 q 285 326 310 361 q 261 249 261 292 m 476 514 q 543 643 543 574 q 511 726 543 694 q 418 757 479 757 q 335 732 369 757 q 301 656 301 707 q 350 571 301 601 q 476 514 399 540 m 85 225 q 98 298 85 265 q 134 357 111 331 q 187 404 157 383 q 251 442 217 425 l 251 447 q 159 535 196 486 q 122 656 122 585 q 144 756 122 711 q 206 833 167 801 q 301 882 246 865 q 422 899 357 899 q 542 881 489 899 q 633 833 596 864 q 691 756 671 801 q 711 657 711 711 q 674 546 711 594 q 585 464 638 497 l 585 458 q 650 420 619 442 q 703 371 681 399 q 738 308 725 343 q 750 228 750 272 q 728 131 750 175 q 663 53 706 86 q 558 2 621 21 q 415 -17 496 -17 q 278 1 339 -17 q 174 50 217 18 q 108 126 131 82 q 85 225 85 171 z "},"9":{"ha":833,"x_min":74,"x_max":747,"o":"m 392 475 q 472 494 431 475 q 554 563 514 514 q 530 649 546 614 q 492 706 514 685 q 446 737 471 728 q 394 746 421 746 q 344 738 368 746 q 301 712 319 729 q 271 667 282 694 q 260 603 260 640 q 296 505 260 535 q 392 475 332 475 m 194 211 q 264 167 222 186 q 350 149 306 149 q 427 163 390 149 q 492 210 464 178 q 539 297 521 243 q 560 428 557 350 q 453 356 511 382 q 347 331 396 331 q 239 347 289 331 q 152 397 189 364 q 94 482 115 431 q 74 603 74 533 q 99 726 74 671 q 169 819 125 781 q 269 878 213 858 q 390 899 326 899 q 523 874 458 899 q 638 796 588 849 q 717 660 688 743 q 747 461 747 578 q 715 247 747 338 q 631 99 683 157 q 509 12 578 40 q 368 -17 440 -17 q 203 15 274 -17 q 86 89 132 47 l 194 211 z "},"\u0000":{"ha":0,"x_min":0,"x_max":0,"o":""},"\r":{"ha":833,"x_min":0,"x_max":0,"o":""}," ":{"ha":833,"x_min":0,"x_max":0,"o":""},"A":{"ha":833,"x_min":13,"x_max":821,"o":"m 508 375 l 488 458 q 451 603 469 526 q 415 750 433 679 l 410 750 q 375 602 393 678 q 339 458 357 526 l 318 375 l 508 375 m 550 215 l 276 215 l 221 0 l 13 0 l 294 906 l 539 906 l 821 0 l 604 0 l 550 215 z "},"B":{"ha":833,"x_min":117,"x_max":774,"o":"m 117 906 l 400 906 q 531 895 471 906 q 636 858 592 885 q 706 789 681 832 q 732 681 732 746 q 723 619 732 650 q 694 563 714 589 q 646 515 675 536 q 576 485 617 494 l 576 479 q 724 410 674 461 q 774 267 774 358 q 747 147 774 197 q 674 65 721 97 q 563 16 626 32 q 426 0 500 0 l 117 0 l 117 906 m 390 540 q 499 570 465 540 q 532 651 532 600 q 498 725 532 703 q 392 747 464 747 l 321 747 l 321 540 l 390 540 m 410 158 q 574 282 574 158 q 534 369 574 342 q 410 396 494 396 l 321 396 l 321 158 l 410 158 z "},"C":{"ha":833,"x_min":76,"x_max":790,"o":"m 76 447 q 110 648 76 560 q 201 797 143 736 q 339 890 260 858 q 508 922 418 922 q 663 887 596 922 q 776 807 731 851 l 664 681 q 594 728 632 710 q 508 746 557 746 q 419 726 460 746 q 349 668 379 706 q 303 576 319 631 q 286 454 286 522 q 350 237 286 314 q 517 160 414 160 q 605 182 565 160 q 678 240 644 204 l 790 117 q 504 -17 676 -17 q 339 13 417 -17 q 203 101 261 43 q 110 247 144 160 q 76 447 76 333 z "},"D":{"ha":833,"x_min":90,"x_max":772,"o":"m 90 906 l 336 906 q 515 879 435 906 q 653 798 596 853 q 741 658 710 743 q 772 457 772 574 q 741 254 772 340 q 653 112 710 168 q 519 28 597 56 q 347 0 442 0 l 90 0 l 90 906 m 325 165 q 422 181 378 165 q 497 230 465 196 q 545 319 528 264 q 563 457 563 375 q 545 592 563 538 q 497 680 528 647 q 422 726 465 713 q 325 740 378 740 l 296 740 l 296 165 l 325 165 z "},"E":{"ha":833,"x_min":131,"x_max":742,"o":"m 131 906 l 728 906 l 728 733 l 335 733 l 335 551 l 668 551 l 668 381 l 335 381 l 335 172 l 742 172 l 742 0 l 131 0 l 131 906 z "},"F":{"ha":833,"x_min":150,"x_max":747,"o":"m 150 906 l 747 906 l 747 733 l 354 733 l 354 524 l 689 524 l 689 351 l 354 351 l 354 0 l 150 0 l 150 906 z "},"G":{"ha":833,"x_min":61,"x_max":760,"o":"m 61 447 q 94 649 61 561 q 183 798 126 738 q 315 890 239 858 q 479 922 392 922 q 635 887 571 922 q 744 807 700 851 l 632 681 q 568 728 603 710 q 479 746 533 746 q 397 726 435 746 q 332 668 360 706 q 288 576 304 631 q 272 454 272 522 q 326 237 272 314 q 488 160 379 160 q 538 167 514 160 q 576 188 561 174 l 576 343 l 444 343 l 444 510 l 760 510 l 760 93 q 639 17 714 50 q 476 -17 564 -17 q 313 13 389 -17 q 181 101 238 43 q 93 247 125 160 q 61 447 61 333 z "},"H":{"ha":833,"x_min":89,"x_max":744,"o":"m 89 906 l 293 906 l 293 557 l 540 557 l 540 906 l 744 906 l 744 0 l 540 0 l 540 378 l 293 378 l 293 0 l 89 0 l 89 906 z "},"I":{"ha":833,"x_min":103,"x_max":731,"o":"m 103 172 l 314 172 l 314 733 l 103 733 l 103 906 l 731 906 l 731 733 l 519 733 l 519 172 l 731 172 l 731 0 l 103 0 l 103 172 z "},"J":{"ha":833,"x_min":82,"x_max":717,"o":"m 200 260 q 372 160 281 160 q 478 195 443 160 q 513 325 513 231 l 513 735 l 158 735 l 158 906 l 717 906 l 717 308 q 699 183 717 242 q 642 79 682 124 q 537 9 601 35 q 379 -17 472 -17 q 301 -9 342 -17 q 222 17 261 -1 q 147 63 183 35 q 82 133 111 92 l 200 260 z "},"K":{"ha":833,"x_min":94,"x_max":825,"o":"m 94 906 l 301 906 l 301 535 l 306 535 l 574 906 l 799 906 l 528 544 l 825 0 l 599 0 l 407 382 l 301 243 l 301 0 l 94 0 l 94 906 z "},"L":{"ha":833,"x_min":149,"x_max":756,"o":"m 149 906 l 353 906 l 353 172 l 756 172 l 756 0 l 149 0 l 149 906 z "},"M":{"ha":833,"x_min":90,"x_max":743,"o":"m 90 906 l 294 906 l 386 585 l 417 460 l 421 460 l 451 585 l 539 906 l 743 906 l 743 0 l 578 0 l 578 296 q 581 388 578 333 q 588 501 583 443 q 596 615 592 560 q 604 706 600 669 l 600 706 l 529 457 l 460 242 l 369 242 l 300 457 l 232 706 l 226 706 q 235 615 231 669 q 243 501 239 560 q 250 388 247 443 q 253 296 253 333 l 253 0 l 90 0 l 90 906 z "},"N":{"ha":833,"x_min":92,"x_max":742,"o":"m 92 906 l 300 906 l 492 454 l 569 256 l 575 256 q 557 417 568 328 q 546 585 546 506 l 546 906 l 742 906 l 742 0 l 533 0 l 342 451 l 264 649 l 258 649 q 276 488 265 574 q 288 321 288 401 l 288 0 l 92 0 l 92 906 z "},"O":{"ha":833,"x_min":53,"x_max":781,"o":"m 417 -17 q 269 16 336 -17 q 153 110 201 49 q 79 258 106 171 q 53 457 53 346 q 79 655 53 568 q 153 801 106 742 q 269 891 201 860 q 417 922 336 922 q 565 891 497 922 q 680 800 632 860 q 754 653 728 740 q 781 457 781 567 q 754 258 781 346 q 680 110 728 171 q 565 16 632 49 q 417 -17 497 -17 m 417 160 q 529 240 488 160 q 571 457 571 319 q 529 669 571 593 q 417 746 488 746 q 304 669 346 746 q 263 457 263 593 q 304 240 263 319 q 417 160 346 160 z "},"P":{"ha":833,"x_min":103,"x_max":788,"o":"m 103 906 l 433 906 q 572 891 507 906 q 684 842 636 876 q 760 752 732 808 q 788 614 788 696 q 759 476 788 535 q 682 381 731 418 q 569 325 633 343 q 433 307 506 307 l 307 307 l 307 0 l 103 0 l 103 906 m 421 469 q 586 614 586 469 q 544 714 586 685 q 421 743 503 743 l 307 743 l 307 469 l 421 469 z "},"Q":{"ha":833,"x_min":50,"x_max":806,"o":"m 413 746 q 300 669 340 746 q 260 457 260 593 q 300 240 260 319 q 413 160 340 160 q 524 240 483 160 q 565 457 565 319 q 524 669 565 593 q 413 746 483 746 m 806 -218 q 749 -239 782 -231 q 672 -247 715 -247 q 550 -229 606 -247 q 449 -179 494 -211 q 371 -102 404 -147 q 317 -4 338 -57 q 122 149 194 31 q 50 457 50 268 q 76 655 50 568 q 150 801 103 742 q 264 891 197 860 q 413 922 331 922 q 560 891 493 922 q 674 800 626 860 q 747 653 721 740 q 774 457 774 567 q 708 160 774 278 q 531 3 643 43 q 601 -65 554 -46 q 696 -83 647 -83 q 735 -78 717 -83 q 769 -65 754 -72 l 806 -218 z "},"R":{"ha":833,"x_min":97,"x_max":811,"o":"m 301 489 l 401 489 q 567 624 567 489 q 525 717 567 690 q 401 743 483 743 l 301 743 l 301 489 m 582 0 l 408 326 l 301 326 l 301 0 l 97 0 l 97 906 l 418 906 q 553 892 490 906 q 665 845 617 878 q 740 758 713 813 q 768 624 768 704 q 724 459 768 524 q 607 363 679 394 l 811 0 l 582 0 z "},"S":{"ha":833,"x_min":69,"x_max":765,"o":"m 188 254 q 299 186 239 213 q 419 160 360 160 q 523 183 490 160 q 556 247 556 207 q 546 283 556 268 q 518 310 536 299 q 474 333 500 322 q 415 356 449 343 l 299 406 q 226 442 261 419 q 164 494 190 464 q 122 563 138 524 q 106 653 106 603 q 130 758 106 708 q 198 844 154 807 q 303 901 242 881 q 438 922 364 922 q 599 892 521 922 q 739 803 676 861 l 635 674 q 542 727 588 708 q 438 746 496 746 q 345 724 378 746 q 313 664 313 703 q 354 601 313 622 q 461 557 396 581 l 571 510 q 713 418 661 476 q 765 264 765 360 q 742 156 765 207 q 674 67 718 106 q 564 6 629 29 q 414 -17 499 -17 q 233 16 322 -17 q 69 114 143 49 l 188 254 z "},"T":{"ha":833,"x_min":43,"x_max":790,"o":"m 314 733 l 43 733 l 43 906 l 790 906 l 790 733 l 519 733 l 519 0 l 314 0 l 314 733 z "},"U":{"ha":833,"x_min":89,"x_max":744,"o":"m 89 906 l 293 906 l 293 328 q 324 203 293 246 q 419 160 354 160 q 516 203 485 160 q 547 328 547 246 l 547 906 l 744 906 l 744 349 q 665 77 744 171 q 419 -17 585 -17 q 171 77 253 -17 q 89 349 89 171 l 89 906 z "},"V":{"ha":833,"x_min":21,"x_max":813,"o":"m 21 906 l 238 906 l 346 483 q 383 338 367 408 q 418 193 399 268 l 424 193 q 461 338 444 268 q 497 483 478 408 l 604 906 l 813 906 l 540 0 l 294 0 l 21 906 z "},"W":{"ha":833,"x_min":6,"x_max":828,"o":"m 6 906 l 214 906 l 243 424 q 246 308 244 365 q 249 193 247 251 l 253 193 q 277 308 264 251 q 301 424 290 365 l 364 675 l 488 675 l 547 424 q 571 310 558 368 q 594 193 583 251 l 600 193 q 603 309 603 251 q 607 424 604 367 l 633 906 l 828 906 l 715 0 l 501 0 l 444 285 q 429 373 436 328 q 419 458 422 418 l 415 458 q 405 373 411 418 q 390 285 399 328 l 336 0 l 126 0 l 6 906 z "},"X":{"ha":833,"x_min":25,"x_max":808,"o":"m 289 465 l 40 906 l 269 906 l 357 735 q 389 667 372 703 q 426 589 406 632 l 432 589 q 463 667 449 632 q 493 735 478 703 l 574 906 l 793 906 l 544 456 l 808 0 l 581 0 l 482 185 q 446 256 463 221 q 410 333 429 292 l 404 333 q 371 256 388 292 q 338 185 354 221 l 243 0 l 25 0 l 289 465 z "},"Y":{"ha":833,"x_min":22,"x_max":811,"o":"m 314 306 l 22 906 l 242 906 l 333 688 q 374 585 353 635 q 415 481 394 535 l 421 481 q 464 585 443 535 q 506 688 485 635 l 597 906 l 811 906 l 519 306 l 519 0 l 314 0 l 314 306 z "},"Z":{"ha":833,"x_min":78,"x_max":760,"o":"m 78 124 l 503 735 l 118 735 l 118 906 l 754 906 l 754 782 l 331 172 l 760 172 l 760 0 l 78 0 l 78 124 z "},"a":{"ha":833,"x_min":85,"x_max":743,"o":"m 85 192 q 110 294 85 250 q 190 368 135 338 q 331 417 244 399 q 539 443 417 436 q 498 517 533 490 q 392 543 463 543 q 291 526 342 543 q 182 479 240 508 l 110 613 q 262 679 181 653 q 432 706 343 706 q 660 629 576 706 q 743 394 743 553 l 743 0 l 576 0 l 561 78 l 556 78 q 440 10 503 38 q 311 -17 378 -17 q 217 -1 258 -17 q 146 44 175 15 q 101 110 117 72 q 85 192 85 147 m 281 207 q 306 158 281 174 q 376 142 332 142 q 463 160 422 142 q 539 207 503 179 l 539 321 q 413 307 463 317 q 333 283 363 297 q 292 249 304 268 q 281 207 281 229 z "},"b":{"ha":833,"x_min":100,"x_max":768,"o":"m 100 974 l 304 974 l 304 735 l 299 626 q 390 685 339 664 q 490 706 440 706 q 606 681 554 706 q 694 610 658 656 q 749 501 729 565 q 768 357 768 436 q 743 199 768 268 q 676 81 718 129 q 581 8 635 33 q 469 -17 528 -17 q 373 7 421 -17 q 282 75 325 31 l 276 75 l 260 0 l 100 0 l 100 974 m 304 196 q 365 160 333 171 q 424 150 396 150 q 519 198 481 150 q 558 353 558 246 q 432 539 558 539 q 304 475 367 539 l 304 196 z "},"c":{"ha":833,"x_min":93,"x_max":761,"o":"m 93 344 q 126 498 93 431 q 213 611 158 565 q 340 681 268 657 q 492 706 413 706 q 640 679 574 706 q 750 613 706 653 l 656 486 q 503 540 579 540 q 358 488 414 540 q 303 344 303 435 q 356 201 303 254 q 496 149 410 149 q 596 168 550 149 q 678 214 642 188 l 761 85 q 623 8 699 32 q 476 -17 547 -17 q 325 8 394 -17 q 203 78 256 32 q 122 191 151 124 q 93 344 93 258 z "},"d":{"ha":833,"x_min":65,"x_max":733,"o":"m 65 344 q 90 496 65 429 q 156 609 115 563 q 250 681 197 656 q 360 706 303 706 q 460 685 419 706 q 536 632 500 665 l 529 739 l 529 974 l 733 974 l 733 0 l 567 0 l 551 71 l 547 71 q 458 8 508 33 q 356 -17 408 -17 q 237 8 290 -17 q 145 80 183 33 q 86 193 107 126 q 65 344 65 260 m 275 347 q 310 197 275 244 q 408 150 344 150 q 472 165 443 150 q 529 214 501 179 l 529 493 q 473 528 501 518 q 414 539 444 539 q 316 492 357 539 q 275 347 275 444 z "},"e":{"ha":833,"x_min":76,"x_max":758,"o":"m 76 344 q 106 496 76 429 q 186 609 136 563 q 301 681 236 656 q 435 706 365 706 q 575 681 514 706 q 676 611 636 656 q 738 506 717 567 q 758 375 758 446 q 756 324 758 347 q 750 289 753 301 l 286 289 q 356 174 301 210 q 486 139 410 139 q 576 151 533 139 q 664 186 618 163 l 731 64 q 600 5 672 26 q 458 -17 528 -17 q 308 8 378 -17 q 188 78 239 32 q 106 192 136 125 q 76 344 76 258 m 574 415 q 542 513 574 475 q 439 550 510 550 q 340 517 383 550 q 283 415 296 485 l 574 415 z "},"f":{"ha":833,"x_min":114,"x_max":813,"o":"m 774 803 q 629 829 706 829 q 531 800 563 829 q 500 708 500 771 l 500 689 l 738 689 l 738 529 l 500 529 l 500 0 l 296 0 l 296 529 l 114 529 l 114 681 l 296 689 l 296 707 q 314 818 296 767 q 369 908 332 869 q 465 968 407 946 q 604 990 524 990 q 716 979 664 990 q 813 953 768 968 l 774 803 z "},"g":{"ha":833,"x_min":72,"x_max":794,"o":"m 239 -86 q 285 -145 239 -125 q 414 -165 332 -165 q 549 -141 497 -165 q 600 -81 600 -117 q 569 -37 600 -47 q 479 -26 539 -26 l 393 -26 q 331 -24 356 -26 q 288 -18 307 -22 q 250 -51 261 -35 q 239 -86 239 -67 m 72 -117 q 179 21 72 -32 l 179 26 q 131 72 151 44 q 110 144 110 100 q 133 214 110 179 q 192 274 156 249 l 192 279 q 128 349 154 304 q 101 456 101 394 q 126 565 101 518 q 190 642 150 611 q 284 690 231 674 q 396 706 338 706 q 510 689 460 706 l 789 689 l 789 540 l 649 540 q 671 501 661 525 q 681 449 681 476 q 658 346 681 389 q 598 274 636 303 q 508 232 560 246 q 396 218 456 218 q 301 232 351 218 q 278 210 286 221 q 271 182 271 199 q 299 142 271 154 q 388 129 326 129 l 515 129 q 723 89 651 129 q 794 -44 794 49 q 765 -144 794 -99 q 683 -223 736 -190 q 554 -274 631 -256 q 385 -293 478 -293 q 260 -283 318 -293 q 161 -251 203 -272 q 96 -196 119 -229 q 72 -117 72 -162 m 396 342 q 470 370 439 342 q 501 456 501 399 q 470 540 501 511 q 396 568 439 568 q 323 540 353 568 q 293 456 293 511 q 323 370 293 399 q 396 342 353 342 z "},"h":{"ha":833,"x_min":100,"x_max":750,"o":"m 100 974 l 304 974 l 304 735 l 293 603 q 338 641 314 622 q 391 674 363 660 q 453 697 419 689 q 526 706 488 706 q 697 631 643 706 q 750 425 750 556 l 750 0 l 546 0 l 546 399 q 524 500 546 468 q 444 532 501 532 q 372 514 403 532 q 304 460 340 496 l 304 0 l 100 0 l 100 974 z "},"i":{"ha":833,"x_min":110,"x_max":615,"o":"m 110 689 l 590 689 l 590 0 l 386 0 l 386 529 l 110 529 l 110 689 m 479 790 q 381 824 419 790 q 343 914 343 857 q 381 1006 343 971 q 479 1042 419 1042 q 577 1006 539 1042 q 615 914 615 971 q 577 824 615 857 q 479 790 539 790 z "},"j":{"ha":833,"x_min":58,"x_max":615,"o":"m 110 689 l 590 689 l 590 42 q 576 -78 590 -21 q 524 -178 561 -135 q 426 -247 488 -221 q 271 -272 364 -272 q 155 -259 207 -272 q 58 -225 103 -246 l 118 -79 q 194 -106 160 -99 q 258 -112 228 -112 q 359 -77 332 -112 q 386 33 386 -42 l 386 529 l 110 529 l 110 689 m 479 790 q 381 824 419 790 q 343 914 343 857 q 381 1006 343 971 q 479 1042 419 1042 q 577 1006 539 1042 q 615 914 615 971 q 577 824 615 857 q 479 790 539 790 z "},"k":{"ha":833,"x_min":106,"x_max":813,"o":"m 106 974 l 310 974 l 310 415 l 314 417 l 568 689 l 792 689 l 531 406 l 813 0 l 592 0 l 413 271 l 310 171 l 310 0 l 106 0 l 106 974 z "},"l":{"ha":833,"x_min":86,"x_max":756,"o":"m 86 974 l 490 974 l 490 261 q 499 208 490 229 q 524 173 508 186 q 560 154 540 160 q 601 149 581 149 q 651 153 625 149 q 710 171 678 158 l 756 21 q 704 6 728 13 q 657 -6 681 -1 q 607 -14 633 -11 q 549 -17 581 -17 q 352 60 418 -17 q 286 269 286 138 l 286 813 l 86 813 l 86 974 z "},"m":{"ha":833,"x_min":50,"x_max":796,"o":"m 50 689 l 203 689 l 218 603 l 224 603 q 277 676 243 646 q 371 706 311 706 q 448 677 417 706 q 492 593 479 649 q 548 673 511 640 q 643 706 585 706 q 756 647 715 706 q 796 483 796 588 l 796 0 l 604 0 l 604 468 q 565 532 604 532 q 501 465 528 532 l 501 0 l 344 0 l 344 468 q 304 532 344 532 q 271 515 285 532 q 242 465 257 499 l 242 0 l 50 0 l 50 689 z "},"n":{"ha":833,"x_min":100,"x_max":750,"o":"m 100 689 l 267 689 l 282 597 l 288 597 q 390 674 332 642 q 525 706 447 706 q 696 631 642 706 q 750 425 750 556 l 750 0 l 546 0 l 546 399 q 524 500 546 468 q 444 532 501 532 q 372 514 403 532 q 304 460 340 496 l 304 0 l 100 0 l 100 689 z "},"o":{"ha":833,"x_min":65,"x_max":768,"o":"m 65 344 q 94 498 65 431 q 173 611 124 565 q 285 681 222 657 q 417 706 349 706 q 548 681 485 706 q 660 611 611 657 q 739 498 710 565 q 768 344 768 431 q 739 191 768 258 q 660 78 710 124 q 548 8 611 32 q 417 -17 485 -17 q 285 8 349 -17 q 173 78 222 32 q 94 191 124 124 q 65 344 65 258 m 275 344 q 310 201 275 254 q 417 149 346 149 q 523 201 488 149 q 558 344 558 254 q 523 488 558 435 q 417 540 488 540 q 310 488 346 540 q 275 344 275 435 z "},"p":{"ha":833,"x_min":100,"x_max":768,"o":"m 304 -54 l 304 -256 l 100 -256 l 100 689 l 267 689 l 282 619 l 286 619 q 382 681 328 657 q 492 706 436 706 q 607 681 556 706 q 694 610 658 656 q 749 499 731 564 q 768 356 768 435 q 743 198 768 267 q 676 81 718 129 q 581 8 635 33 q 469 -17 528 -17 q 297 58 375 -17 l 304 -54 m 304 196 q 365 160 333 171 q 422 150 396 150 q 519 198 481 150 q 558 353 558 246 q 432 539 558 539 q 304 475 367 539 l 304 196 z "},"q":{"ha":833,"x_min":65,"x_max":733,"o":"m 65 344 q 90 496 65 429 q 156 609 115 563 q 250 681 197 656 q 360 706 303 706 q 463 685 418 706 q 551 618 508 664 l 557 618 l 574 689 l 733 689 l 733 -256 l 529 -256 l 529 -43 l 538 63 q 453 6 501 28 q 356 -17 404 -17 q 237 8 290 -17 q 145 80 183 33 q 86 193 107 126 q 65 344 65 260 m 275 347 q 310 197 275 244 q 408 150 344 150 q 472 165 443 150 q 529 214 501 179 l 529 493 q 473 528 501 518 q 414 539 444 539 q 316 492 357 539 q 275 347 275 444 z "},"r":{"ha":833,"x_min":161,"x_max":761,"o":"m 161 689 l 328 689 l 344 539 l 349 539 q 472 665 400 624 q 628 706 544 706 q 702 699 674 706 q 761 678 731 692 l 719 507 q 662 522 688 517 q 597 526 636 526 q 472 489 533 526 q 365 358 410 451 l 365 0 l 161 0 l 161 689 z "},"s":{"ha":833,"x_min":74,"x_max":750,"o":"m 165 217 q 285 157 225 179 q 415 135 346 135 q 517 150 486 135 q 547 193 547 165 q 497 245 547 225 q 363 289 446 265 q 273 319 317 301 q 194 360 229 336 q 138 417 160 385 q 117 490 117 449 q 139 578 117 538 q 202 646 161 618 q 302 690 243 674 q 435 706 361 706 q 602 676 526 706 q 732 611 678 646 l 640 489 q 543 535 593 517 q 439 554 493 554 q 347 540 374 554 q 319 500 319 526 q 333 472 319 485 q 371 450 347 460 q 427 431 394 440 q 496 413 460 422 q 593 381 547 399 q 674 340 639 364 q 729 283 708 317 q 750 206 750 250 q 728 118 750 158 q 663 48 706 78 q 558 1 621 18 q 411 -17 494 -17 q 229 14 318 -17 q 74 89 140 44 l 165 217 z "},"t":{"ha":833,"x_min":69,"x_max":765,"o":"m 242 529 l 69 529 l 69 681 l 251 689 l 278 872 l 446 872 l 446 689 l 736 689 l 736 529 l 446 529 l 446 288 q 481 176 446 208 q 590 143 515 143 q 665 150 631 143 q 729 168 699 157 l 765 21 q 663 -5 719 7 q 539 -17 606 -17 q 400 6 457 -17 q 308 67 343 28 q 257 163 272 107 q 242 286 242 218 l 242 529 z "},"u":{"ha":833,"x_min":86,"x_max":729,"o":"m 729 0 l 563 0 l 547 99 l 542 99 q 440 15 496 46 q 310 -17 385 -17 q 139 58 192 -17 q 86 264 86 133 l 86 689 l 290 689 l 290 290 q 311 189 290 221 q 390 157 332 157 q 459 174 429 157 q 525 236 489 190 l 525 689 l 729 689 l 729 0 z "},"v":{"ha":833,"x_min":43,"x_max":790,"o":"m 43 689 l 249 689 l 357 364 q 389 258 374 311 q 419 151 404 206 l 425 151 q 455 258 440 206 q 486 364 469 311 l 594 689 l 790 689 l 538 0 l 303 0 l 43 689 z "},"w":{"ha":833,"x_min":4,"x_max":829,"o":"m 4 689 l 204 689 l 247 369 q 259 268 254 318 q 271 165 264 218 l 275 165 q 289 269 282 218 q 307 369 296 321 l 351 597 l 492 597 l 540 369 q 558 268 550 318 q 572 165 565 218 l 578 165 q 589 268 585 218 q 600 369 593 318 l 643 689 l 829 689 l 722 0 l 485 0 l 446 229 q 432 326 439 278 q 418 431 425 375 l 413 431 q 403 347 408 393 q 389 229 399 300 l 351 0 l 118 0 l 4 689 z "},"x":{"ha":833,"x_min":51,"x_max":781,"o":"m 290 358 l 67 689 l 286 689 l 357 578 q 392 519 372 549 q 429 460 411 489 l 435 460 q 463 519 449 489 q 492 578 478 550 l 553 689 l 767 689 l 542 335 l 781 0 l 561 0 l 482 114 q 442 174 463 143 q 403 233 422 204 l 397 233 q 365 174 382 204 q 333 114 349 144 l 265 0 l 51 0 l 290 358 z "},"y":{"ha":833,"x_min":43,"x_max":793,"o":"m 129 -100 q 183 -108 156 -108 q 277 -83 243 -108 q 328 -18 311 -58 l 342 18 l 43 689 l 246 689 l 361 393 q 397 292 381 344 q 431 186 414 240 l 436 186 q 467 290 450 238 q 499 393 483 342 l 600 689 l 793 689 l 521 -7 q 467 -122 496 -72 q 400 -203 438 -171 q 313 -253 363 -236 q 199 -269 264 -269 q 142 -266 168 -269 q 93 -256 115 -262 l 129 -100 l 129 -100 z "},"z":{"ha":833,"x_min":97,"x_max":751,"o":"m 97 110 l 458 529 l 142 529 l 142 689 l 740 689 l 740 581 l 379 160 l 751 160 l 751 0 l 97 0 l 97 110 z "},"À":{"ha":833,"x_min":13,"x_max":821,"o":"m 508 375 l 488 458 q 451 603 469 526 q 415 750 433 679 l 410 750 q 375 602 393 678 q 339 458 357 526 l 318 375 l 508 375 m 550 215 l 276 215 l 221 0 l 13 0 l 294 906 l 539 906 l 821 0 l 604 0 l 550 215 m 192 1142 l 408 1142 l 521 975 l 358 975 l 192 1142 z "},"Á":{"ha":833,"x_min":13,"x_max":821,"o":"m 508 375 l 488 458 q 451 603 469 526 q 415 750 433 679 l 410 750 q 375 602 393 678 q 339 458 357 526 l 318 375 l 508 375 m 550 215 l 276 215 l 221 0 l 13 0 l 294 906 l 539 906 l 821 0 l 604 0 l 550 215 m 475 975 l 313 975 l 425 1142 l 642 1142 l 475 975 z "},"Â":{"ha":833,"x_min":13,"x_max":821,"o":"m 508 375 l 488 458 q 451 603 469 526 q 415 750 433 679 l 410 750 q 375 602 393 678 q 339 458 357 526 l 318 375 l 508 375 m 550 215 l 276 215 l 221 0 l 13 0 l 294 906 l 539 906 l 821 0 l 604 0 l 550 215 m 183 975 l 317 1142 l 517 1142 l 650 975 l 493 975 l 419 1060 l 414 1060 l 340 975 l 183 975 z "},"Ã":{"ha":833,"x_min":13,"x_max":821,"o":"m 508 375 l 488 458 q 451 603 469 526 q 415 750 433 679 l 410 750 q 375 602 393 678 q 339 458 357 526 l 318 375 l 508 375 m 550 215 l 276 215 l 221 0 l 13 0 l 294 906 l 539 906 l 821 0 l 604 0 l 550 215 m 504 976 q 453 986 476 976 q 409 1008 429 996 q 372 1029 389 1019 q 338 1039 354 1039 q 306 1025 319 1039 q 285 976 292 1011 l 181 976 q 233 1119 192 1072 q 329 1165 275 1165 q 381 1156 357 1165 q 424 1134 404 1146 q 462 1113 444 1122 q 496 1103 479 1103 q 528 1117 514 1103 q 549 1165 542 1131 l 653 1165 q 600 1023 642 1069 q 504 976 558 976 z "},"Ä":{"ha":833,"x_min":13,"x_max":821,"o":"m 508 375 l 488 458 q 451 603 469 526 q 415 750 433 679 l 410 750 q 375 602 393 678 q 339 458 357 526 l 318 375 l 508 375 m 550 215 l 276 215 l 221 0 l 13 0 l 294 906 l 539 906 l 821 0 l 604 0 l 550 215 m 279 972 q 209 1000 236 972 q 182 1069 182 1028 q 209 1139 182 1111 q 279 1167 236 1167 q 349 1139 322 1167 q 376 1069 376 1111 q 349 1000 376 1028 q 279 972 322 972 m 554 972 q 484 1000 511 972 q 457 1069 457 1028 q 484 1139 457 1111 q 554 1167 511 1167 q 624 1139 597 1167 q 651 1069 651 1111 q 624 1000 651 1028 q 554 972 597 972 z "},"Ā":{"ha":833,"x_min":13,"x_max":821,"o":"m 508 375 l 488 458 q 451 603 469 526 q 415 750 433 679 l 410 750 q 375 602 393 678 q 339 458 357 526 l 318 375 l 508 375 m 550 215 l 276 215 l 221 0 l 13 0 l 294 906 l 539 906 l 821 0 l 604 0 l 550 215 m 221 1129 l 613 1129 l 613 1000 l 221 1000 l 221 1129 z "},"Ă":{"ha":833,"x_min":13,"x_max":821,"o":"m 508 375 l 488 458 q 451 603 469 526 q 415 750 433 679 l 410 750 q 375 602 393 678 q 339 458 357 526 l 318 375 l 508 375 m 550 215 l 276 215 l 221 0 l 13 0 l 294 906 l 539 906 l 821 0 l 604 0 l 550 215 m 417 975 q 280 1021 325 975 q 226 1142 235 1067 l 339 1142 q 363 1096 346 1114 q 417 1078 381 1078 q 470 1096 453 1078 q 494 1142 488 1114 l 607 1142 q 553 1021 599 1067 q 417 975 508 975 z "},"Å":{"ha":833,"x_min":13,"x_max":821,"o":"m 508 375 l 488 458 q 451 603 469 526 q 415 750 433 679 l 410 750 q 375 602 393 678 q 339 458 357 526 l 318 375 l 508 375 m 550 215 l 276 215 l 221 0 l 13 0 l 294 906 l 539 906 l 821 0 l 604 0 l 550 215 m 417 968 q 303 1005 346 968 q 260 1104 260 1042 q 303 1203 260 1167 q 417 1240 346 1240 q 531 1203 488 1240 q 574 1104 574 1167 q 531 1005 574 1042 q 417 968 488 968 m 417 1044 q 456 1060 440 1044 q 472 1104 472 1076 q 456 1148 472 1132 q 417 1164 440 1164 q 376 1148 393 1164 q 360 1104 360 1132 q 376 1060 360 1076 q 417 1044 393 1044 z "},"Ǎ":{"ha":833,"x_min":13,"x_max":821,"o":"m 508 375 l 488 458 q 451 603 469 526 q 415 750 433 679 l 410 750 q 375 602 393 678 q 339 458 357 526 l 318 375 l 508 375 m 550 215 l 276 215 l 221 0 l 13 0 l 294 906 l 539 906 l 821 0 l 604 0 l 550 215 m 650 1142 l 517 975 l 317 975 l 183 1142 l 340 1142 l 414 1057 l 419 1057 l 493 1142 l 650 1142 z "},"Ạ":{"ha":833,"x_min":13,"x_max":821,"o":"m 508 375 l 488 458 q 451 603 469 526 q 415 750 433 679 l 410 750 q 375 602 393 678 q 339 458 357 526 l 318 375 l 508 375 m 550 215 l 276 215 l 221 0 l 13 0 l 294 906 l 539 906 l 821 0 l 604 0 l 550 215 m 417 -351 q 319 -318 357 -351 q 281 -228 281 -285 q 319 -135 281 -171 q 417 -100 357 -100 q 515 -135 476 -100 q 553 -228 553 -171 q 515 -318 553 -285 q 417 -351 476 -351 z "},"Ả":{"ha":833,"x_min":13,"x_max":821,"o":"m 508 375 l 488 458 q 451 603 469 526 q 415 750 433 679 l 410 750 q 375 602 393 678 q 339 458 357 526 l 318 375 l 508 375 m 550 215 l 276 215 l 221 0 l 13 0 l 294 906 l 539 906 l 821 0 l 604 0 l 550 215 m 353 1040 q 396 1054 378 1046 q 414 1082 414 1063 q 389 1113 414 1101 q 304 1129 364 1125 l 328 1231 q 508 1194 456 1228 q 561 1104 561 1160 q 546 1042 561 1068 q 504 999 531 1017 q 442 972 478 982 q 368 960 407 963 l 353 1040 z "},"Ấ":{"ha":833,"x_min":13,"x_max":826,"o":"m 508 375 l 488 458 q 451 603 469 526 q 415 750 433 679 l 410 750 q 375 602 393 678 q 339 458 357 526 l 318 375 l 508 375 m 550 215 l 276 215 l 221 0 l 13 0 l 294 906 l 539 906 l 821 0 l 604 0 l 550 215 m 668 1236 l 826 1236 l 689 1069 l 574 1069 l 668 1236 m 329 1133 l 504 1133 l 636 975 l 492 975 l 419 1051 l 414 1051 l 342 975 l 197 975 l 329 1133 z "},"Ầ":{"ha":833,"x_min":13,"x_max":821,"o":"m 508 375 l 488 458 q 451 603 469 526 q 415 750 433 679 l 410 750 q 375 602 393 678 q 339 458 357 526 l 318 375 l 508 375 m 550 215 l 276 215 l 221 0 l 13 0 l 294 906 l 539 906 l 821 0 l 604 0 l 550 215 m 747 1069 l 631 1069 l 494 1236 l 651 1236 l 747 1069 m 329 1133 l 504 1133 l 636 975 l 492 975 l 419 1051 l 414 1051 l 342 975 l 197 975 l 329 1133 z "},"Ẩ":{"ha":833,"x_min":13,"x_max":821,"o":"m 508 375 l 488 458 q 451 603 469 526 q 415 750 433 679 l 410 750 q 375 602 393 678 q 339 458 357 526 l 318 375 l 508 375 m 550 215 l 276 215 l 221 0 l 13 0 l 294 906 l 539 906 l 821 0 l 604 0 l 550 215 m 592 1107 q 624 1119 611 1111 q 636 1144 636 1126 q 617 1175 636 1164 q 546 1190 599 1186 l 564 1274 q 723 1240 678 1271 q 768 1163 768 1208 q 722 1074 768 1101 q 607 1042 675 1047 l 592 1107 m 329 1133 l 504 1133 l 636 975 l 492 975 l 419 1051 l 414 1051 l 342 975 l 197 975 l 329 1133 z "},"Ẫ":{"ha":833,"x_min":13,"x_max":821,"o":"m 508 375 l 488 458 q 451 603 469 526 q 415 750 433 679 l 410 750 q 375 602 393 678 q 339 458 357 526 l 318 375 l 508 375 m 550 215 l 276 215 l 221 0 l 13 0 l 294 906 l 539 906 l 821 0 l 604 0 l 550 215 m 329 1133 l 504 1133 l 636 975 l 492 975 l 419 1051 l 414 1051 l 342 975 l 197 975 l 329 1133 m 210 1183 q 253 1303 218 1265 q 336 1340 289 1340 q 385 1332 364 1340 q 424 1315 407 1324 q 457 1297 442 1306 q 486 1289 472 1289 q 536 1340 524 1289 l 624 1340 q 580 1221 615 1258 q 497 1183 544 1183 q 448 1192 469 1183 q 408 1210 426 1200 q 376 1228 390 1219 q 347 1236 361 1236 q 297 1183 308 1236 l 210 1183 z "},"Ậ":{"ha":833,"x_min":13,"x_max":821,"o":"m 508 375 l 488 458 q 451 603 469 526 q 415 750 433 679 l 410 750 q 375 602 393 678 q 339 458 357 526 l 318 375 l 508 375 m 550 215 l 276 215 l 221 0 l 13 0 l 294 906 l 539 906 l 821 0 l 604 0 l 550 215 m 183 975 l 317 1142 l 517 1142 l 650 975 l 493 975 l 419 1060 l 414 1060 l 340 975 l 183 975 m 417 -351 q 319 -318 357 -351 q 281 -228 281 -285 q 319 -135 281 -171 q 417 -100 357 -100 q 515 -135 476 -100 q 553 -228 553 -171 q 515 -318 553 -285 q 417 -351 476 -351 z "},"Ắ":{"ha":833,"x_min":13,"x_max":821,"o":"m 508 375 l 488 458 q 451 603 469 526 q 415 750 433 679 l 410 750 q 375 602 393 678 q 339 458 357 526 l 318 375 l 508 375 m 550 215 l 276 215 l 221 0 l 13 0 l 294 906 l 539 906 l 821 0 l 604 0 l 550 215 m 443 1288 l 597 1288 l 457 1122 l 354 1122 l 443 1288 m 417 975 q 281 1021 326 975 q 228 1142 235 1067 l 321 1142 q 350 1088 329 1108 q 417 1067 371 1067 q 483 1088 463 1067 q 513 1142 504 1108 l 606 1142 q 553 1021 599 1067 q 417 975 507 975 z "},"Ằ":{"ha":833,"x_min":13,"x_max":821,"o":"m 508 375 l 488 458 q 451 603 469 526 q 415 750 433 679 l 410 750 q 375 602 393 678 q 339 458 357 526 l 318 375 l 508 375 m 550 215 l 276 215 l 221 0 l 13 0 l 294 906 l 539 906 l 821 0 l 604 0 l 550 215 m 479 1122 l 376 1122 l 236 1288 l 390 1288 l 479 1122 m 417 975 q 281 1021 326 975 q 228 1142 235 1067 l 321 1142 q 350 1088 329 1108 q 417 1067 371 1067 q 483 1088 463 1067 q 513 1142 504 1108 l 606 1142 q 553 1021 599 1067 q 417 975 507 975 z "},"Ẳ":{"ha":833,"x_min":13,"x_max":821,"o":"m 508 375 l 488 458 q 451 603 469 526 q 415 750 433 679 l 410 750 q 375 602 393 678 q 339 458 357 526 l 318 375 l 508 375 m 550 215 l 276 215 l 221 0 l 13 0 l 294 906 l 539 906 l 821 0 l 604 0 l 550 215 m 356 1185 q 388 1197 375 1189 q 401 1222 401 1204 q 382 1253 401 1242 q 310 1268 363 1264 l 329 1353 q 488 1317 443 1349 q 532 1240 532 1286 q 519 1188 532 1210 q 485 1152 507 1167 q 435 1130 464 1138 q 372 1119 406 1122 l 356 1185 m 417 975 q 281 1021 326 975 q 228 1142 235 1067 l 321 1142 q 350 1088 329 1108 q 417 1067 371 1067 q 483 1088 463 1067 q 513 1142 504 1108 l 606 1142 q 553 1021 599 1067 q 417 975 507 975 z "},"Ẵ":{"ha":833,"x_min":13,"x_max":821,"o":"m 508 375 l 488 458 q 451 603 469 526 q 415 750 433 679 l 410 750 q 375 602 393 678 q 339 458 357 526 l 318 375 l 508 375 m 550 215 l 276 215 l 221 0 l 13 0 l 294 906 l 539 906 l 821 0 l 604 0 l 550 215 m 417 975 q 281 1021 326 975 q 228 1142 235 1067 l 321 1142 q 350 1088 329 1108 q 417 1067 371 1067 q 483 1088 463 1067 q 513 1142 504 1108 l 606 1142 q 553 1021 599 1067 q 417 975 507 975 m 204 1183 q 251 1303 214 1265 q 333 1342 288 1342 q 377 1333 357 1342 q 415 1315 397 1325 q 449 1296 433 1304 q 479 1288 465 1288 q 511 1301 497 1288 q 531 1342 525 1314 l 622 1342 q 576 1222 613 1260 q 493 1183 539 1183 q 449 1192 469 1183 q 410 1210 428 1200 q 377 1228 393 1219 q 347 1236 361 1236 q 315 1223 329 1236 q 296 1183 300 1210 l 204 1183 z "},"Ặ":{"ha":833,"x_min":13,"x_max":821,"o":"m 508 375 l 488 458 q 451 603 469 526 q 415 750 433 679 l 410 750 q 375 602 393 678 q 339 458 357 526 l 318 375 l 508 375 m 550 215 l 276 215 l 221 0 l 13 0 l 294 906 l 539 906 l 821 0 l 604 0 l 550 215 m 417 975 q 280 1021 325 975 q 226 1142 235 1067 l 339 1142 q 363 1096 346 1114 q 417 1078 381 1078 q 470 1096 453 1078 q 494 1142 488 1114 l 607 1142 q 553 1021 599 1067 q 417 975 508 975 m 417 -351 q 319 -318 357 -351 q 281 -228 281 -285 q 319 -135 281 -171 q 417 -100 357 -100 q 515 -135 476 -100 q 553 -228 553 -171 q 515 -318 553 -285 q 417 -351 476 -351 z "},"Ą":{"ha":833,"x_min":13,"x_max":851,"o":"m 508 375 l 488 458 q 451 603 469 526 q 415 750 433 679 l 410 750 q 376 602 393 678 q 339 458 358 526 l 318 375 l 508 375 m 851 -261 q 783 -296 824 -282 q 706 -310 742 -310 q 593 -276 639 -310 q 547 -179 547 -242 q 558 -119 547 -147 q 586 -67 569 -90 q 623 -27 603 -44 q 660 0 643 -10 l 604 0 l 550 215 l 276 215 l 221 0 l 13 0 l 294 906 l 539 906 l 821 0 q 769 -15 792 -3 q 730 -44 746 -26 q 705 -83 714 -62 q 696 -125 696 -104 q 712 -165 696 -151 q 750 -178 728 -178 q 779 -172 765 -178 q 804 -158 793 -165 l 851 -261 z "},"Æ":{"ha":833,"x_min":-4,"x_max":826,"o":"m 432 365 l 432 751 l 428 751 q 390 619 410 683 q 354 494 371 554 l 315 365 l 432 365 m 826 172 l 826 0 l 432 0 l 432 207 l 268 207 l 206 0 l -4 0 l 286 906 l 814 906 l 814 733 l 613 733 l 613 554 l 776 554 l 776 382 l 613 382 l 613 172 l 826 172 z "},"Ç":{"ha":833,"x_min":76,"x_max":790,"o":"m 76 447 q 110 648 76 560 q 201 797 143 736 q 339 890 260 858 q 508 922 418 922 q 663 887 596 922 q 776 807 731 851 l 664 681 q 594 728 632 710 q 508 746 557 746 q 419 726 460 746 q 349 668 379 706 q 303 576 319 631 q 286 454 286 522 q 350 237 286 314 q 517 160 414 160 q 605 182 565 160 q 678 240 644 204 l 790 117 q 504 -17 676 -17 q 339 13 417 -17 q 203 101 261 43 q 110 247 144 160 q 76 447 76 333 m 428 6 l 547 6 l 519 -60 q 577 -95 554 -71 q 600 -162 600 -119 q 580 -224 600 -199 q 526 -268 560 -250 q 447 -295 492 -286 q 354 -307 403 -304 l 339 -225 q 420 -206 388 -219 q 453 -164 453 -192 q 436 -131 453 -146 q 372 -106 419 -117 l 428 6 z "},"Ć":{"ha":833,"x_min":76,"x_max":790,"o":"m 76 447 q 110 648 76 560 q 201 797 143 736 q 339 890 260 858 q 508 922 418 922 q 663 887 596 922 q 776 807 731 851 l 664 681 q 594 728 632 710 q 508 746 557 746 q 419 726 460 746 q 349 668 379 706 q 303 576 319 631 q 286 454 286 522 q 350 237 286 314 q 517 160 414 160 q 605 182 565 160 q 678 240 644 204 l 790 117 q 504 -17 676 -17 q 339 13 417 -17 q 203 101 261 43 q 110 247 144 160 q 76 447 76 333 m 550 975 l 388 975 l 500 1142 l 717 1142 l 550 975 z "},"Ĉ":{"ha":833,"x_min":76,"x_max":790,"o":"m 76 447 q 110 648 76 560 q 201 797 143 736 q 339 890 260 858 q 508 922 418 922 q 663 887 596 922 q 776 807 731 851 l 664 681 q 594 728 632 710 q 508 746 557 746 q 419 726 460 746 q 349 668 379 706 q 303 576 319 631 q 286 454 286 522 q 350 237 286 314 q 517 160 414 160 q 605 182 565 160 q 678 240 644 204 l 790 117 q 504 -17 676 -17 q 339 13 417 -17 q 203 101 261 43 q 110 247 144 160 q 76 447 76 333 m 258 975 l 392 1142 l 592 1142 l 725 975 l 568 975 l 494 1060 l 489 1060 l 415 975 l 258 975 z "},"Č":{"ha":833,"x_min":76,"x_max":790,"o":"m 76 447 q 110 648 76 560 q 201 797 143 736 q 339 890 260 858 q 508 922 418 922 q 663 887 596 922 q 776 807 731 851 l 664 681 q 594 728 632 710 q 508 746 557 746 q 419 726 460 746 q 349 668 379 706 q 303 576 319 631 q 286 454 286 522 q 350 237 286 314 q 517 160 414 160 q 605 182 565 160 q 678 240 644 204 l 790 117 q 504 -17 676 -17 q 339 13 417 -17 q 203 101 261 43 q 110 247 144 160 q 76 447 76 333 m 725 1142 l 592 975 l 392 975 l 258 1142 l 415 1142 l 489 1057 l 494 1057 l 568 1142 l 725 1142 z "},"Ċ":{"ha":833,"x_min":76,"x_max":790,"o":"m 76 447 q 110 648 76 560 q 201 797 143 736 q 339 890 260 858 q 508 922 418 922 q 663 887 596 922 q 776 807 731 851 l 664 681 q 594 728 632 710 q 508 746 557 746 q 419 726 460 746 q 349 668 379 706 q 303 576 319 631 q 286 454 286 522 q 350 237 286 314 q 517 160 414 160 q 605 182 565 160 q 678 240 644 204 l 790 117 q 504 -17 676 -17 q 339 13 417 -17 q 203 101 261 43 q 110 247 144 160 q 76 447 76 333 m 492 974 q 407 1003 440 974 q 374 1081 374 1033 q 407 1158 374 1128 q 492 1188 440 1188 q 576 1158 543 1188 q 610 1081 610 1128 q 576 1003 610 1033 q 492 974 543 974 z "},"Ď":{"ha":833,"x_min":90,"x_max":772,"o":"m 90 906 l 336 906 q 515 879 435 906 q 653 798 596 853 q 741 658 710 743 q 772 457 772 574 q 741 254 772 340 q 653 112 710 168 q 519 28 597 56 q 347 0 442 0 l 90 0 l 90 906 m 325 165 q 422 181 378 165 q 497 230 465 196 q 545 319 528 264 q 563 457 563 375 q 545 592 563 538 q 497 680 528 647 q 422 726 465 713 q 325 740 378 740 l 296 740 l 296 165 l 325 165 m 647 1142 l 514 975 l 314 975 l 181 1142 l 338 1142 l 411 1057 l 417 1057 l 490 1142 l 647 1142 z "},"Ḍ":{"ha":833,"x_min":90,"x_max":772,"o":"m 90 906 l 336 906 q 515 879 435 906 q 653 798 596 853 q 741 658 710 743 q 772 457 772 574 q 741 254 772 340 q 653 112 710 168 q 519 28 597 56 q 347 0 442 0 l 90 0 l 90 906 m 325 165 q 422 181 378 165 q 497 230 465 196 q 545 319 528 264 q 563 457 563 375 q 545 592 563 538 q 497 680 528 647 q 422 726 465 713 q 325 740 378 740 l 296 740 l 296 165 l 325 165 m 404 -351 q 306 -318 344 -351 q 268 -228 268 -285 q 306 -135 268 -171 q 404 -100 344 -100 q 502 -135 464 -100 q 540 -228 540 -171 q 502 -318 540 -285 q 404 -351 464 -351 z "},"Ḏ":{"ha":833,"x_min":90,"x_max":772,"o":"m 90 906 l 336 906 q 515 879 435 906 q 653 798 596 853 q 741 658 710 743 q 772 457 772 574 q 741 254 772 340 q 653 112 710 168 q 519 28 597 56 q 347 0 442 0 l 90 0 l 90 906 m 325 165 q 422 181 378 165 q 497 230 465 196 q 545 319 528 264 q 563 457 563 375 q 545 592 563 538 q 497 680 528 647 q 422 726 465 713 q 325 740 378 740 l 296 740 l 296 165 l 325 165 m 596 -262 l 213 -262 l 213 -132 l 596 -132 l 596 -262 z "},"Đ":{"ha":833,"x_min":3,"x_max":781,"o":"m 99 418 l 3 418 l 3 510 l 99 517 l 99 906 l 346 906 q 524 879 443 906 q 661 798 604 853 q 749 658 718 743 q 781 457 781 574 q 749 254 781 340 q 663 112 718 168 q 528 28 607 56 q 357 0 450 0 l 99 0 l 99 418 m 333 165 q 430 181 386 165 q 505 230 474 196 q 553 319 536 264 q 571 457 571 375 q 553 592 571 538 q 505 680 536 647 q 430 726 474 713 q 333 740 386 740 l 304 740 l 304 517 l 453 517 l 453 418 l 304 418 l 304 165 l 333 165 z "},"È":{"ha":833,"x_min":131,"x_max":742,"o":"m 131 906 l 728 906 l 728 733 l 335 733 l 335 551 l 668 551 l 668 381 l 335 381 l 335 172 l 742 172 l 742 0 l 131 0 l 131 906 m 222 1142 l 439 1142 l 551 975 l 389 975 l 222 1142 z "},"É":{"ha":833,"x_min":131,"x_max":742,"o":"m 131 906 l 728 906 l 728 733 l 335 733 l 335 551 l 668 551 l 668 381 l 335 381 l 335 172 l 742 172 l 742 0 l 131 0 l 131 906 m 506 975 l 343 975 l 456 1142 l 672 1142 l 506 975 z "},"Ê":{"ha":833,"x_min":131,"x_max":742,"o":"m 131 906 l 728 906 l 728 733 l 335 733 l 335 551 l 668 551 l 668 381 l 335 381 l 335 172 l 742 172 l 742 0 l 131 0 l 131 906 m 214 975 l 347 1142 l 547 1142 l 681 975 l 524 975 l 450 1060 l 444 1060 l 371 975 l 214 975 z "},"Ě":{"ha":833,"x_min":131,"x_max":742,"o":"m 131 906 l 728 906 l 728 733 l 335 733 l 335 551 l 668 551 l 668 381 l 335 381 l 335 172 l 742 172 l 742 0 l 131 0 l 131 906 m 681 1142 l 547 975 l 347 975 l 214 1142 l 371 1142 l 444 1057 l 450 1057 l 524 1142 l 681 1142 z "},"Ë":{"ha":833,"x_min":131,"x_max":742,"o":"m 131 906 l 728 906 l 728 733 l 335 733 l 335 551 l 668 551 l 668 381 l 335 381 l 335 172 l 742 172 l 742 0 l 131 0 l 131 906 m 310 972 q 240 1000 267 972 q 213 1069 213 1028 q 240 1139 213 1111 q 310 1167 267 1167 q 380 1139 353 1167 q 407 1069 407 1111 q 380 1000 407 1028 q 310 972 353 972 m 585 972 q 515 1000 542 972 q 488 1069 488 1028 q 515 1139 488 1111 q 585 1167 542 1167 q 655 1139 628 1167 q 682 1069 682 1111 q 655 1000 682 1028 q 585 972 628 972 z "},"Ē":{"ha":833,"x_min":131,"x_max":742,"o":"m 131 906 l 728 906 l 728 733 l 335 733 l 335 551 l 668 551 l 668 381 l 335 381 l 335 172 l 742 172 l 742 0 l 131 0 l 131 906 m 251 1129 l 643 1129 l 643 1000 l 251 1000 l 251 1129 z "},"Ĕ":{"ha":833,"x_min":131,"x_max":742,"o":"m 131 906 l 728 906 l 728 733 l 335 733 l 335 551 l 668 551 l 668 381 l 335 381 l 335 172 l 742 172 l 742 0 l 131 0 l 131 906 m 447 975 q 310 1021 356 975 q 257 1142 265 1067 l 369 1142 q 394 1096 376 1114 q 447 1078 411 1078 q 501 1096 483 1078 q 525 1142 518 1114 l 638 1142 q 584 1021 629 1067 q 447 975 539 975 z "},"Ė":{"ha":833,"x_min":131,"x_max":742,"o":"m 131 906 l 728 906 l 728 733 l 335 733 l 335 551 l 668 551 l 668 381 l 335 381 l 335 172 l 742 172 l 742 0 l 131 0 l 131 906 m 447 974 q 363 1003 396 974 q 329 1081 329 1033 q 363 1158 329 1128 q 447 1188 396 1188 q 532 1158 499 1188 q 565 1081 565 1128 q 532 1003 565 1033 q 447 974 499 974 z "},"Ẹ":{"ha":833,"x_min":131,"x_max":742,"o":"m 131 906 l 728 906 l 728 733 l 335 733 l 335 551 l 668 551 l 668 381 l 335 381 l 335 172 l 742 172 l 742 0 l 131 0 l 131 906 m 446 -351 q 348 -318 386 -351 q 310 -228 310 -285 q 348 -135 310 -171 q 446 -100 386 -100 q 544 -135 506 -100 q 582 -228 582 -171 q 544 -318 582 -285 q 446 -351 506 -351 z "},"Ẻ":{"ha":833,"x_min":131,"x_max":742,"o":"m 131 906 l 728 906 l 728 733 l 335 733 l 335 551 l 668 551 l 668 381 l 335 381 l 335 172 l 742 172 l 742 0 l 131 0 l 131 906 m 383 1040 q 426 1054 408 1046 q 444 1082 444 1063 q 419 1113 444 1101 q 335 1129 394 1125 l 358 1231 q 539 1194 486 1228 q 592 1104 592 1160 q 576 1042 592 1068 q 535 999 561 1017 q 473 972 508 982 q 399 960 438 963 l 383 1040 z "},"Ẽ":{"ha":833,"x_min":131,"x_max":742,"o":"m 131 906 l 728 906 l 728 733 l 335 733 l 335 551 l 668 551 l 668 381 l 335 381 l 335 172 l 742 172 l 742 0 l 131 0 l 131 906 m 535 976 q 483 986 507 976 q 440 1008 460 996 q 402 1029 419 1019 q 368 1039 385 1039 q 336 1025 350 1039 q 315 976 322 1011 l 211 976 q 264 1119 222 1072 q 360 1165 306 1165 q 411 1156 388 1165 q 455 1134 435 1146 q 492 1113 475 1122 q 526 1103 510 1103 q 558 1117 544 1103 q 579 1165 572 1131 l 683 1165 q 631 1023 672 1069 q 535 976 589 976 z "},"Ế":{"ha":833,"x_min":131,"x_max":857,"o":"m 131 906 l 728 906 l 728 733 l 335 733 l 335 551 l 668 551 l 668 381 l 335 381 l 335 172 l 742 172 l 742 0 l 131 0 l 131 906 m 699 1236 l 857 1236 l 719 1069 l 604 1069 l 699 1236 m 360 1133 l 535 1133 l 667 975 l 522 975 l 450 1051 l 444 1051 l 372 975 l 228 975 l 360 1133 z "},"Ề":{"ha":833,"x_min":131,"x_max":778,"o":"m 131 906 l 728 906 l 728 733 l 335 733 l 335 551 l 668 551 l 668 381 l 335 381 l 335 172 l 742 172 l 742 0 l 131 0 l 131 906 m 778 1069 l 661 1069 l 525 1236 l 682 1236 l 778 1069 m 360 1133 l 535 1133 l 667 975 l 522 975 l 450 1051 l 444 1051 l 372 975 l 228 975 l 360 1133 z "},"Ể":{"ha":833,"x_min":131,"x_max":799,"o":"m 131 906 l 728 906 l 728 733 l 335 733 l 335 551 l 668 551 l 668 381 l 335 381 l 335 172 l 742 172 l 742 0 l 131 0 l 131 906 m 622 1107 q 654 1119 642 1111 q 667 1144 667 1126 q 648 1175 667 1164 q 576 1190 629 1186 l 594 1274 q 753 1240 708 1271 q 799 1163 799 1208 q 752 1074 799 1101 q 638 1042 706 1047 l 622 1107 m 360 1133 l 535 1133 l 667 975 l 522 975 l 450 1051 l 444 1051 l 372 975 l 228 975 l 360 1133 z "},"Ễ":{"ha":833,"x_min":131,"x_max":742,"o":"m 131 906 l 728 906 l 728 733 l 335 733 l 335 551 l 668 551 l 668 381 l 335 381 l 335 172 l 742 172 l 742 0 l 131 0 l 131 906 m 360 1133 l 535 1133 l 667 975 l 522 975 l 450 1051 l 444 1051 l 372 975 l 228 975 l 360 1133 m 240 1183 q 284 1303 249 1265 q 367 1340 319 1340 q 416 1332 394 1340 q 455 1315 438 1324 q 488 1297 472 1306 q 517 1289 503 1289 q 567 1340 554 1289 l 654 1340 q 610 1221 646 1258 q 528 1183 575 1183 q 478 1192 500 1183 q 439 1210 457 1200 q 406 1228 421 1219 q 378 1236 392 1236 q 328 1183 339 1236 l 240 1183 z "},"Ệ":{"ha":833,"x_min":131,"x_max":742,"o":"m 131 906 l 728 906 l 728 733 l 335 733 l 335 551 l 668 551 l 668 381 l 335 381 l 335 172 l 742 172 l 742 0 l 131 0 l 131 906 m 214 975 l 347 1142 l 547 1142 l 681 975 l 524 975 l 450 1060 l 444 1060 l 371 975 l 214 975 m 446 -351 q 348 -318 386 -351 q 310 -228 310 -285 q 348 -135 310 -171 q 446 -100 386 -100 q 544 -135 506 -100 q 582 -228 582 -171 q 544 -318 582 -285 q 446 -351 506 -351 z "},"Ę":{"ha":833,"x_min":131,"x_max":769,"o":"m 131 906 l 728 906 l 728 733 l 335 733 l 335 551 l 668 551 l 668 381 l 335 381 l 335 172 l 742 172 l 742 0 l 735 0 q 690 -12 711 -1 q 651 -41 668 -24 q 625 -81 635 -58 q 615 -125 615 -103 q 633 -165 615 -153 q 674 -178 651 -178 q 700 -172 688 -178 q 724 -158 713 -165 l 769 -261 q 702 -296 743 -282 q 625 -310 661 -310 q 512 -276 558 -310 q 465 -179 465 -242 q 476 -119 465 -147 q 502 -69 486 -92 q 538 -28 518 -46 q 575 0 557 -11 l 131 0 l 131 906 z "},"Ĝ":{"ha":833,"x_min":61,"x_max":760,"o":"m 61 447 q 94 649 61 561 q 183 798 126 738 q 315 890 239 858 q 479 922 392 922 q 635 887 571 922 q 744 807 700 851 l 632 681 q 568 728 603 710 q 479 746 533 746 q 397 726 435 746 q 332 668 360 706 q 288 576 304 631 q 272 454 272 522 q 326 237 272 314 q 488 160 379 160 q 538 167 514 160 q 576 188 561 174 l 576 343 l 444 343 l 444 510 l 760 510 l 760 93 q 639 17 714 50 q 476 -17 564 -17 q 313 13 389 -17 q 181 101 238 43 q 93 247 125 160 q 61 447 61 333 m 225 975 l 358 1142 l 558 1142 l 692 975 l 535 975 l 461 1060 l 456 1060 l 382 975 l 225 975 z "},"Ğ":{"ha":833,"x_min":61,"x_max":760,"o":"m 61 447 q 94 649 61 561 q 183 798 126 738 q 315 890 239 858 q 479 922 392 922 q 635 887 571 922 q 744 807 700 851 l 632 681 q 568 728 603 710 q 479 746 533 746 q 397 726 435 746 q 332 668 360 706 q 288 576 304 631 q 272 454 272 522 q 326 237 272 314 q 488 160 379 160 q 538 167 514 160 q 576 188 561 174 l 576 343 l 444 343 l 444 510 l 760 510 l 760 93 q 639 17 714 50 q 476 -17 564 -17 q 313 13 389 -17 q 181 101 238 43 q 93 247 125 160 q 61 447 61 333 m 458 975 q 322 1021 367 975 q 268 1142 276 1067 l 381 1142 q 405 1096 388 1114 q 458 1078 422 1078 q 512 1096 494 1078 q 536 1142 529 1114 l 649 1142 q 595 1021 640 1067 q 458 975 550 975 z "},"Ġ":{"ha":833,"x_min":61,"x_max":760,"o":"m 61 447 q 94 649 61 561 q 183 798 126 738 q 315 890 239 858 q 479 922 392 922 q 635 887 571 922 q 744 807 700 851 l 632 681 q 568 728 603 710 q 479 746 533 746 q 397 726 435 746 q 332 668 360 706 q 288 576 304 631 q 272 454 272 522 q 326 237 272 314 q 488 160 379 160 q 538 167 514 160 q 576 188 561 174 l 576 343 l 444 343 l 444 510 l 760 510 l 760 93 q 639 17 714 50 q 476 -17 564 -17 q 313 13 389 -17 q 181 101 238 43 q 93 247 125 160 q 61 447 61 333 m 458 974 q 374 1003 407 974 q 340 1081 340 1033 q 374 1158 340 1128 q 458 1188 407 1188 q 543 1158 510 1188 q 576 1081 576 1128 q 543 1003 576 1033 q 458 974 510 974 z "},"Ģ":{"ha":833,"x_min":61,"x_max":760,"o":"m 61 447 q 94 649 61 561 q 183 798 126 738 q 315 890 239 858 q 479 922 392 922 q 635 887 571 922 q 744 807 700 851 l 632 681 q 568 728 603 710 q 479 746 533 746 q 397 726 435 746 q 332 668 360 706 q 288 576 304 631 q 272 454 272 522 q 326 237 272 314 q 488 160 379 160 q 538 167 514 160 q 576 188 561 174 l 576 343 l 444 343 l 444 510 l 760 510 l 760 93 q 639 17 714 50 q 476 -17 564 -17 q 313 13 389 -17 q 181 101 238 43 q 93 247 125 160 q 61 447 61 333 m 414 -58 q 545 -95 508 -68 q 582 -175 582 -122 q 562 -237 582 -211 q 508 -280 542 -262 q 431 -306 475 -297 q 336 -318 386 -315 l 321 -236 q 403 -219 371 -231 q 436 -185 436 -208 q 422 -153 436 -165 q 375 -133 407 -142 l 414 -58 l 414 -58 z "},"Ǧ":{"ha":833,"x_min":61,"x_max":760,"o":"m 61 447 q 94 649 61 561 q 183 798 126 738 q 315 890 239 858 q 479 922 392 922 q 635 887 571 922 q 744 807 700 851 l 632 681 q 568 728 603 710 q 479 746 533 746 q 397 726 435 746 q 332 668 360 706 q 288 576 304 631 q 272 454 272 522 q 326 237 272 314 q 488 160 379 160 q 538 167 514 160 q 576 188 561 174 l 576 343 l 444 343 l 444 510 l 760 510 l 760 93 q 639 17 714 50 q 476 -17 564 -17 q 313 13 389 -17 q 181 101 238 43 q 93 247 125 160 q 61 447 61 333 m 692 1142 l 558 975 l 358 975 l 225 1142 l 382 1142 l 456 1057 l 461 1057 l 535 1142 l 692 1142 z "},"Ḡ":{"ha":833,"x_min":61,"x_max":760,"o":"m 61 447 q 94 649 61 561 q 183 798 126 738 q 315 890 239 858 q 479 922 392 922 q 635 887 571 922 q 744 807 700 851 l 632 681 q 568 728 603 710 q 479 746 533 746 q 397 726 435 746 q 332 668 360 706 q 288 576 304 631 q 272 454 272 522 q 326 237 272 314 q 488 160 379 160 q 538 167 514 160 q 576 188 561 174 l 576 343 l 444 343 l 444 510 l 760 510 l 760 93 q 639 17 714 50 q 476 -17 564 -17 q 313 13 389 -17 q 181 101 238 43 q 93 247 125 160 q 61 447 61 333 m 263 1129 l 654 1129 l 654 1000 l 263 1000 l 263 1129 z "},"Ĥ":{"ha":833,"x_min":89,"x_max":744,"o":"m 89 906 l 293 906 l 293 557 l 540 557 l 540 906 l 744 906 l 744 0 l 540 0 l 540 378 l 293 378 l 293 0 l 89 0 l 89 906 m 183 975 l 317 1142 l 517 1142 l 650 975 l 493 975 l 419 1060 l 414 1060 l 340 975 l 183 975 z "},"Ḥ":{"ha":833,"x_min":89,"x_max":744,"o":"m 89 906 l 293 906 l 293 557 l 540 557 l 540 906 l 744 906 l 744 0 l 540 0 l 540 378 l 293 378 l 293 0 l 89 0 l 89 906 m 417 -351 q 319 -318 357 -351 q 281 -228 281 -285 q 319 -135 281 -171 q 417 -100 357 -100 q 515 -135 476 -100 q 553 -228 553 -171 q 515 -318 553 -285 q 417 -351 476 -351 z "},"Ḫ":{"ha":833,"x_min":89,"x_max":744,"o":"m 89 906 l 293 906 l 293 557 l 540 557 l 540 906 l 744 906 l 744 0 l 540 0 l 540 378 l 293 378 l 293 0 l 89 0 l 89 906 m 417 -292 q 333 -276 368 -292 q 274 -233 297 -260 q 238 -172 250 -207 q 224 -99 225 -136 l 338 -99 q 361 -157 342 -133 q 417 -181 381 -181 q 472 -157 453 -181 q 496 -99 492 -133 l 610 -99 q 596 -172 608 -136 q 560 -233 583 -207 q 501 -276 536 -260 q 417 -292 465 -292 z "},"Ħ":{"ha":833,"x_min":4,"x_max":829,"o":"m 540 675 l 293 675 l 293 557 l 540 557 l 540 675 m 829 675 l 744 675 l 744 0 l 540 0 l 540 378 l 293 378 l 293 0 l 89 0 l 89 675 l 4 675 l 4 765 l 89 772 l 89 906 l 293 906 l 293 774 l 540 774 l 540 906 l 744 906 l 744 774 l 829 774 l 829 675 z "},"Ì":{"ha":833,"x_min":103,"x_max":731,"o":"m 103 172 l 314 172 l 314 733 l 103 733 l 103 906 l 731 906 l 731 733 l 519 733 l 519 172 l 731 172 l 731 0 l 103 0 l 103 172 m 192 1142 l 408 1142 l 521 975 l 358 975 l 192 1142 z "},"Í":{"ha":833,"x_min":103,"x_max":731,"o":"m 103 172 l 314 172 l 314 733 l 103 733 l 103 906 l 731 906 l 731 733 l 519 733 l 519 172 l 731 172 l 731 0 l 103 0 l 103 172 m 475 975 l 313 975 l 425 1142 l 642 1142 l 475 975 z "},"Î":{"ha":833,"x_min":103,"x_max":731,"o":"m 103 172 l 314 172 l 314 733 l 103 733 l 103 906 l 731 906 l 731 733 l 519 733 l 519 172 l 731 172 l 731 0 l 103 0 l 103 172 m 183 975 l 317 1142 l 517 1142 l 650 975 l 493 975 l 419 1060 l 414 1060 l 340 975 l 183 975 z "},"Ĩ":{"ha":833,"x_min":103,"x_max":731,"o":"m 103 172 l 314 172 l 314 733 l 103 733 l 103 906 l 731 906 l 731 733 l 519 733 l 519 172 l 731 172 l 731 0 l 103 0 l 103 172 m 504 976 q 453 986 476 976 q 409 1008 429 996 q 372 1029 389 1019 q 338 1039 354 1039 q 306 1025 319 1039 q 285 976 292 1011 l 181 976 q 233 1119 192 1072 q 329 1165 275 1165 q 381 1156 357 1165 q 424 1134 404 1146 q 462 1113 444 1122 q 496 1103 479 1103 q 528 1117 514 1103 q 549 1165 542 1131 l 653 1165 q 600 1023 642 1069 q 504 976 558 976 z "},"Ï":{"ha":833,"x_min":103,"x_max":731,"o":"m 103 172 l 314 172 l 314 733 l 103 733 l 103 906 l 731 906 l 731 733 l 519 733 l 519 172 l 731 172 l 731 0 l 103 0 l 103 172 m 279 972 q 209 1000 236 972 q 182 1069 182 1028 q 209 1139 182 1111 q 279 1167 236 1167 q 349 1139 322 1167 q 376 1069 376 1111 q 349 1000 376 1028 q 279 972 322 972 m 554 972 q 484 1000 511 972 q 457 1069 457 1028 q 484 1139 457 1111 q 554 1167 511 1167 q 624 1139 597 1167 q 651 1069 651 1111 q 624 1000 651 1028 q 554 972 597 972 z "},"Ī":{"ha":833,"x_min":103,"x_max":731,"o":"m 103 172 l 314 172 l 314 733 l 103 733 l 103 906 l 731 906 l 731 733 l 519 733 l 519 172 l 731 172 l 731 0 l 103 0 l 103 172 m 221 1129 l 613 1129 l 613 1000 l 221 1000 l 221 1129 z "},"İ":{"ha":833,"x_min":103,"x_max":731,"o":"m 103 172 l 314 172 l 314 733 l 103 733 l 103 906 l 731 906 l 731 733 l 519 733 l 519 172 l 731 172 l 731 0 l 103 0 l 103 172 m 417 974 q 332 1003 365 974 q 299 1081 299 1033 q 332 1158 299 1128 q 417 1188 365 1188 q 501 1158 468 1188 q 535 1081 535 1128 q 501 1003 535 1033 q 417 974 468 974 z "},"Ǐ":{"ha":833,"x_min":103,"x_max":731,"o":"m 103 172 l 314 172 l 314 733 l 103 733 l 103 906 l 731 906 l 731 733 l 519 733 l 519 172 l 731 172 l 731 0 l 103 0 l 103 172 m 650 1142 l 517 975 l 317 975 l 183 1142 l 340 1142 l 414 1057 l 419 1057 l 493 1142 l 650 1142 z "},"Ỉ":{"ha":833,"x_min":103,"x_max":731,"o":"m 103 172 l 314 172 l 314 733 l 103 733 l 103 906 l 731 906 l 731 733 l 519 733 l 519 172 l 731 172 l 731 0 l 103 0 l 103 172 m 353 1040 q 396 1054 378 1046 q 414 1082 414 1063 q 389 1113 414 1101 q 304 1129 364 1125 l 328 1231 q 508 1194 456 1228 q 561 1104 561 1160 q 546 1042 561 1068 q 504 999 531 1017 q 442 972 478 982 q 368 960 407 963 l 353 1040 z "},"Ị":{"ha":833,"x_min":103,"x_max":731,"o":"m 103 172 l 314 172 l 314 733 l 103 733 l 103 906 l 731 906 l 731 733 l 519 733 l 519 172 l 731 172 l 731 0 l 103 0 l 103 172 m 417 -351 q 319 -318 357 -351 q 281 -228 281 -285 q 319 -135 281 -171 q 417 -100 357 -100 q 515 -135 476 -100 q 553 -228 553 -171 q 515 -318 553 -285 q 417 -351 476 -351 z "},"Į":{"ha":833,"x_min":103,"x_max":731,"o":"m 103 172 l 314 172 l 314 733 l 103 733 l 103 906 l 731 906 l 731 733 l 519 733 l 519 172 l 731 172 l 731 0 l 519 0 q 439 -56 463 -24 q 415 -125 415 -89 q 433 -165 415 -153 q 472 -178 451 -178 q 501 -172 488 -178 q 524 -158 514 -165 l 571 -261 q 502 -296 543 -282 q 425 -310 461 -310 q 363 -301 392 -310 q 313 -276 335 -293 q 279 -235 292 -260 q 267 -179 267 -211 q 277 -118 267 -146 q 303 -67 288 -90 q 336 -28 318 -44 q 369 0 354 -11 l 103 0 l 103 172 z "},"Ĵ":{"ha":833,"x_min":82,"x_max":717,"o":"m 200 260 q 372 160 281 160 q 478 195 443 160 q 513 325 513 231 l 513 735 l 158 735 l 158 906 l 717 906 l 717 308 q 699 183 717 242 q 642 79 682 124 q 537 9 601 35 q 379 -17 472 -17 q 301 -9 342 -17 q 222 17 261 -1 q 147 63 183 35 q 82 133 111 92 l 200 260 m 214 975 l 347 1142 l 547 1142 l 681 975 l 524 975 l 450 1060 l 444 1060 l 371 975 l 214 975 z "},"Ķ":{"ha":833,"x_min":94,"x_max":825,"o":"m 94 906 l 301 906 l 301 535 l 306 535 l 574 906 l 799 906 l 528 544 l 825 0 l 599 0 l 407 382 l 301 243 l 301 0 l 94 0 l 94 906 m 399 -58 q 530 -95 493 -68 q 567 -175 567 -122 q 547 -237 567 -211 q 493 -280 526 -262 q 415 -306 460 -297 q 321 -318 371 -315 l 306 -236 q 388 -219 356 -231 q 421 -185 421 -208 q 406 -153 421 -165 q 360 -133 392 -142 l 399 -58 l 399 -58 z "},"Ĺ":{"ha":833,"x_min":149,"x_max":756,"o":"m 149 906 l 353 906 l 353 172 l 756 172 l 756 0 l 149 0 l 149 906 m 331 975 l 168 975 l 281 1142 l 497 1142 l 331 975 z "},"Ľ":{"ha":833,"x_min":149,"x_max":756,"o":"m 149 906 l 353 906 l 353 172 l 756 172 l 756 0 l 149 0 l 149 906 m 536 710 l 529 1018 l 660 1018 l 657 922 l 624 710 l 536 710 z "},"Ļ":{"ha":833,"x_min":149,"x_max":756,"o":"m 149 906 l 353 906 l 353 172 l 756 172 l 756 0 l 149 0 l 149 906 m 411 -58 q 542 -95 506 -68 q 579 -175 579 -122 q 559 -237 579 -211 q 506 -280 539 -262 q 428 -306 472 -297 q 333 -318 383 -315 l 318 -236 q 401 -219 368 -231 q 433 -185 433 -208 q 419 -153 433 -165 q 372 -133 404 -142 l 411 -58 l 411 -58 z "},"Ŀ":{"ha":833,"x_min":149,"x_max":765,"o":"m 149 906 l 353 906 l 353 172 l 756 172 l 756 0 l 149 0 l 149 906 m 629 368 q 531 401 569 368 q 493 492 493 435 q 531 584 493 549 q 629 619 569 619 q 727 584 689 619 q 765 492 765 549 q 727 401 765 435 q 629 368 689 368 z "},"Ḷ":{"ha":833,"x_min":149,"x_max":756,"o":"m 149 906 l 353 906 l 353 172 l 756 172 l 756 0 l 149 0 l 149 906 m 461 -351 q 363 -318 401 -351 q 325 -228 325 -285 q 363 -135 325 -171 q 461 -100 401 -100 q 559 -135 521 -100 q 597 -228 597 -171 q 559 -318 597 -285 q 461 -351 521 -351 z "},"Ḹ":{"ha":833,"x_min":76,"x_max":756,"o":"m 149 906 l 353 906 l 353 172 l 756 172 l 756 0 l 149 0 l 149 906 m 76 1129 l 468 1129 l 468 1000 l 76 1000 l 76 1129 m 461 -351 q 363 -318 401 -351 q 325 -228 325 -285 q 363 -135 325 -171 q 461 -100 401 -100 q 559 -135 521 -100 q 597 -228 597 -171 q 559 -318 597 -285 q 461 -351 521 -351 z "},"Ḻ":{"ha":833,"x_min":149,"x_max":756,"o":"m 149 906 l 353 906 l 353 172 l 756 172 l 756 0 l 149 0 l 149 906 m 653 -262 l 269 -262 l 269 -132 l 653 -132 l 653 -262 z "},"Ł":{"ha":833,"x_min":46,"x_max":756,"o":"m 756 172 l 756 0 l 149 0 l 149 275 l 46 218 l 46 376 l 149 433 l 149 906 l 353 906 l 353 533 l 639 690 l 639 532 l 353 375 l 353 172 l 756 172 z "},"Ṃ":{"ha":833,"x_min":90,"x_max":743,"o":"m 90 906 l 294 906 l 386 585 l 417 460 l 421 460 l 451 585 l 539 906 l 743 906 l 743 0 l 578 0 l 578 296 q 581 388 578 333 q 588 501 583 443 q 596 615 592 560 q 604 706 600 669 l 600 706 l 529 457 l 460 242 l 369 242 l 300 457 l 232 706 l 226 706 q 235 615 231 669 q 243 501 239 560 q 250 388 247 443 q 253 296 253 333 l 253 0 l 90 0 l 90 906 m 417 -351 q 319 -318 357 -351 q 281 -228 281 -285 q 319 -135 281 -171 q 417 -100 357 -100 q 515 -135 476 -100 q 553 -228 553 -171 q 515 -318 553 -285 q 417 -351 476 -351 z "},"Ń":{"ha":833,"x_min":92,"x_max":742,"o":"m 92 906 l 300 906 l 492 454 l 569 256 l 575 256 q 557 417 568 328 q 546 585 546 506 l 546 906 l 742 906 l 742 0 l 533 0 l 342 451 l 264 649 l 258 649 q 276 488 265 574 q 288 321 288 401 l 288 0 l 92 0 l 92 906 m 483 975 l 321 975 l 433 1142 l 650 1142 l 483 975 z "},"Ň":{"ha":833,"x_min":92,"x_max":742,"o":"m 92 906 l 300 906 l 492 454 l 569 256 l 575 256 q 557 417 568 328 q 546 585 546 506 l 546 906 l 742 906 l 742 0 l 533 0 l 342 451 l 264 649 l 258 649 q 276 488 265 574 q 288 321 288 401 l 288 0 l 92 0 l 92 906 m 658 1142 l 525 975 l 325 975 l 192 1142 l 349 1142 l 422 1057 l 428 1057 l 501 1142 l 658 1142 z "},"Ñ":{"ha":833,"x_min":92,"x_max":742,"o":"m 92 906 l 300 906 l 492 454 l 569 256 l 575 256 q 557 417 568 328 q 546 585 546 506 l 546 906 l 742 906 l 742 0 l 533 0 l 342 451 l 264 649 l 258 649 q 276 488 265 574 q 288 321 288 401 l 288 0 l 92 0 l 92 906 m 513 976 q 461 986 485 976 q 417 1008 438 996 q 380 1029 397 1019 q 346 1039 363 1039 q 314 1025 328 1039 q 293 976 300 1011 l 189 976 q 242 1119 200 1072 q 338 1165 283 1165 q 389 1156 365 1165 q 433 1134 413 1146 q 470 1113 453 1122 q 504 1103 488 1103 q 536 1117 522 1103 q 557 1165 550 1131 l 661 1165 q 608 1023 650 1069 q 513 976 567 976 z "},"Ņ":{"ha":833,"x_min":92,"x_max":742,"o":"m 92 906 l 300 906 l 492 454 l 569 256 l 575 256 q 557 417 568 328 q 546 585 546 506 l 546 906 l 742 906 l 742 0 l 533 0 l 342 451 l 264 649 l 258 649 q 276 488 265 574 q 288 321 288 401 l 288 0 l 92 0 l 92 906 m 367 -58 q 498 -95 461 -68 q 535 -175 535 -122 q 515 -237 535 -211 q 461 -280 494 -262 q 383 -306 428 -297 q 289 -318 339 -315 l 274 -236 q 356 -219 324 -231 q 389 -185 389 -208 q 374 -153 389 -165 q 328 -133 360 -142 l 367 -58 l 367 -58 z "},"Ṅ":{"ha":833,"x_min":92,"x_max":742,"o":"m 92 906 l 300 906 l 492 454 l 569 256 l 575 256 q 557 417 568 328 q 546 585 546 506 l 546 906 l 742 906 l 742 0 l 533 0 l 342 451 l 264 649 l 258 649 q 276 488 265 574 q 288 321 288 401 l 288 0 l 92 0 l 92 906 m 425 974 q 340 1003 374 974 q 307 1081 307 1033 q 340 1158 307 1128 q 425 1188 374 1188 q 510 1158 476 1188 q 543 1081 543 1128 q 510 1003 543 1033 q 425 974 476 974 z "},"Ṇ":{"ha":833,"x_min":92,"x_max":742,"o":"m 92 906 l 300 906 l 492 454 l 569 256 l 575 256 q 557 417 568 328 q 546 585 546 506 l 546 906 l 742 906 l 742 0 l 533 0 l 342 451 l 264 649 l 258 649 q 276 488 265 574 q 288 321 288 401 l 288 0 l 92 0 l 92 906 m 417 -351 q 319 -318 357 -351 q 281 -228 281 -285 q 319 -135 281 -171 q 417 -100 357 -100 q 515 -135 476 -100 q 553 -228 553 -171 q 515 -318 553 -285 q 417 -351 476 -351 z "},"Ṉ":{"ha":833,"x_min":92,"x_max":742,"o":"m 92 906 l 300 906 l 492 454 l 569 256 l 575 256 q 557 417 568 328 q 546 585 546 506 l 546 906 l 742 906 l 742 0 l 533 0 l 342 451 l 264 649 l 258 649 q 276 488 265 574 q 288 321 288 401 l 288 0 l 92 0 l 92 906 m 608 -262 l 225 -262 l 225 -132 l 608 -132 l 608 -262 z "},"Ò":{"ha":833,"x_min":53,"x_max":781,"o":"m 417 -17 q 269 16 336 -17 q 153 110 201 49 q 79 258 106 171 q 53 457 53 346 q 79 655 53 568 q 153 801 106 742 q 269 891 201 860 q 417 922 336 922 q 565 891 497 922 q 680 800 632 860 q 754 653 728 740 q 781 457 781 567 q 754 258 781 346 q 680 110 728 171 q 565 16 632 49 q 417 -17 497 -17 m 417 160 q 529 240 488 160 q 571 457 571 319 q 529 669 571 593 q 417 746 488 746 q 304 669 346 746 q 263 457 263 593 q 304 240 263 319 q 417 160 346 160 m 192 1142 l 408 1142 l 521 975 l 358 975 l 192 1142 z "},"Ó":{"ha":833,"x_min":53,"x_max":781,"o":"m 417 -17 q 269 16 336 -17 q 153 110 201 49 q 79 258 106 171 q 53 457 53 346 q 79 655 53 568 q 153 801 106 742 q 269 891 201 860 q 417 922 336 922 q 565 891 497 922 q 680 800 632 860 q 754 653 728 740 q 781 457 781 567 q 754 258 781 346 q 680 110 728 171 q 565 16 632 49 q 417 -17 497 -17 m 417 160 q 529 240 488 160 q 571 457 571 319 q 529 669 571 593 q 417 746 488 746 q 304 669 346 746 q 263 457 263 593 q 304 240 263 319 q 417 160 346 160 m 475 975 l 313 975 l 425 1142 l 642 1142 l 475 975 z "},"Ô":{"ha":833,"x_min":53,"x_max":781,"o":"m 417 -17 q 269 16 336 -17 q 153 110 201 49 q 79 258 106 171 q 53 457 53 346 q 79 655 53 568 q 153 801 106 742 q 269 891 201 860 q 417 922 336 922 q 565 891 497 922 q 680 800 632 860 q 754 653 728 740 q 781 457 781 567 q 754 258 781 346 q 680 110 728 171 q 565 16 632 49 q 417 -17 497 -17 m 417 160 q 529 240 488 160 q 571 457 571 319 q 529 669 571 593 q 417 746 488 746 q 304 669 346 746 q 263 457 263 593 q 304 240 263 319 q 417 160 346 160 m 183 975 l 317 1142 l 517 1142 l 650 975 l 493 975 l 419 1060 l 414 1060 l 340 975 l 183 975 z "},"Õ":{"ha":833,"x_min":53,"x_max":781,"o":"m 417 -17 q 269 16 336 -17 q 153 110 201 49 q 79 258 106 171 q 53 457 53 346 q 79 655 53 568 q 153 801 106 742 q 269 891 201 860 q 417 922 336 922 q 565 891 497 922 q 680 800 632 860 q 754 653 728 740 q 781 457 781 567 q 754 258 781 346 q 680 110 728 171 q 565 16 632 49 q 417 -17 497 -17 m 417 160 q 529 240 488 160 q 571 457 571 319 q 529 669 571 593 q 417 746 488 746 q 304 669 346 746 q 263 457 263 593 q 304 240 263 319 q 417 160 346 160 m 504 976 q 453 986 476 976 q 409 1008 429 996 q 372 1029 389 1019 q 338 1039 354 1039 q 306 1025 319 1039 q 285 976 292 1011 l 181 976 q 233 1119 192 1072 q 329 1165 275 1165 q 381 1156 357 1165 q 424 1134 404 1146 q 462 1113 444 1122 q 496 1103 479 1103 q 528 1117 514 1103 q 549 1165 542 1131 l 653 1165 q 600 1023 642 1069 q 504 976 558 976 z "},"Ö":{"ha":833,"x_min":53,"x_max":781,"o":"m 417 -17 q 269 16 336 -17 q 153 110 201 49 q 79 258 106 171 q 53 457 53 346 q 79 655 53 568 q 153 801 106 742 q 269 891 201 860 q 417 922 336 922 q 565 891 497 922 q 680 800 632 860 q 754 653 728 740 q 781 457 781 567 q 754 258 781 346 q 680 110 728 171 q 565 16 632 49 q 417 -17 497 -17 m 417 160 q 529 240 488 160 q 571 457 571 319 q 529 669 571 593 q 417 746 488 746 q 304 669 346 746 q 263 457 263 593 q 304 240 263 319 q 417 160 346 160 m 279 972 q 209 1000 236 972 q 182 1069 182 1028 q 209 1139 182 1111 q 279 1167 236 1167 q 349 1139 322 1167 q 376 1069 376 1111 q 349 1000 376 1028 q 279 972 322 972 m 554 972 q 484 1000 511 972 q 457 1069 457 1028 q 484 1139 457 1111 q 554 1167 511 1167 q 624 1139 597 1167 q 651 1069 651 1111 q 624 1000 651 1028 q 554 972 597 972 z "},"Ō":{"ha":833,"x_min":53,"x_max":781,"o":"m 417 -17 q 269 16 336 -17 q 153 110 201 49 q 79 258 106 171 q 53 457 53 346 q 79 655 53 568 q 153 801 106 742 q 269 891 201 860 q 417 922 336 922 q 565 891 497 922 q 680 800 632 860 q 754 653 728 740 q 781 457 781 567 q 754 258 781 346 q 680 110 728 171 q 565 16 632 49 q 417 -17 497 -17 m 417 160 q 529 240 488 160 q 571 457 571 319 q 529 669 571 593 q 417 746 488 746 q 304 669 346 746 q 263 457 263 593 q 304 240 263 319 q 417 160 346 160 m 221 1129 l 613 1129 l 613 1000 l 221 1000 l 221 1129 z "},"Ő":{"ha":833,"x_min":53,"x_max":781,"o":"m 417 -17 q 269 16 336 -17 q 153 110 201 49 q 79 258 106 171 q 53 457 53 346 q 79 655 53 568 q 153 801 106 742 q 269 891 201 860 q 417 922 336 922 q 565 891 497 922 q 680 800 632 860 q 754 653 728 740 q 781 457 781 567 q 754 258 781 346 q 680 110 728 171 q 565 16 632 49 q 417 -17 497 -17 m 417 160 q 529 240 488 160 q 571 457 571 319 q 529 669 571 593 q 417 746 488 746 q 304 669 346 746 q 263 457 263 593 q 304 240 263 319 q 417 160 346 160 m 226 975 l 314 1142 l 488 1142 l 364 975 l 226 975 m 564 1142 l 738 1142 l 613 975 l 475 975 l 564 1142 z "},"Ǒ":{"ha":833,"x_min":53,"x_max":781,"o":"m 417 -17 q 269 16 336 -17 q 153 110 201 49 q 79 258 106 171 q 53 457 53 346 q 79 655 53 568 q 153 801 106 742 q 269 891 201 860 q 417 922 336 922 q 565 891 497 922 q 680 800 632 860 q 754 653 728 740 q 781 457 781 567 q 754 258 781 346 q 680 110 728 171 q 565 16 632 49 q 417 -17 497 -17 m 417 160 q 529 240 488 160 q 571 457 571 319 q 529 669 571 593 q 417 746 488 746 q 304 669 346 746 q 263 457 263 593 q 304 240 263 319 q 417 160 346 160 m 650 1142 l 517 975 l 317 975 l 183 1142 l 340 1142 l 414 1057 l 419 1057 l 493 1142 l 650 1142 z "},"Ọ":{"ha":833,"x_min":53,"x_max":781,"o":"m 417 -17 q 269 16 336 -17 q 153 110 201 49 q 79 258 106 171 q 53 457 53 346 q 79 655 53 568 q 153 801 106 742 q 269 891 201 860 q 417 922 336 922 q 565 891 497 922 q 680 800 632 860 q 754 653 728 740 q 781 457 781 567 q 754 258 781 346 q 680 110 728 171 q 565 16 632 49 q 417 -17 497 -17 m 417 160 q 529 240 488 160 q 571 457 571 319 q 529 669 571 593 q 417 746 488 746 q 304 669 346 746 q 263 457 263 593 q 304 240 263 319 q 417 160 346 160 m 417 -351 q 319 -318 357 -351 q 281 -228 281 -285 q 319 -135 281 -171 q 417 -100 357 -100 q 515 -135 476 -100 q 553 -228 553 -171 q 515 -318 553 -285 q 417 -351 476 -351 z "},"Ỏ":{"ha":833,"x_min":53,"x_max":781,"o":"m 417 -17 q 269 16 336 -17 q 153 110 201 49 q 79 258 106 171 q 53 457 53 346 q 79 655 53 568 q 153 801 106 742 q 269 891 201 860 q 417 922 336 922 q 565 891 497 922 q 680 800 632 860 q 754 653 728 740 q 781 457 781 567 q 754 258 781 346 q 680 110 728 171 q 565 16 632 49 q 417 -17 497 -17 m 417 160 q 529 240 488 160 q 571 457 571 319 q 529 669 571 593 q 417 746 488 746 q 304 669 346 746 q 263 457 263 593 q 304 240 263 319 q 417 160 346 160 m 353 1040 q 396 1054 378 1046 q 414 1082 414 1063 q 389 1113 414 1101 q 304 1129 364 1125 l 328 1231 q 508 1194 456 1228 q 561 1104 561 1160 q 546 1042 561 1068 q 504 999 531 1017 q 442 972 478 982 q 368 960 407 963 l 353 1040 z "},"Ố":{"ha":833,"x_min":53,"x_max":826,"o":"m 417 -17 q 269 16 336 -17 q 153 110 201 49 q 79 258 106 171 q 53 457 53 346 q 79 655 53 568 q 153 801 106 742 q 269 891 201 860 q 417 922 336 922 q 565 891 497 922 q 680 800 632 860 q 754 653 728 740 q 781 457 781 567 q 754 258 781 346 q 680 110 728 171 q 565 16 632 49 q 417 -17 497 -17 m 417 160 q 529 240 488 160 q 571 457 571 319 q 529 669 571 593 q 417 746 488 746 q 304 669 346 746 q 263 457 263 593 q 304 240 263 319 q 417 160 346 160 m 668 1236 l 826 1236 l 689 1069 l 574 1069 l 668 1236 m 329 1133 l 504 1133 l 636 975 l 492 975 l 419 1051 l 414 1051 l 342 975 l 197 975 l 329 1133 z "},"Ồ":{"ha":833,"x_min":53,"x_max":781,"o":"m 417 -17 q 269 16 336 -17 q 153 110 201 49 q 79 258 106 171 q 53 457 53 346 q 79 655 53 568 q 153 801 106 742 q 269 891 201 860 q 417 922 336 922 q 565 891 497 922 q 680 800 632 860 q 754 653 728 740 q 781 457 781 567 q 754 258 781 346 q 680 110 728 171 q 565 16 632 49 q 417 -17 497 -17 m 417 160 q 529 240 488 160 q 571 457 571 319 q 529 669 571 593 q 417 746 488 746 q 304 669 346 746 q 263 457 263 593 q 304 240 263 319 q 417 160 346 160 m 747 1069 l 631 1069 l 494 1236 l 651 1236 l 747 1069 m 329 1133 l 504 1133 l 636 975 l 492 975 l 419 1051 l 414 1051 l 342 975 l 197 975 l 329 1133 z "},"Ổ":{"ha":833,"x_min":53,"x_max":781,"o":"m 417 -17 q 269 16 336 -17 q 153 110 201 49 q 79 258 106 171 q 53 457 53 346 q 79 655 53 568 q 153 801 106 742 q 269 891 201 860 q 417 922 336 922 q 565 891 497 922 q 680 800 632 860 q 754 653 728 740 q 781 457 781 567 q 754 258 781 346 q 680 110 728 171 q 565 16 632 49 q 417 -17 497 -17 m 417 160 q 529 240 488 160 q 571 457 571 319 q 529 669 571 593 q 417 746 488 746 q 304 669 346 746 q 263 457 263 593 q 304 240 263 319 q 417 160 346 160 m 592 1107 q 624 1119 611 1111 q 636 1144 636 1126 q 617 1175 636 1164 q 546 1190 599 1186 l 564 1274 q 723 1240 678 1271 q 768 1163 768 1208 q 722 1074 768 1101 q 607 1042 675 1047 l 592 1107 m 329 1133 l 504 1133 l 636 975 l 492 975 l 419 1051 l 414 1051 l 342 975 l 197 975 l 329 1133 z "},"Ỗ":{"ha":833,"x_min":53,"x_max":781,"o":"m 417 -17 q 269 16 336 -17 q 153 110 201 49 q 79 258 106 171 q 53 457 53 346 q 79 655 53 568 q 153 801 106 742 q 269 891 201 860 q 417 922 336 922 q 565 891 497 922 q 680 800 632 860 q 754 653 728 740 q 781 457 781 567 q 754 258 781 346 q 680 110 728 171 q 565 16 632 49 q 417 -17 497 -17 m 417 160 q 529 240 488 160 q 571 457 571 319 q 529 669 571 593 q 417 746 488 746 q 304 669 346 746 q 263 457 263 593 q 304 240 263 319 q 417 160 346 160 m 329 1133 l 504 1133 l 636 975 l 492 975 l 419 1051 l 414 1051 l 342 975 l 197 975 l 329 1133 m 210 1183 q 253 1303 218 1265 q 336 1340 289 1340 q 385 1332 364 1340 q 424 1315 407 1324 q 457 1297 442 1306 q 486 1289 472 1289 q 536 1340 524 1289 l 624 1340 q 580 1221 615 1258 q 497 1183 544 1183 q 448 1192 469 1183 q 408 1210 426 1200 q 376 1228 390 1219 q 347 1236 361 1236 q 297 1183 308 1236 l 210 1183 z "},"Ộ":{"ha":833,"x_min":53,"x_max":781,"o":"m 417 -17 q 269 16 336 -17 q 153 110 201 49 q 79 258 106 171 q 53 457 53 346 q 79 655 53 568 q 153 801 106 742 q 269 891 201 860 q 417 922 336 922 q 565 891 497 922 q 680 800 632 860 q 754 653 728 740 q 781 457 781 567 q 754 258 781 346 q 680 110 728 171 q 565 16 632 49 q 417 -17 497 -17 m 417 160 q 529 240 488 160 q 571 457 571 319 q 529 669 571 593 q 417 746 488 746 q 304 669 346 746 q 263 457 263 593 q 304 240 263 319 q 417 160 346 160 m 183 975 l 317 1142 l 517 1142 l 650 975 l 493 975 l 419 1060 l 414 1060 l 340 975 l 183 975 m 417 -351 q 319 -318 357 -351 q 281 -228 281 -285 q 319 -135 281 -171 q 417 -100 357 -100 q 515 -135 476 -100 q 553 -228 553 -171 q 515 -318 553 -285 q 417 -351 476 -351 z "},"Ø":{"ha":833,"x_min":42,"x_max":804,"o":"m 329 203 q 417 160 365 160 q 529 240 488 160 q 571 457 571 319 q 569 503 571 481 q 565 546 568 526 l 329 203 m 513 696 q 417 746 474 746 q 304 669 346 746 q 263 457 263 593 q 271 346 263 396 l 513 696 m 710 756 q 763 623 744 697 q 781 457 781 549 q 754 258 781 346 q 680 110 728 171 q 565 16 632 49 q 417 -17 497 -17 q 221 44 303 -17 l 150 -57 l 42 13 l 131 142 q 73 281 93 201 q 53 457 53 360 q 79 655 53 568 q 153 801 106 742 q 269 891 201 860 q 417 922 336 922 q 622 856 535 922 l 696 963 l 804 893 l 710 756 z "},"Œ":{"ha":833,"x_min":26,"x_max":826,"o":"m 26 457 q 56 658 26 574 q 136 798 85 743 q 258 879 188 853 q 410 906 328 906 l 813 906 l 813 735 l 590 735 l 590 551 l 758 551 l 758 381 l 590 381 l 590 172 l 826 172 l 826 0 l 399 0 q 250 28 318 0 q 132 112 182 56 q 54 254 82 168 q 26 457 26 340 m 236 457 q 247 319 236 375 q 276 228 257 263 q 324 180 296 194 q 386 165 351 165 l 408 165 l 408 740 l 386 740 q 324 726 351 740 q 276 680 296 713 q 247 593 257 647 q 236 457 236 539 z "},"Ơ":{"ha":833,"x_min":53,"x_max":826,"o":"m 417 160 q 529 240 488 160 q 571 457 571 319 q 529 669 571 593 q 417 746 488 746 q 304 669 346 746 q 263 457 263 593 q 304 240 263 319 q 417 160 346 160 m 786 1089 q 814 1041 801 1069 q 826 978 826 1013 q 783 865 826 907 q 674 807 740 824 q 752 659 724 747 q 781 457 781 571 q 754 258 781 346 q 680 110 728 171 q 565 16 632 49 q 417 -17 497 -17 q 269 16 336 -17 q 153 110 201 49 q 79 258 106 171 q 53 457 53 346 q 79 655 53 568 q 153 801 106 742 q 269 891 201 860 q 417 922 336 922 q 586 879 508 922 q 646 906 624 888 q 668 964 668 924 q 661 999 668 983 q 647 1028 654 1015 l 786 1089 z "},"Ớ":{"ha":833,"x_min":53,"x_max":826,"o":"m 417 160 q 529 240 488 160 q 571 457 571 319 q 529 669 571 593 q 417 746 488 746 q 304 669 346 746 q 263 457 263 593 q 304 240 263 319 q 417 160 346 160 m 786 1089 q 814 1041 801 1069 q 826 978 826 1013 q 783 865 826 907 q 674 807 740 824 q 752 659 724 747 q 781 457 781 571 q 754 258 781 346 q 680 110 728 171 q 565 16 632 49 q 417 -17 497 -17 q 269 16 336 -17 q 153 110 201 49 q 79 258 106 171 q 53 457 53 346 q 79 655 53 568 q 153 801 106 742 q 269 891 201 860 q 417 922 336 922 q 586 879 508 922 q 646 906 624 888 q 668 964 668 924 q 661 999 668 983 q 647 1028 654 1015 l 786 1089 m 475 975 l 313 975 l 425 1142 l 642 1142 l 475 975 z "},"Ờ":{"ha":833,"x_min":53,"x_max":826,"o":"m 417 160 q 529 240 488 160 q 571 457 571 319 q 529 669 571 593 q 417 746 488 746 q 304 669 346 746 q 263 457 263 593 q 304 240 263 319 q 417 160 346 160 m 786 1089 q 814 1041 801 1069 q 826 978 826 1013 q 783 865 826 907 q 674 807 740 824 q 752 659 724 747 q 781 457 781 571 q 754 258 781 346 q 680 110 728 171 q 565 16 632 49 q 417 -17 497 -17 q 269 16 336 -17 q 153 110 201 49 q 79 258 106 171 q 53 457 53 346 q 79 655 53 568 q 153 801 106 742 q 269 891 201 860 q 417 922 336 922 q 586 879 508 922 q 646 906 624 888 q 668 964 668 924 q 661 999 668 983 q 647 1028 654 1015 l 786 1089 m 192 1142 l 408 1142 l 521 975 l 358 975 l 192 1142 z "},"Ở":{"ha":833,"x_min":53,"x_max":826,"o":"m 417 160 q 529 240 488 160 q 571 457 571 319 q 529 669 571 593 q 417 746 488 746 q 304 669 346 746 q 263 457 263 593 q 304 240 263 319 q 417 160 346 160 m 786 1089 q 814 1041 801 1069 q 826 978 826 1013 q 783 865 826 907 q 674 807 740 824 q 752 659 724 747 q 781 457 781 571 q 754 258 781 346 q 680 110 728 171 q 565 16 632 49 q 417 -17 497 -17 q 269 16 336 -17 q 153 110 201 49 q 79 258 106 171 q 53 457 53 346 q 79 655 53 568 q 153 801 106 742 q 269 891 201 860 q 417 922 336 922 q 586 879 508 922 q 646 906 624 888 q 668 964 668 924 q 661 999 668 983 q 647 1028 654 1015 l 786 1089 m 353 1040 q 396 1054 378 1046 q 414 1082 414 1063 q 389 1113 414 1101 q 304 1129 364 1125 l 328 1231 q 508 1194 456 1228 q 561 1104 561 1160 q 546 1042 561 1068 q 504 999 531 1017 q 442 972 478 982 q 368 960 407 963 l 353 1040 z "},"Ỡ":{"ha":833,"x_min":53,"x_max":826,"o":"m 417 160 q 529 240 488 160 q 571 457 571 319 q 529 669 571 593 q 417 746 488 746 q 304 669 346 746 q 263 457 263 593 q 304 240 263 319 q 417 160 346 160 m 786 1089 q 814 1041 801 1069 q 826 978 826 1013 q 783 865 826 907 q 674 807 740 824 q 752 659 724 747 q 781 457 781 571 q 754 258 781 346 q 680 110 728 171 q 565 16 632 49 q 417 -17 497 -17 q 269 16 336 -17 q 153 110 201 49 q 79 258 106 171 q 53 457 53 346 q 79 655 53 568 q 153 801 106 742 q 269 891 201 860 q 417 922 336 922 q 586 879 508 922 q 646 906 624 888 q 668 964 668 924 q 661 999 668 983 q 647 1028 654 1015 l 786 1089 m 504 976 q 453 986 476 976 q 409 1008 429 996 q 372 1029 389 1019 q 338 1039 354 1039 q 306 1025 319 1039 q 285 976 292 1011 l 181 976 q 233 1119 192 1072 q 329 1165 275 1165 q 381 1156 357 1165 q 424 1134 404 1146 q 462 1113 444 1122 q 496 1103 479 1103 q 528 1117 514 1103 q 549 1165 542 1131 l 653 1165 q 600 1023 642 1069 q 504 976 558 976 z "},"Ợ":{"ha":833,"x_min":53,"x_max":826,"o":"m 417 160 q 529 240 488 160 q 571 457 571 319 q 529 669 571 593 q 417 746 488 746 q 304 669 346 746 q 263 457 263 593 q 304 240 263 319 q 417 160 346 160 m 786 1089 q 814 1041 801 1069 q 826 978 826 1013 q 783 865 826 907 q 674 807 740 824 q 752 659 724 747 q 781 457 781 571 q 754 258 781 346 q 680 110 728 171 q 565 16 632 49 q 417 -17 497 -17 q 269 16 336 -17 q 153 110 201 49 q 79 258 106 171 q 53 457 53 346 q 79 655 53 568 q 153 801 106 742 q 269 891 201 860 q 417 922 336 922 q 586 879 508 922 q 646 906 624 888 q 668 964 668 924 q 661 999 668 983 q 647 1028 654 1015 l 786 1089 m 417 -351 q 319 -318 357 -351 q 281 -228 281 -285 q 319 -135 281 -171 q 417 -100 357 -100 q 515 -135 476 -100 q 553 -228 553 -171 q 515 -318 553 -285 q 417 -351 476 -351 z "},"Ǫ":{"ha":833,"x_min":53,"x_max":781,"o":"m 597 -261 q 530 -296 571 -282 q 453 -310 489 -310 q 340 -276 386 -310 q 293 -179 293 -242 q 321 -83 293 -125 q 381 -14 349 -42 q 235 35 297 -6 q 133 140 174 76 q 72 285 92 204 q 53 457 53 367 q 79 655 53 568 q 153 801 106 742 q 269 891 201 860 q 417 922 336 922 q 565 891 497 922 q 680 800 632 860 q 754 653 728 740 q 781 457 781 567 q 763 291 781 364 q 714 162 746 218 q 638 67 682 106 q 539 4 593 28 q 464 -56 486 -19 q 442 -125 442 -93 q 460 -165 442 -153 q 501 -178 478 -178 q 527 -172 515 -178 q 550 -158 539 -165 l 597 -261 m 417 160 q 529 240 488 160 q 571 457 571 319 q 529 669 571 593 q 417 746 488 746 q 304 669 346 746 q 263 457 263 593 q 304 240 263 319 q 417 160 346 160 z "},"Ŕ":{"ha":833,"x_min":97,"x_max":811,"o":"m 301 489 l 401 489 q 567 624 567 489 q 525 717 567 690 q 401 743 483 743 l 301 743 l 301 489 m 582 0 l 408 326 l 301 326 l 301 0 l 97 0 l 97 906 l 418 906 q 553 892 490 906 q 665 845 617 878 q 740 758 713 813 q 768 624 768 704 q 724 459 768 524 q 607 363 679 394 l 811 0 l 582 0 m 479 975 l 317 975 l 429 1142 l 646 1142 l 479 975 z "},"Ř":{"ha":833,"x_min":97,"x_max":811,"o":"m 301 489 l 401 489 q 567 624 567 489 q 525 717 567 690 q 401 743 483 743 l 301 743 l 301 489 m 582 0 l 408 326 l 301 326 l 301 0 l 97 0 l 97 906 l 418 906 q 553 892 490 906 q 665 845 617 878 q 740 758 713 813 q 768 624 768 704 q 724 459 768 524 q 607 363 679 394 l 811 0 l 582 0 m 654 1142 l 521 975 l 321 975 l 188 1142 l 344 1142 l 418 1057 l 424 1057 l 497 1142 l 654 1142 z "},"Ŗ":{"ha":833,"x_min":97,"x_max":811,"o":"m 301 489 l 401 489 q 567 624 567 489 q 525 717 567 690 q 401 743 483 743 l 301 743 l 301 489 m 582 0 l 408 326 l 301 326 l 301 0 l 97 0 l 97 906 l 418 906 q 553 892 490 906 q 665 845 617 878 q 740 758 713 813 q 768 624 768 704 q 724 459 768 524 q 607 363 679 394 l 811 0 l 582 0 m 394 -58 q 526 -95 489 -68 q 563 -175 563 -122 q 542 -237 563 -211 q 489 -280 522 -262 q 411 -306 456 -297 q 317 -318 367 -315 l 301 -236 q 384 -219 351 -231 q 417 -185 417 -208 q 402 -153 417 -165 q 356 -133 388 -142 l 394 -58 l 394 -58 z "},"Ṛ":{"ha":833,"x_min":97,"x_max":811,"o":"m 301 489 l 401 489 q 567 624 567 489 q 525 717 567 690 q 401 743 483 743 l 301 743 l 301 489 m 582 0 l 408 326 l 301 326 l 301 0 l 97 0 l 97 906 l 418 906 q 553 892 490 906 q 665 845 617 878 q 740 758 713 813 q 768 624 768 704 q 724 459 768 524 q 607 363 679 394 l 811 0 l 582 0 m 444 -351 q 347 -318 385 -351 q 308 -228 308 -285 q 347 -135 308 -171 q 444 -100 385 -100 q 542 -135 504 -100 q 581 -228 581 -171 q 542 -318 581 -285 q 444 -351 504 -351 z "},"Ṝ":{"ha":833,"x_min":97,"x_max":811,"o":"m 301 489 l 401 489 q 567 624 567 489 q 525 717 567 690 q 401 743 483 743 l 301 743 l 301 489 m 582 0 l 408 326 l 301 326 l 301 0 l 97 0 l 97 906 l 418 906 q 553 892 490 906 q 665 845 617 878 q 740 758 713 813 q 768 624 768 704 q 724 459 768 524 q 607 363 679 394 l 811 0 l 582 0 m 225 1129 l 617 1129 l 617 1000 l 225 1000 l 225 1129 m 444 -351 q 347 -318 385 -351 q 308 -228 308 -285 q 347 -135 308 -171 q 444 -100 385 -100 q 542 -135 504 -100 q 581 -228 581 -171 q 542 -318 581 -285 q 444 -351 504 -351 z "},"Ṟ":{"ha":833,"x_min":97,"x_max":811,"o":"m 301 489 l 401 489 q 567 624 567 489 q 525 717 567 690 q 401 743 483 743 l 301 743 l 301 489 m 582 0 l 408 326 l 301 326 l 301 0 l 97 0 l 97 906 l 418 906 q 553 892 490 906 q 665 845 617 878 q 740 758 713 813 q 768 624 768 704 q 724 459 768 524 q 607 363 679 394 l 811 0 l 582 0 m 636 -262 l 253 -262 l 253 -132 l 636 -132 l 636 -262 z "},"Ś":{"ha":833,"x_min":69,"x_max":765,"o":"m 188 254 q 299 186 239 213 q 419 160 360 160 q 523 183 490 160 q 556 247 556 207 q 546 283 556 268 q 518 310 536 299 q 474 333 500 322 q 415 356 449 343 l 299 406 q 226 442 261 419 q 164 494 190 464 q 122 563 138 524 q 106 653 106 603 q 130 758 106 708 q 198 844 154 807 q 303 901 242 881 q 438 922 364 922 q 599 892 521 922 q 739 803 676 861 l 635 674 q 542 727 588 708 q 438 746 496 746 q 345 724 378 746 q 313 664 313 703 q 354 601 313 622 q 461 557 396 581 l 571 510 q 713 418 661 476 q 765 264 765 360 q 742 156 765 207 q 674 67 718 106 q 564 6 629 29 q 414 -17 499 -17 q 233 16 322 -17 q 69 114 143 49 l 188 254 m 485 975 l 322 975 l 435 1142 l 651 1142 l 485 975 z "},"Ŝ":{"ha":833,"x_min":69,"x_max":765,"o":"m 188 254 q 299 186 239 213 q 419 160 360 160 q 523 183 490 160 q 556 247 556 207 q 546 283 556 268 q 518 310 536 299 q 474 333 500 322 q 415 356 449 343 l 299 406 q 226 442 261 419 q 164 494 190 464 q 122 563 138 524 q 106 653 106 603 q 130 758 106 708 q 198 844 154 807 q 303 901 242 881 q 438 922 364 922 q 599 892 521 922 q 739 803 676 861 l 635 674 q 542 727 588 708 q 438 746 496 746 q 345 724 378 746 q 313 664 313 703 q 354 601 313 622 q 461 557 396 581 l 571 510 q 713 418 661 476 q 765 264 765 360 q 742 156 765 207 q 674 67 718 106 q 564 6 629 29 q 414 -17 499 -17 q 233 16 322 -17 q 69 114 143 49 l 188 254 m 193 975 l 326 1142 l 526 1142 l 660 975 l 503 975 l 429 1060 l 424 1060 l 350 975 l 193 975 z "},"Š":{"ha":833,"x_min":69,"x_max":765,"o":"m 188 254 q 299 186 239 213 q 419 160 360 160 q 523 183 490 160 q 556 247 556 207 q 546 283 556 268 q 518 310 536 299 q 474 333 500 322 q 415 356 449 343 l 299 406 q 226 442 261 419 q 164 494 190 464 q 122 563 138 524 q 106 653 106 603 q 130 758 106 708 q 198 844 154 807 q 303 901 242 881 q 438 922 364 922 q 599 892 521 922 q 739 803 676 861 l 635 674 q 542 727 588 708 q 438 746 496 746 q 345 724 378 746 q 313 664 313 703 q 354 601 313 622 q 461 557 396 581 l 571 510 q 713 418 661 476 q 765 264 765 360 q 742 156 765 207 q 674 67 718 106 q 564 6 629 29 q 414 -17 499 -17 q 233 16 322 -17 q 69 114 143 49 l 188 254 m 660 1142 l 526 975 l 326 975 l 193 1142 l 350 1142 l 424 1057 l 429 1057 l 503 1142 l 660 1142 z "},"Ş":{"ha":833,"x_min":69,"x_max":765,"o":"m 188 254 q 299 186 239 213 q 419 160 360 160 q 523 183 490 160 q 556 247 556 207 q 546 283 556 268 q 518 310 536 299 q 474 333 500 322 q 415 356 449 343 l 299 406 q 226 442 261 419 q 164 494 190 464 q 122 563 138 524 q 106 653 106 603 q 130 758 106 708 q 198 844 154 807 q 303 901 242 881 q 438 922 364 922 q 599 892 521 922 q 739 803 676 861 l 635 674 q 542 727 588 708 q 438 746 496 746 q 345 724 378 746 q 313 664 313 703 q 354 601 313 622 q 461 557 396 581 l 571 510 q 713 418 661 476 q 765 264 765 360 q 742 156 765 207 q 674 67 718 106 q 564 6 629 29 q 414 -17 499 -17 q 233 16 322 -17 q 69 114 143 49 l 188 254 m 367 6 l 486 6 l 458 -60 q 516 -95 493 -71 q 539 -162 539 -119 q 519 -224 539 -199 q 465 -268 499 -250 q 386 -295 431 -286 q 293 -307 342 -304 l 278 -225 q 359 -206 326 -219 q 392 -164 392 -192 q 375 -131 392 -146 q 311 -106 358 -117 l 367 6 z "},"Ș":{"ha":833,"x_min":69,"x_max":765,"o":"m 188 254 q 299 186 239 213 q 419 160 360 160 q 523 183 490 160 q 556 247 556 207 q 546 283 556 268 q 518 310 536 299 q 474 333 500 322 q 415 356 449 343 l 299 406 q 226 442 261 419 q 164 494 190 464 q 122 563 138 524 q 106 653 106 603 q 130 758 106 708 q 198 844 154 807 q 303 901 242 881 q 438 922 364 922 q 599 892 521 922 q 739 803 676 861 l 635 674 q 542 727 588 708 q 438 746 496 746 q 345 724 378 746 q 313 664 313 703 q 354 601 313 622 q 461 557 396 581 l 571 510 q 713 418 661 476 q 765 264 765 360 q 742 156 765 207 q 674 67 718 106 q 564 6 629 29 q 414 -17 499 -17 q 233 16 322 -17 q 69 114 143 49 l 188 254 m 381 -58 q 512 -95 475 -68 q 549 -175 549 -122 q 528 -237 549 -211 q 475 -280 508 -262 q 397 -306 442 -297 q 303 -318 353 -315 l 288 -236 q 370 -219 338 -231 q 403 -185 403 -208 q 388 -153 403 -165 q 342 -133 374 -142 l 381 -58 l 381 -58 z "},"Ṡ":{"ha":833,"x_min":69,"x_max":765,"o":"m 188 254 q 299 186 239 213 q 419 160 360 160 q 523 183 490 160 q 556 247 556 207 q 546 283 556 268 q 518 310 536 299 q 474 333 500 322 q 415 356 449 343 l 299 406 q 226 442 261 419 q 164 494 190 464 q 122 563 138 524 q 106 653 106 603 q 130 758 106 708 q 198 844 154 807 q 303 901 242 881 q 438 922 364 922 q 599 892 521 922 q 739 803 676 861 l 635 674 q 542 727 588 708 q 438 746 496 746 q 345 724 378 746 q 313 664 313 703 q 354 601 313 622 q 461 557 396 581 l 571 510 q 713 418 661 476 q 765 264 765 360 q 742 156 765 207 q 674 67 718 106 q 564 6 629 29 q 414 -17 499 -17 q 233 16 322 -17 q 69 114 143 49 l 188 254 m 426 974 q 342 1003 375 974 q 308 1081 308 1033 q 342 1158 308 1128 q 426 1188 375 1188 q 511 1158 478 1188 q 544 1081 544 1128 q 511 1003 544 1033 q 426 974 478 974 z "},"Ṣ":{"ha":833,"x_min":69,"x_max":765,"o":"m 188 254 q 299 186 239 213 q 419 160 360 160 q 523 183 490 160 q 556 247 556 207 q 546 283 556 268 q 518 310 536 299 q 474 333 500 322 q 415 356 449 343 l 299 406 q 226 442 261 419 q 164 494 190 464 q 122 563 138 524 q 106 653 106 603 q 130 758 106 708 q 198 844 154 807 q 303 901 242 881 q 438 922 364 922 q 599 892 521 922 q 739 803 676 861 l 635 674 q 542 727 588 708 q 438 746 496 746 q 345 724 378 746 q 313 664 313 703 q 354 601 313 622 q 461 557 396 581 l 571 510 q 713 418 661 476 q 765 264 765 360 q 742 156 765 207 q 674 67 718 106 q 564 6 629 29 q 414 -17 499 -17 q 233 16 322 -17 q 69 114 143 49 l 188 254 m 431 -351 q 333 -318 371 -351 q 294 -228 294 -285 q 333 -135 294 -171 q 431 -100 371 -100 q 528 -135 490 -100 q 567 -228 567 -171 q 528 -318 567 -285 q 431 -351 490 -351 z "},"ẞ":{"ha":833,"x_min":89,"x_max":785,"o":"m 89 614 q 108 734 89 678 q 167 832 126 790 q 270 898 207 874 q 422 922 333 922 q 622 852 543 922 q 722 668 700 782 l 622 499 q 682 460 653 482 q 734 408 711 438 q 771 338 757 378 q 785 247 785 299 q 770 143 785 192 q 726 59 756 94 q 651 3 696 24 q 547 -17 607 -17 q 417 10 469 -17 q 335 72 364 36 l 440 196 q 484 159 464 169 q 519 149 504 149 q 556 176 542 149 q 571 249 571 204 q 535 326 571 290 q 429 382 500 361 l 415 501 l 519 675 q 483 732 508 707 q 417 757 457 757 q 326 715 354 757 q 299 586 299 672 l 299 0 l 89 0 l 89 614 z "},"Ť":{"ha":833,"x_min":43,"x_max":790,"o":"m 314 733 l 43 733 l 43 906 l 790 906 l 790 733 l 519 733 l 519 0 l 314 0 l 314 733 m 650 1142 l 517 975 l 317 975 l 183 1142 l 340 1142 l 414 1057 l 419 1057 l 493 1142 l 650 1142 z "},"Ţ":{"ha":833,"x_min":43,"x_max":790,"o":"m 314 733 l 43 733 l 43 906 l 790 906 l 790 733 l 519 733 l 519 0 l 314 0 l 314 733 m 361 6 l 481 6 l 453 -60 q 510 -95 488 -71 q 533 -162 533 -119 q 513 -224 533 -199 q 459 -268 493 -250 q 381 -295 425 -286 q 288 -307 336 -304 l 272 -225 q 353 -206 321 -219 q 386 -164 386 -192 q 369 -131 386 -146 q 306 -106 353 -117 l 361 6 z "},"Ț":{"ha":833,"x_min":43,"x_max":790,"o":"m 314 733 l 43 733 l 43 906 l 790 906 l 790 733 l 519 733 l 519 0 l 314 0 l 314 733 m 367 -58 q 498 -95 461 -68 q 535 -175 535 -122 q 515 -237 535 -211 q 461 -280 494 -262 q 383 -306 428 -297 q 289 -318 339 -315 l 274 -236 q 356 -219 324 -231 q 389 -185 389 -208 q 374 -153 389 -165 q 328 -133 360 -142 l 367 -58 l 367 -58 z "},"Ṭ":{"ha":833,"x_min":43,"x_max":790,"o":"m 314 733 l 43 733 l 43 906 l 790 906 l 790 733 l 519 733 l 519 0 l 314 0 l 314 733 m 417 -351 q 319 -318 357 -351 q 281 -228 281 -285 q 319 -135 281 -171 q 417 -100 357 -100 q 515 -135 476 -100 q 553 -228 553 -171 q 515 -318 553 -285 q 417 -351 476 -351 z "},"Ṯ":{"ha":833,"x_min":43,"x_max":790,"o":"m 314 733 l 43 733 l 43 906 l 790 906 l 790 733 l 519 733 l 519 0 l 314 0 l 314 733 m 608 -262 l 225 -262 l 225 -132 l 608 -132 l 608 -262 z "},"Ù":{"ha":833,"x_min":89,"x_max":744,"o":"m 89 906 l 293 906 l 293 328 q 324 203 293 246 q 419 160 354 160 q 516 203 485 160 q 547 328 547 246 l 547 906 l 744 906 l 744 349 q 665 77 744 171 q 419 -17 585 -17 q 171 77 253 -17 q 89 349 89 171 l 89 906 m 192 1142 l 408 1142 l 521 975 l 358 975 l 192 1142 z "},"Ú":{"ha":833,"x_min":89,"x_max":744,"o":"m 89 906 l 293 906 l 293 328 q 324 203 293 246 q 419 160 354 160 q 516 203 485 160 q 547 328 547 246 l 547 906 l 744 906 l 744 349 q 665 77 744 171 q 419 -17 585 -17 q 171 77 253 -17 q 89 349 89 171 l 89 906 m 475 975 l 313 975 l 425 1142 l 642 1142 l 475 975 z "},"Û":{"ha":833,"x_min":89,"x_max":744,"o":"m 89 906 l 293 906 l 293 328 q 324 203 293 246 q 419 160 354 160 q 516 203 485 160 q 547 328 547 246 l 547 906 l 744 906 l 744 349 q 665 77 744 171 q 419 -17 585 -17 q 171 77 253 -17 q 89 349 89 171 l 89 906 m 183 975 l 317 1142 l 517 1142 l 650 975 l 493 975 l 419 1060 l 414 1060 l 340 975 l 183 975 z "},"Ũ":{"ha":833,"x_min":89,"x_max":744,"o":"m 89 906 l 293 906 l 293 328 q 324 203 293 246 q 419 160 354 160 q 516 203 485 160 q 547 328 547 246 l 547 906 l 744 906 l 744 349 q 665 77 744 171 q 419 -17 585 -17 q 171 77 253 -17 q 89 349 89 171 l 89 906 m 504 976 q 453 986 476 976 q 409 1008 429 996 q 372 1029 389 1019 q 338 1039 354 1039 q 306 1025 319 1039 q 285 976 292 1011 l 181 976 q 233 1119 192 1072 q 329 1165 275 1165 q 381 1156 357 1165 q 424 1134 404 1146 q 462 1113 444 1122 q 496 1103 479 1103 q 528 1117 514 1103 q 549 1165 542 1131 l 653 1165 q 600 1023 642 1069 q 504 976 558 976 z "},"Ü":{"ha":833,"x_min":89,"x_max":744,"o":"m 89 906 l 293 906 l 293 328 q 324 203 293 246 q 419 160 354 160 q 516 203 485 160 q 547 328 547 246 l 547 906 l 744 906 l 744 349 q 665 77 744 171 q 419 -17 585 -17 q 171 77 253 -17 q 89 349 89 171 l 89 906 m 279 972 q 209 1000 236 972 q 182 1069 182 1028 q 209 1139 182 1111 q 279 1167 236 1167 q 349 1139 322 1167 q 376 1069 376 1111 q 349 1000 376 1028 q 279 972 322 972 m 554 972 q 484 1000 511 972 q 457 1069 457 1028 q 484 1139 457 1111 q 554 1167 511 1167 q 624 1139 597 1167 q 651 1069 651 1111 q 624 1000 651 1028 q 554 972 597 972 z "},"Ū":{"ha":833,"x_min":89,"x_max":744,"o":"m 89 906 l 293 906 l 293 328 q 324 203 293 246 q 419 160 354 160 q 516 203 485 160 q 547 328 547 246 l 547 906 l 744 906 l 744 349 q 665 77 744 171 q 419 -17 585 -17 q 171 77 253 -17 q 89 349 89 171 l 89 906 m 221 1129 l 613 1129 l 613 1000 l 221 1000 l 221 1129 z "},"Ŭ":{"ha":833,"x_min":89,"x_max":744,"o":"m 89 906 l 293 906 l 293 328 q 324 203 293 246 q 419 160 354 160 q 516 203 485 160 q 547 328 547 246 l 547 906 l 744 906 l 744 349 q 665 77 744 171 q 419 -17 585 -17 q 171 77 253 -17 q 89 349 89 171 l 89 906 m 417 975 q 280 1021 325 975 q 226 1142 235 1067 l 339 1142 q 363 1096 346 1114 q 417 1078 381 1078 q 470 1096 453 1078 q 494 1142 488 1114 l 607 1142 q 553 1021 599 1067 q 417 975 508 975 z "},"Ů":{"ha":833,"x_min":89,"x_max":744,"o":"m 89 906 l 293 906 l 293 328 q 324 203 293 246 q 419 160 354 160 q 516 203 485 160 q 547 328 547 246 l 547 906 l 744 906 l 744 349 q 665 77 744 171 q 419 -17 585 -17 q 171 77 253 -17 q 89 349 89 171 l 89 906 m 417 968 q 303 1005 346 968 q 260 1104 260 1042 q 303 1203 260 1167 q 417 1240 346 1240 q 531 1203 488 1240 q 574 1104 574 1167 q 531 1005 574 1042 q 417 968 488 968 m 417 1044 q 456 1060 440 1044 q 472 1104 472 1076 q 456 1148 472 1132 q 417 1164 440 1164 q 376 1148 393 1164 q 360 1104 360 1132 q 376 1060 360 1076 q 417 1044 393 1044 z "},"Ű":{"ha":833,"x_min":89,"x_max":744,"o":"m 89 906 l 293 906 l 293 328 q 324 203 293 246 q 419 160 354 160 q 516 203 485 160 q 547 328 547 246 l 547 906 l 744 906 l 744 349 q 665 77 744 171 q 419 -17 585 -17 q 171 77 253 -17 q 89 349 89 171 l 89 906 m 226 975 l 314 1142 l 488 1142 l 364 975 l 226 975 m 564 1142 l 738 1142 l 613 975 l 475 975 l 564 1142 z "},"Ǔ":{"ha":833,"x_min":89,"x_max":744,"o":"m 89 906 l 293 906 l 293 328 q 324 203 293 246 q 419 160 354 160 q 516 203 485 160 q 547 328 547 246 l 547 906 l 744 906 l 744 349 q 665 77 744 171 q 419 -17 585 -17 q 171 77 253 -17 q 89 349 89 171 l 89 906 m 650 1142 l 517 975 l 317 975 l 183 1142 l 340 1142 l 414 1057 l 419 1057 l 493 1142 l 650 1142 z "},"Ǖ":{"ha":833,"x_min":89,"x_max":744,"o":"m 89 906 l 293 906 l 293 328 q 324 203 293 246 q 419 160 354 160 q 516 203 485 160 q 547 328 547 246 l 547 906 l 744 906 l 744 349 q 665 77 744 171 q 419 -17 585 -17 q 171 77 253 -17 q 89 349 89 171 l 89 906 m 221 1307 l 613 1307 l 613 1211 l 221 1211 l 221 1307 m 279 972 q 217 997 242 972 q 193 1058 193 1022 q 217 1119 193 1094 q 279 1143 242 1143 q 341 1119 317 1143 q 365 1058 365 1094 q 341 997 365 1022 q 279 972 317 972 m 554 972 q 492 997 517 972 q 468 1058 468 1022 q 492 1119 468 1094 q 554 1143 517 1143 q 616 1119 592 1143 q 640 1058 640 1094 q 616 997 640 1022 q 554 972 592 972 z "},"Ǘ":{"ha":833,"x_min":89,"x_max":744,"o":"m 89 906 l 293 906 l 293 328 q 324 203 293 246 q 419 160 354 160 q 516 203 485 160 q 547 328 547 246 l 547 906 l 744 906 l 744 349 q 665 77 744 171 q 419 -17 585 -17 q 171 77 253 -17 q 89 349 89 171 l 89 906 m 425 1353 l 639 1353 l 475 1186 l 313 1186 l 425 1353 m 279 972 q 217 997 242 972 q 193 1058 193 1022 q 217 1119 193 1094 q 279 1143 242 1143 q 341 1119 317 1143 q 365 1058 365 1094 q 341 997 365 1022 q 279 972 317 972 m 554 972 q 492 997 517 972 q 468 1058 468 1022 q 492 1119 468 1094 q 554 1143 517 1143 q 616 1119 592 1143 q 640 1058 640 1094 q 616 997 640 1022 q 554 972 592 972 z "},"Ǚ":{"ha":833,"x_min":89,"x_max":744,"o":"m 89 906 l 293 906 l 293 328 q 324 203 293 246 q 419 160 354 160 q 516 203 485 160 q 547 328 547 246 l 547 906 l 744 906 l 744 349 q 665 77 744 171 q 419 -17 585 -17 q 171 77 253 -17 q 89 349 89 171 l 89 906 m 279 972 q 217 997 242 972 q 193 1058 193 1022 q 217 1119 193 1094 q 279 1143 242 1143 q 341 1119 317 1143 q 365 1058 365 1094 q 341 997 365 1022 q 279 972 317 972 m 554 972 q 492 997 517 972 q 468 1058 468 1022 q 492 1119 468 1094 q 554 1143 517 1143 q 616 1119 592 1143 q 640 1058 640 1094 q 616 997 640 1022 q 554 972 592 972 m 650 1353 l 517 1186 l 317 1186 l 183 1353 l 340 1353 l 414 1269 l 419 1269 l 493 1353 l 650 1353 z "},"Ǜ":{"ha":833,"x_min":89,"x_max":744,"o":"m 89 906 l 293 906 l 293 328 q 324 203 293 246 q 419 160 354 160 q 516 203 485 160 q 547 328 547 246 l 547 906 l 744 906 l 744 349 q 665 77 744 171 q 419 -17 585 -17 q 171 77 253 -17 q 89 349 89 171 l 89 906 m 521 1186 l 358 1186 l 194 1353 l 408 1353 l 521 1186 m 554 972 q 492 997 517 972 q 468 1058 468 1022 q 492 1119 468 1094 q 554 1143 517 1143 q 616 1119 592 1143 q 640 1058 640 1094 q 616 997 640 1022 q 554 972 592 972 m 279 972 q 217 997 242 972 q 193 1058 193 1022 q 217 1119 193 1094 q 279 1143 242 1143 q 341 1119 317 1143 q 365 1058 365 1094 q 341 997 365 1022 q 279 972 317 972 z "},"Ụ":{"ha":833,"x_min":89,"x_max":744,"o":"m 89 906 l 293 906 l 293 328 q 324 203 293 246 q 419 160 354 160 q 516 203 485 160 q 547 328 547 246 l 547 906 l 744 906 l 744 349 q 665 77 744 171 q 419 -17 585 -17 q 171 77 253 -17 q 89 349 89 171 l 89 906 m 417 -351 q 319 -318 357 -351 q 281 -228 281 -285 q 319 -135 281 -171 q 417 -100 357 -100 q 515 -135 476 -100 q 553 -228 553 -171 q 515 -318 553 -285 q 417 -351 476 -351 z "},"Ủ":{"ha":833,"x_min":89,"x_max":744,"o":"m 89 906 l 293 906 l 293 328 q 324 203 293 246 q 419 160 354 160 q 516 203 485 160 q 547 328 547 246 l 547 906 l 744 906 l 744 349 q 665 77 744 171 q 419 -17 585 -17 q 171 77 253 -17 q 89 349 89 171 l 89 906 m 353 1040 q 396 1054 378 1046 q 414 1082 414 1063 q 389 1113 414 1101 q 304 1129 364 1125 l 328 1231 q 508 1194 456 1228 q 561 1104 561 1160 q 546 1042 561 1068 q 504 999 531 1017 q 442 972 478 982 q 368 960 407 963 l 353 1040 z "},"Ų":{"ha":833,"x_min":89,"x_max":744,"o":"m 89 906 l 293 906 l 293 328 q 324 203 293 246 q 418 160 354 160 q 515 203 483 160 q 547 328 547 246 l 547 906 l 744 906 l 744 349 q 701 135 744 218 q 572 13 658 53 q 507 -25 532 -7 q 467 -60 482 -43 q 447 -94 453 -78 q 442 -125 442 -111 q 460 -165 442 -153 q 500 -178 478 -178 q 526 -172 514 -178 q 549 -158 539 -165 l 596 -261 q 528 -296 569 -282 q 451 -310 488 -310 q 338 -276 385 -310 q 292 -179 292 -242 q 302 -121 292 -147 q 327 -74 313 -94 q 357 -37 342 -53 q 381 -14 372 -22 q 161 90 233 -4 q 89 349 89 185 l 89 906 z "},"Ư":{"ha":833,"x_min":89,"x_max":917,"o":"m 876 1117 q 904 1069 892 1097 q 917 1006 917 1040 q 903 937 917 967 q 867 885 890 907 q 813 851 844 864 q 744 831 781 838 l 744 349 q 665 77 744 171 q 419 -17 585 -17 q 171 77 253 -17 q 89 349 89 171 l 89 906 l 293 906 l 293 328 q 324 203 293 246 q 419 160 354 160 q 516 203 485 160 q 547 328 547 246 l 547 906 l 644 906 q 685 910 665 907 q 722 923 706 914 q 749 948 739 932 q 758 992 758 964 q 751 1027 758 1011 q 738 1056 744 1043 l 876 1117 z "},"Ứ":{"ha":833,"x_min":89,"x_max":917,"o":"m 876 1117 q 904 1069 892 1097 q 917 1006 917 1040 q 903 937 917 967 q 867 885 890 907 q 813 851 844 864 q 744 831 781 838 l 744 349 q 665 77 744 171 q 419 -17 585 -17 q 171 77 253 -17 q 89 349 89 171 l 89 906 l 293 906 l 293 328 q 324 203 293 246 q 419 160 354 160 q 516 203 485 160 q 547 328 547 246 l 547 906 l 644 906 q 685 910 665 907 q 722 923 706 914 q 749 948 739 932 q 758 992 758 964 q 751 1027 758 1011 q 738 1056 744 1043 l 876 1117 m 475 975 l 313 975 l 425 1142 l 642 1142 l 475 975 z "},"Ừ":{"ha":833,"x_min":89,"x_max":917,"o":"m 876 1117 q 904 1069 892 1097 q 917 1006 917 1040 q 903 937 917 967 q 867 885 890 907 q 813 851 844 864 q 744 831 781 838 l 744 349 q 665 77 744 171 q 419 -17 585 -17 q 171 77 253 -17 q 89 349 89 171 l 89 906 l 293 906 l 293 328 q 324 203 293 246 q 419 160 354 160 q 516 203 485 160 q 547 328 547 246 l 547 906 l 644 906 q 685 910 665 907 q 722 923 706 914 q 749 948 739 932 q 758 992 758 964 q 751 1027 758 1011 q 738 1056 744 1043 l 876 1117 m 192 1142 l 408 1142 l 521 975 l 358 975 l 192 1142 z "},"Ử":{"ha":833,"x_min":89,"x_max":917,"o":"m 876 1117 q 904 1069 892 1097 q 917 1006 917 1040 q 903 937 917 967 q 867 885 890 907 q 813 851 844 864 q 744 831 781 838 l 744 349 q 665 77 744 171 q 419 -17 585 -17 q 171 77 253 -17 q 89 349 89 171 l 89 906 l 293 906 l 293 328 q 324 203 293 246 q 419 160 354 160 q 516 203 485 160 q 547 328 547 246 l 547 906 l 644 906 q 685 910 665 907 q 722 923 706 914 q 749 948 739 932 q 758 992 758 964 q 751 1027 758 1011 q 738 1056 744 1043 l 876 1117 m 353 1040 q 396 1054 378 1046 q 414 1082 414 1063 q 389 1113 414 1101 q 304 1129 364 1125 l 328 1231 q 508 1194 456 1228 q 561 1104 561 1160 q 546 1042 561 1068 q 504 999 531 1017 q 442 972 478 982 q 368 960 407 963 l 353 1040 z "},"Ữ":{"ha":833,"x_min":89,"x_max":917,"o":"m 876 1117 q 904 1069 892 1097 q 917 1006 917 1040 q 903 937 917 967 q 867 885 890 907 q 813 851 844 864 q 744 831 781 838 l 744 349 q 665 77 744 171 q 419 -17 585 -17 q 171 77 253 -17 q 89 349 89 171 l 89 906 l 293 906 l 293 328 q 324 203 293 246 q 419 160 354 160 q 516 203 485 160 q 547 328 547 246 l 547 906 l 644 906 q 685 910 665 907 q 722 923 706 914 q 749 948 739 932 q 758 992 758 964 q 751 1027 758 1011 q 738 1056 744 1043 l 876 1117 m 504 976 q 453 986 476 976 q 409 1008 429 996 q 372 1029 389 1019 q 338 1039 354 1039 q 306 1025 319 1039 q 285 976 292 1011 l 181 976 q 233 1119 192 1072 q 329 1165 275 1165 q 381 1156 357 1165 q 424 1134 404 1146 q 462 1113 444 1122 q 496 1103 479 1103 q 528 1117 514 1103 q 549 1165 542 1131 l 653 1165 q 600 1023 642 1069 q 504 976 558 976 z "},"Ự":{"ha":833,"x_min":89,"x_max":917,"o":"m 876 1117 q 904 1069 892 1097 q 917 1006 917 1040 q 903 937 917 967 q 867 885 890 907 q 813 851 844 864 q 744 831 781 838 l 744 349 q 665 77 744 171 q 419 -17 585 -17 q 171 77 253 -17 q 89 349 89 171 l 89 906 l 293 906 l 293 328 q 324 203 293 246 q 419 160 354 160 q 516 203 485 160 q 547 328 547 246 l 547 906 l 644 906 q 685 910 665 907 q 722 923 706 914 q 749 948 739 932 q 758 992 758 964 q 751 1027 758 1011 q 738 1056 744 1043 l 876 1117 m 417 -351 q 319 -318 357 -351 q 281 -228 281 -285 q 319 -135 281 -171 q 417 -100 357 -100 q 515 -135 476 -100 q 553 -228 553 -171 q 515 -318 553 -285 q 417 -351 476 -351 z "},"Ẁ":{"ha":833,"x_min":6,"x_max":828,"o":"m 6 906 l 214 906 l 243 424 q 246 308 244 365 q 249 193 247 251 l 253 193 q 277 308 264 251 q 301 424 290 365 l 364 675 l 488 675 l 547 424 q 571 310 558 368 q 594 193 583 251 l 600 193 q 603 309 603 251 q 607 424 604 367 l 633 906 l 828 906 l 715 0 l 501 0 l 444 285 q 429 373 436 328 q 419 458 422 418 l 415 458 q 405 373 411 418 q 390 285 399 328 l 336 0 l 126 0 l 6 906 m 192 1142 l 408 1142 l 521 975 l 358 975 l 192 1142 z "},"Ẃ":{"ha":833,"x_min":6,"x_max":828,"o":"m 6 906 l 214 906 l 243 424 q 246 308 244 365 q 249 193 247 251 l 253 193 q 277 308 264 251 q 301 424 290 365 l 364 675 l 488 675 l 547 424 q 571 310 558 368 q 594 193 583 251 l 600 193 q 603 309 603 251 q 607 424 604 367 l 633 906 l 828 906 l 715 0 l 501 0 l 444 285 q 429 373 436 328 q 419 458 422 418 l 415 458 q 405 373 411 418 q 390 285 399 328 l 336 0 l 126 0 l 6 906 m 475 975 l 313 975 l 425 1142 l 642 1142 l 475 975 z "},"Ŵ":{"ha":833,"x_min":6,"x_max":828,"o":"m 6 906 l 214 906 l 243 424 q 246 308 244 365 q 249 193 247 251 l 253 193 q 277 308 264 251 q 301 424 290 365 l 364 675 l 488 675 l 547 424 q 571 310 558 368 q 594 193 583 251 l 600 193 q 603 309 603 251 q 607 424 604 367 l 633 906 l 828 906 l 715 0 l 501 0 l 444 285 q 429 373 436 328 q 419 458 422 418 l 415 458 q 405 373 411 418 q 390 285 399 328 l 336 0 l 126 0 l 6 906 m 183 975 l 317 1142 l 517 1142 l 650 975 l 493 975 l 419 1060 l 414 1060 l 340 975 l 183 975 z "},"Ẅ":{"ha":833,"x_min":6,"x_max":828,"o":"m 6 906 l 214 906 l 243 424 q 246 308 244 365 q 249 193 247 251 l 253 193 q 277 308 264 251 q 301 424 290 365 l 364 675 l 488 675 l 547 424 q 571 310 558 368 q 594 193 583 251 l 600 193 q 603 309 603 251 q 607 424 604 367 l 633 906 l 828 906 l 715 0 l 501 0 l 444 285 q 429 373 436 328 q 419 458 422 418 l 415 458 q 405 373 411 418 q 390 285 399 328 l 336 0 l 126 0 l 6 906 m 279 972 q 209 1000 236 972 q 182 1069 182 1028 q 209 1139 182 1111 q 279 1167 236 1167 q 349 1139 322 1167 q 376 1069 376 1111 q 349 1000 376 1028 q 279 972 322 972 m 554 972 q 484 1000 511 972 q 457 1069 457 1028 q 484 1139 457 1111 q 554 1167 511 1167 q 624 1139 597 1167 q 651 1069 651 1111 q 624 1000 651 1028 q 554 972 597 972 z "},"Ỳ":{"ha":833,"x_min":22,"x_max":811,"o":"m 314 306 l 22 906 l 242 906 l 333 688 q 374 585 353 635 q 415 481 394 535 l 421 481 q 464 585 443 535 q 506 688 485 635 l 597 906 l 811 906 l 519 306 l 519 0 l 314 0 l 314 306 m 192 1142 l 408 1142 l 521 975 l 358 975 l 192 1142 z "},"Ý":{"ha":833,"x_min":22,"x_max":811,"o":"m 314 306 l 22 906 l 242 906 l 333 688 q 374 585 353 635 q 415 481 394 535 l 421 481 q 464 585 443 535 q 506 688 485 635 l 597 906 l 811 906 l 519 306 l 519 0 l 314 0 l 314 306 m 475 975 l 313 975 l 425 1142 l 642 1142 l 475 975 z "},"Ŷ":{"ha":833,"x_min":22,"x_max":811,"o":"m 314 306 l 22 906 l 242 906 l 333 688 q 374 585 353 635 q 415 481 394 535 l 421 481 q 464 585 443 535 q 506 688 485 635 l 597 906 l 811 906 l 519 306 l 519 0 l 314 0 l 314 306 m 183 975 l 317 1142 l 517 1142 l 650 975 l 493 975 l 419 1060 l 414 1060 l 340 975 l 183 975 z "},"Ÿ":{"ha":833,"x_min":22,"x_max":811,"o":"m 314 306 l 22 906 l 242 906 l 333 688 q 374 585 353 635 q 415 481 394 535 l 421 481 q 464 585 443 535 q 506 688 485 635 l 597 906 l 811 906 l 519 306 l 519 0 l 314 0 l 314 306 m 279 972 q 209 1000 236 972 q 182 1069 182 1028 q 209 1139 182 1111 q 279 1167 236 1167 q 349 1139 322 1167 q 376 1069 376 1111 q 349 1000 376 1028 q 279 972 322 972 m 554 972 q 484 1000 511 972 q 457 1069 457 1028 q 484 1139 457 1111 q 554 1167 511 1167 q 624 1139 597 1167 q 651 1069 651 1111 q 624 1000 651 1028 q 554 972 597 972 z "},"Ẏ":{"ha":833,"x_min":22,"x_max":811,"o":"m 314 306 l 22 906 l 242 906 l 333 688 q 374 585 353 635 q 415 481 394 535 l 421 481 q 464 585 443 535 q 506 688 485 635 l 597 906 l 811 906 l 519 306 l 519 0 l 314 0 l 314 306 m 417 974 q 332 1003 365 974 q 299 1081 299 1033 q 332 1158 299 1128 q 417 1188 365 1188 q 501 1158 468 1188 q 535 1081 535 1128 q 501 1003 535 1033 q 417 974 468 974 z "},"Ỵ":{"ha":833,"x_min":22,"x_max":811,"o":"m 314 306 l 22 906 l 242 906 l 333 688 q 374 585 353 635 q 415 481 394 535 l 421 481 q 464 585 443 535 q 506 688 485 635 l 597 906 l 811 906 l 519 306 l 519 0 l 314 0 l 314 306 m 417 -351 q 319 -318 357 -351 q 281 -228 281 -285 q 319 -135 281 -171 q 417 -100 357 -100 q 515 -135 476 -100 q 553 -228 553 -171 q 515 -318 553 -285 q 417 -351 476 -351 z "},"Ỷ":{"ha":833,"x_min":22,"x_max":811,"o":"m 314 306 l 22 906 l 242 906 l 333 688 q 374 585 353 635 q 415 481 394 535 l 421 481 q 464 585 443 535 q 506 688 485 635 l 597 906 l 811 906 l 519 306 l 519 0 l 314 0 l 314 306 m 353 1040 q 396 1054 378 1046 q 414 1082 414 1063 q 389 1113 414 1101 q 304 1129 364 1125 l 328 1231 q 508 1194 456 1228 q 561 1104 561 1160 q 546 1042 561 1068 q 504 999 531 1017 q 442 972 478 982 q 368 960 407 963 l 353 1040 z "},"Ỹ":{"ha":833,"x_min":22,"x_max":811,"o":"m 314 306 l 22 906 l 242 906 l 333 688 q 374 585 353 635 q 415 481 394 535 l 421 481 q 464 585 443 535 q 506 688 485 635 l 597 906 l 811 906 l 519 306 l 519 0 l 314 0 l 314 306 m 504 976 q 453 986 476 976 q 409 1008 429 996 q 372 1029 389 1019 q 338 1039 354 1039 q 306 1025 319 1039 q 285 976 292 1011 l 181 976 q 233 1119 192 1072 q 329 1165 275 1165 q 381 1156 357 1165 q 424 1134 404 1146 q 462 1113 444 1122 q 496 1103 479 1103 q 528 1117 514 1103 q 549 1165 542 1131 l 653 1165 q 600 1023 642 1069 q 504 976 558 976 z "},"Ź":{"ha":833,"x_min":78,"x_max":760,"o":"m 78 124 l 503 735 l 118 735 l 118 906 l 754 906 l 754 782 l 331 172 l 760 172 l 760 0 l 78 0 l 78 124 m 494 975 l 332 975 l 444 1142 l 661 1142 l 494 975 z "},"Ž":{"ha":833,"x_min":78,"x_max":760,"o":"m 78 124 l 503 735 l 118 735 l 118 906 l 754 906 l 754 782 l 331 172 l 760 172 l 760 0 l 78 0 l 78 124 m 669 1142 l 536 975 l 336 975 l 203 1142 l 360 1142 l 433 1057 l 439 1057 l 513 1142 l 669 1142 z "},"Ż":{"ha":833,"x_min":78,"x_max":760,"o":"m 78 124 l 503 735 l 118 735 l 118 906 l 754 906 l 754 782 l 331 172 l 760 172 l 760 0 l 78 0 l 78 124 m 436 974 q 351 1003 385 974 q 318 1081 318 1033 q 351 1158 318 1128 q 436 1188 385 1188 q 521 1158 488 1188 q 554 1081 554 1128 q 521 1003 554 1033 q 436 974 488 974 z "},"Ẓ":{"ha":833,"x_min":78,"x_max":760,"o":"m 78 124 l 503 735 l 118 735 l 118 906 l 754 906 l 754 782 l 331 172 l 760 172 l 760 0 l 78 0 l 78 124 m 431 -351 q 333 -318 371 -351 q 294 -228 294 -285 q 333 -135 294 -171 q 431 -100 371 -100 q 528 -135 490 -100 q 567 -228 567 -171 q 528 -318 567 -285 q 431 -351 490 -351 z "},"Ð":{"ha":833,"x_min":3,"x_max":781,"o":"m 99 418 l 3 418 l 3 510 l 99 517 l 99 906 l 346 906 q 524 879 443 906 q 661 798 604 853 q 749 658 718 743 q 781 457 781 574 q 749 254 781 340 q 663 112 718 168 q 528 28 607 56 q 357 0 450 0 l 99 0 l 99 418 m 333 165 q 430 181 386 165 q 505 230 474 196 q 553 319 536 264 q 571 457 571 375 q 553 592 571 538 q 505 680 536 647 q 430 726 474 713 q 333 740 386 740 l 304 740 l 304 517 l 453 517 l 453 418 l 304 418 l 304 165 l 333 165 z "},"Þ":{"ha":833,"x_min":101,"x_max":786,"o":"m 101 906 l 306 906 l 306 768 l 432 768 q 570 753 506 768 q 683 705 635 739 q 758 615 731 671 q 786 478 786 560 q 758 340 786 397 q 681 244 729 282 q 568 189 632 207 q 432 171 504 171 l 306 171 l 306 0 l 101 0 l 101 906 m 419 333 q 585 478 585 333 q 543 577 585 549 q 419 606 501 606 l 306 606 l 306 333 l 419 333 z "},"Ə":{"ha":833,"x_min":81,"x_max":778,"o":"m 289 365 q 333 209 296 261 q 428 157 369 157 q 520 210 482 157 q 571 367 558 263 l 289 365 m 172 821 q 283 894 219 865 q 433 922 346 922 q 573 891 510 922 q 682 799 636 860 q 753 652 728 739 q 778 454 778 565 q 752 256 778 343 q 681 108 726 168 q 570 15 635 47 q 428 -17 506 -17 q 286 15 350 -17 q 176 106 222 46 q 106 252 131 165 q 81 449 81 339 q 85 515 81 479 l 574 515 q 524 690 565 631 q 408 749 483 749 q 325 728 360 749 q 263 681 290 708 l 172 821 z "},"à":{"ha":833,"x_min":85,"x_max":743,"o":"m 85 192 q 110 294 85 250 q 190 368 135 338 q 331 417 244 399 q 539 443 417 436 q 498 517 533 490 q 392 543 463 543 q 291 526 342 543 q 182 479 240 508 l 110 613 q 262 679 181 653 q 432 706 343 706 q 660 629 576 706 q 743 394 743 553 l 743 0 l 576 0 l 561 78 l 556 78 q 440 10 503 38 q 311 -17 378 -17 q 217 -1 258 -17 q 146 44 175 15 q 101 110 117 72 q 85 192 85 147 m 281 207 q 306 158 281 174 q 376 142 332 142 q 463 160 422 142 q 539 207 503 179 l 539 321 q 413 307 463 317 q 333 283 363 297 q 292 249 304 268 q 281 207 281 229 m 210 1029 l 418 1029 l 542 797 l 393 797 l 210 1029 z "},"á":{"ha":833,"x_min":85,"x_max":743,"o":"m 85 192 q 110 294 85 250 q 190 368 135 338 q 331 417 244 399 q 539 443 417 436 q 498 517 533 490 q 392 543 463 543 q 291 526 342 543 q 182 479 240 508 l 110 613 q 262 679 181 653 q 432 706 343 706 q 660 629 576 706 q 743 394 743 553 l 743 0 l 576 0 l 561 78 l 556 78 q 440 10 503 38 q 311 -17 378 -17 q 217 -1 258 -17 q 146 44 175 15 q 101 110 117 72 q 85 192 85 147 m 281 207 q 306 158 281 174 q 376 142 332 142 q 463 160 422 142 q 539 207 503 179 l 539 321 q 413 307 463 317 q 333 283 363 297 q 292 249 304 268 q 281 207 281 229 m 463 797 l 314 797 l 438 1029 l 646 1029 l 463 797 z "},"â":{"ha":833,"x_min":85,"x_max":743,"o":"m 85 192 q 110 294 85 250 q 190 368 135 338 q 331 417 244 399 q 539 443 417 436 q 498 517 533 490 q 392 543 463 543 q 291 526 342 543 q 182 479 240 508 l 110 613 q 262 679 181 653 q 432 706 343 706 q 660 629 576 706 q 743 394 743 553 l 743 0 l 576 0 l 561 78 l 556 78 q 440 10 503 38 q 311 -17 378 -17 q 217 -1 258 -17 q 146 44 175 15 q 101 110 117 72 q 85 192 85 147 m 281 207 q 306 158 281 174 q 376 142 332 142 q 463 160 422 142 q 539 207 503 179 l 539 321 q 413 307 463 317 q 333 283 363 297 q 292 249 304 268 q 281 207 281 229 m 342 1029 l 514 1029 l 653 797 l 504 797 l 431 929 l 425 929 l 351 797 l 203 797 l 342 1029 z "},"ã":{"ha":833,"x_min":85,"x_max":743,"o":"m 85 192 q 110 294 85 250 q 190 368 135 338 q 331 417 244 399 q 539 443 417 436 q 498 517 533 490 q 392 543 463 543 q 291 526 342 543 q 182 479 240 508 l 110 613 q 262 679 181 653 q 432 706 343 706 q 660 629 576 706 q 743 394 743 553 l 743 0 l 576 0 l 561 78 l 556 78 q 440 10 503 38 q 311 -17 378 -17 q 217 -1 258 -17 q 146 44 175 15 q 101 110 117 72 q 85 192 85 147 m 281 207 q 306 158 281 174 q 376 142 332 142 q 463 160 422 142 q 539 207 503 179 l 539 321 q 413 307 463 317 q 333 283 363 297 q 292 249 304 268 q 281 207 281 229 m 190 799 q 246 949 203 900 q 353 997 289 997 q 399 986 378 997 q 438 961 421 975 q 471 936 456 947 q 501 925 486 925 q 538 941 524 925 q 561 997 551 957 l 665 997 q 610 848 653 897 q 503 799 567 799 q 456 810 476 799 q 417 835 435 822 q 383 860 399 849 q 354 872 368 872 q 318 856 332 872 q 294 799 304 840 l 190 799 l 190 799 z "},"ä":{"ha":833,"x_min":85,"x_max":743,"o":"m 85 192 q 110 294 85 250 q 190 368 135 338 q 331 417 244 399 q 539 443 417 436 q 498 517 533 490 q 392 543 463 543 q 291 526 342 543 q 182 479 240 508 l 110 613 q 262 679 181 653 q 432 706 343 706 q 660 629 576 706 q 743 394 743 553 l 743 0 l 576 0 l 561 78 l 556 78 q 440 10 503 38 q 311 -17 378 -17 q 217 -1 258 -17 q 146 44 175 15 q 101 110 117 72 q 85 192 85 147 m 281 207 q 306 158 281 174 q 376 142 332 142 q 463 160 422 142 q 539 207 503 179 l 539 321 q 413 307 463 317 q 333 283 363 297 q 292 249 304 268 q 281 207 281 229 m 276 793 q 197 824 228 793 q 167 903 167 856 q 197 980 167 949 q 276 1011 228 1011 q 355 980 325 1011 q 385 903 385 949 q 355 824 385 856 q 276 793 325 793 m 579 793 q 501 824 531 793 q 471 903 471 856 q 501 980 471 949 q 579 1011 531 1011 q 658 980 628 1011 q 689 903 689 949 q 658 824 689 856 q 579 793 628 793 z "},"ā":{"ha":833,"x_min":85,"x_max":743,"o":"m 85 192 q 110 294 85 250 q 190 368 135 338 q 331 417 244 399 q 539 443 417 436 q 498 517 533 490 q 392 543 463 543 q 291 526 342 543 q 182 479 240 508 l 110 613 q 262 679 181 653 q 432 706 343 706 q 660 629 576 706 q 743 394 743 553 l 743 0 l 576 0 l 561 78 l 556 78 q 440 10 503 38 q 311 -17 378 -17 q 217 -1 258 -17 q 146 44 175 15 q 101 110 117 72 q 85 192 85 147 m 281 207 q 306 158 281 174 q 376 142 332 142 q 463 160 422 142 q 539 207 503 179 l 539 321 q 413 307 463 317 q 333 283 363 297 q 292 249 304 268 q 281 207 281 229 m 236 951 l 619 951 l 619 822 l 236 822 l 236 951 z "},"ă":{"ha":833,"x_min":85,"x_max":743,"o":"m 85 192 q 110 294 85 250 q 190 368 135 338 q 331 417 244 399 q 539 443 417 436 q 498 517 533 490 q 392 543 463 543 q 291 526 342 543 q 182 479 240 508 l 110 613 q 262 679 181 653 q 432 706 343 706 q 660 629 576 706 q 743 394 743 553 l 743 0 l 576 0 l 561 78 l 556 78 q 440 10 503 38 q 311 -17 378 -17 q 217 -1 258 -17 q 146 44 175 15 q 101 110 117 72 q 85 192 85 147 m 281 207 q 306 158 281 174 q 376 142 332 142 q 463 160 422 142 q 539 207 503 179 l 539 321 q 413 307 463 317 q 333 283 363 297 q 292 249 304 268 q 281 207 281 229 m 428 797 q 338 815 376 797 q 275 863 300 833 q 238 933 250 893 q 224 1014 225 972 l 338 1014 q 365 940 343 969 q 428 910 386 910 q 491 940 469 910 q 518 1014 513 969 l 632 1014 q 618 933 631 972 q 581 863 606 893 q 517 815 556 833 q 428 797 479 797 z "},"å":{"ha":833,"x_min":85,"x_max":743,"o":"m 85 192 q 110 294 85 250 q 190 368 135 338 q 331 417 244 399 q 539 443 417 436 q 498 517 533 490 q 392 543 463 543 q 291 526 342 543 q 182 479 240 508 l 110 613 q 262 679 181 653 q 432 706 343 706 q 660 629 576 706 q 743 394 743 553 l 743 0 l 576 0 l 561 78 l 556 78 q 440 10 503 38 q 311 -17 378 -17 q 217 -1 258 -17 q 146 44 175 15 q 101 110 117 72 q 85 192 85 147 m 281 207 q 306 158 281 174 q 376 142 332 142 q 463 160 422 142 q 539 207 503 179 l 539 321 q 413 307 463 317 q 333 283 363 297 q 292 249 304 268 q 281 207 281 229 m 428 761 q 314 799 357 761 q 271 903 271 838 q 314 1006 271 968 q 428 1044 357 1044 q 542 1006 499 1044 q 585 903 585 968 q 542 799 585 838 q 428 761 499 761 m 428 838 q 468 856 451 838 q 485 903 485 874 q 468 950 485 932 q 428 968 451 968 q 388 950 404 968 q 371 903 371 932 q 388 856 371 874 q 428 838 404 838 z "},"ǎ":{"ha":833,"x_min":85,"x_max":743,"o":"m 85 192 q 110 294 85 250 q 190 368 135 338 q 331 417 244 399 q 539 443 417 436 q 498 517 533 490 q 392 543 463 543 q 291 526 342 543 q 182 479 240 508 l 110 613 q 262 679 181 653 q 432 706 343 706 q 660 629 576 706 q 743 394 743 553 l 743 0 l 576 0 l 561 78 l 556 78 q 440 10 503 38 q 311 -17 378 -17 q 217 -1 258 -17 q 146 44 175 15 q 101 110 117 72 q 85 192 85 147 m 281 207 q 306 158 281 174 q 376 142 332 142 q 463 160 422 142 q 539 207 503 179 l 539 321 q 413 307 463 317 q 333 283 363 297 q 292 249 304 268 q 281 207 281 229 m 203 1029 l 351 1029 l 425 896 l 431 896 l 504 1029 l 653 1029 l 514 797 l 342 797 l 203 1029 z "},"ạ":{"ha":833,"x_min":85,"x_max":743,"o":"m 85 192 q 110 294 85 250 q 190 368 135 338 q 331 417 244 399 q 539 443 417 436 q 498 517 533 490 q 392 543 463 543 q 291 526 342 543 q 182 479 240 508 l 110 613 q 262 679 181 653 q 432 706 343 706 q 660 629 576 706 q 743 394 743 553 l 743 0 l 576 0 l 561 78 l 556 78 q 440 10 503 38 q 311 -17 378 -17 q 217 -1 258 -17 q 146 44 175 15 q 101 110 117 72 q 85 192 85 147 m 281 207 q 306 158 281 174 q 376 142 332 142 q 463 160 422 142 q 539 207 503 179 l 539 321 q 413 307 463 317 q 333 283 363 297 q 292 249 304 268 q 281 207 281 229 m 431 -351 q 333 -318 371 -351 q 294 -228 294 -285 q 333 -135 294 -171 q 431 -100 371 -100 q 528 -135 490 -100 q 567 -228 567 -171 q 528 -318 567 -285 q 431 -351 490 -351 z "},"ả":{"ha":833,"x_min":85,"x_max":743,"o":"m 85 192 q 110 294 85 250 q 190 368 135 338 q 331 417 244 399 q 539 443 417 436 q 498 517 533 490 q 392 543 463 543 q 291 526 342 543 q 182 479 240 508 l 110 613 q 262 679 181 653 q 432 706 343 706 q 660 629 576 706 q 743 394 743 553 l 743 0 l 576 0 l 561 78 l 556 78 q 440 10 503 38 q 311 -17 378 -17 q 217 -1 258 -17 q 146 44 175 15 q 101 110 117 72 q 85 192 85 147 m 281 207 q 306 158 281 174 q 376 142 332 142 q 463 160 422 142 q 539 207 503 179 l 539 321 q 413 307 463 317 q 333 283 363 297 q 292 249 304 268 q 281 207 281 229 m 364 854 q 407 867 389 858 q 425 896 425 876 q 400 927 425 915 q 315 942 375 939 l 339 1044 q 519 1006 467 1040 q 572 917 572 972 q 557 855 572 881 q 515 812 542 829 q 453 785 489 794 q 379 774 418 776 l 364 854 z "},"ấ":{"ha":833,"x_min":85,"x_max":822,"o":"m 85 192 q 110 294 85 250 q 190 368 135 338 q 331 417 244 399 q 539 443 417 436 q 498 517 533 490 q 392 543 463 543 q 291 526 342 543 q 182 479 240 508 l 110 613 q 262 679 181 653 q 432 706 343 706 q 660 629 576 706 q 743 394 743 553 l 743 0 l 576 0 l 561 78 l 556 78 q 440 10 503 38 q 311 -17 378 -17 q 217 -1 258 -17 q 146 44 175 15 q 101 110 117 72 q 85 192 85 147 m 281 207 q 306 158 281 174 q 376 142 332 142 q 463 160 422 142 q 539 207 503 179 l 539 321 q 413 307 463 317 q 333 283 363 297 q 292 249 304 268 q 281 207 281 229 m 347 975 l 508 975 l 621 797 l 496 797 l 431 888 l 425 888 l 360 797 l 235 797 l 347 975 m 671 1061 l 822 1061 l 690 897 l 576 897 l 671 1061 z "},"ầ":{"ha":833,"x_min":85,"x_max":774,"o":"m 85 192 q 110 294 85 250 q 190 368 135 338 q 331 417 244 399 q 539 443 417 436 q 498 517 533 490 q 392 543 463 543 q 291 526 342 543 q 182 479 240 508 l 110 613 q 262 679 181 653 q 432 706 343 706 q 660 629 576 706 q 743 394 743 553 l 743 0 l 576 0 l 561 78 l 556 78 q 440 10 503 38 q 311 -17 378 -17 q 217 -1 258 -17 q 146 44 175 15 q 101 110 117 72 q 85 192 85 147 m 281 207 q 306 158 281 174 q 376 142 332 142 q 463 160 422 142 q 539 207 503 179 l 539 321 q 413 307 463 317 q 333 283 363 297 q 292 249 304 268 q 281 207 281 229 m 347 975 l 508 975 l 621 797 l 496 797 l 431 888 l 425 888 l 360 797 l 235 797 l 347 975 m 774 897 l 660 897 l 528 1061 l 679 1061 l 774 897 z "},"ẩ":{"ha":833,"x_min":85,"x_max":781,"o":"m 85 192 q 110 294 85 250 q 190 368 135 338 q 331 417 244 399 q 539 443 417 436 q 498 517 533 490 q 392 543 463 543 q 291 526 342 543 q 182 479 240 508 l 110 613 q 262 679 181 653 q 432 706 343 706 q 660 629 576 706 q 743 394 743 553 l 743 0 l 576 0 l 561 78 l 556 78 q 440 10 503 38 q 311 -17 378 -17 q 217 -1 258 -17 q 146 44 175 15 q 101 110 117 72 q 85 192 85 147 m 281 207 q 306 158 281 174 q 376 142 332 142 q 463 160 422 142 q 539 207 503 179 l 539 321 q 413 307 463 317 q 333 283 363 297 q 292 249 304 268 q 281 207 281 229 m 347 975 l 508 975 l 621 797 l 496 797 l 431 888 l 425 888 l 360 797 l 235 797 l 347 975 m 606 942 q 636 954 625 946 q 647 981 647 963 q 628 1012 647 1000 q 557 1026 610 1024 l 576 1113 q 735 1081 690 1110 q 781 1003 781 1051 q 767 945 781 968 q 733 908 754 922 q 682 885 711 893 q 619 872 653 876 l 606 942 z "},"ẫ":{"ha":833,"x_min":85,"x_max":743,"o":"m 85 192 q 110 294 85 250 q 190 368 135 338 q 331 417 244 399 q 539 443 417 436 q 498 517 533 490 q 392 543 463 543 q 291 526 342 543 q 182 479 240 508 l 110 613 q 262 679 181 653 q 432 706 343 706 q 660 629 576 706 q 743 394 743 553 l 743 0 l 576 0 l 561 78 l 556 78 q 440 10 503 38 q 311 -17 378 -17 q 217 -1 258 -17 q 146 44 175 15 q 101 110 117 72 q 85 192 85 147 m 281 207 q 306 158 281 174 q 376 142 332 142 q 463 160 422 142 q 539 207 503 179 l 539 321 q 413 307 463 317 q 333 283 363 297 q 292 249 304 268 q 281 207 281 229 m 335 950 l 521 950 l 632 796 l 500 796 l 431 878 l 425 878 l 356 796 l 224 796 l 335 950 m 225 1000 q 270 1121 235 1083 q 351 1158 306 1158 q 399 1150 379 1158 q 435 1132 419 1142 q 465 1114 451 1122 q 493 1106 478 1106 q 542 1158 532 1106 l 631 1158 q 585 1038 621 1076 q 504 1000 550 1000 q 456 1008 476 1000 q 420 1026 436 1017 q 390 1044 404 1036 q 363 1053 376 1053 q 314 1000 324 1053 l 225 1000 z "},"ậ":{"ha":833,"x_min":85,"x_max":743,"o":"m 85 192 q 110 294 85 250 q 190 368 135 338 q 331 417 244 399 q 539 443 417 436 q 498 517 533 490 q 392 543 463 543 q 291 526 342 543 q 182 479 240 508 l 110 613 q 262 679 181 653 q 432 706 343 706 q 660 629 576 706 q 743 394 743 553 l 743 0 l 576 0 l 561 78 l 556 78 q 440 10 503 38 q 311 -17 378 -17 q 217 -1 258 -17 q 146 44 175 15 q 101 110 117 72 q 85 192 85 147 m 281 207 q 306 158 281 174 q 376 142 332 142 q 463 160 422 142 q 539 207 503 179 l 539 321 q 413 307 463 317 q 333 283 363 297 q 292 249 304 268 q 281 207 281 229 m 342 1029 l 514 1029 l 653 797 l 504 797 l 431 929 l 425 929 l 351 797 l 203 797 l 342 1029 m 431 -351 q 333 -318 371 -351 q 294 -228 294 -285 q 333 -135 294 -171 q 431 -100 371 -100 q 528 -135 490 -100 q 567 -228 567 -171 q 528 -318 567 -285 q 431 -351 490 -351 z "},"ắ":{"ha":833,"x_min":85,"x_max":743,"o":"m 85 192 q 110 294 85 250 q 190 368 135 338 q 331 417 244 399 q 539 443 417 436 q 498 517 533 490 q 392 543 463 543 q 291 526 342 543 q 182 479 240 508 l 110 613 q 262 679 181 653 q 432 706 343 706 q 660 629 576 706 q 743 394 743 553 l 743 0 l 576 0 l 561 78 l 556 78 q 440 10 503 38 q 311 -17 378 -17 q 217 -1 258 -17 q 146 44 175 15 q 101 110 117 72 q 85 192 85 147 m 281 207 q 306 158 281 174 q 376 142 332 142 q 463 160 422 142 q 539 207 503 179 l 539 321 q 413 307 463 317 q 333 283 363 297 q 292 249 304 268 q 281 207 281 229 m 443 1125 l 590 1125 l 467 961 l 364 961 l 443 1125 m 428 797 q 344 813 379 797 q 285 856 308 829 q 249 918 261 883 q 235 990 236 953 l 325 990 q 356 924 332 951 q 428 897 381 897 q 499 924 475 897 q 531 990 524 951 l 621 990 q 607 918 619 953 q 571 856 594 883 q 512 813 547 829 q 428 797 476 797 z "},"ằ":{"ha":833,"x_min":85,"x_max":743,"o":"m 85 192 q 110 294 85 250 q 190 368 135 338 q 331 417 244 399 q 539 443 417 436 q 498 517 533 490 q 392 543 463 543 q 291 526 342 543 q 182 479 240 508 l 110 613 q 262 679 181 653 q 432 706 343 706 q 660 629 576 706 q 743 394 743 553 l 743 0 l 576 0 l 561 78 l 556 78 q 440 10 503 38 q 311 -17 378 -17 q 217 -1 258 -17 q 146 44 175 15 q 101 110 117 72 q 85 192 85 147 m 281 207 q 306 158 281 174 q 376 142 332 142 q 463 160 422 142 q 539 207 503 179 l 539 321 q 413 307 463 317 q 333 283 363 297 q 292 249 304 268 q 281 207 281 229 m 492 961 l 389 961 l 265 1125 l 413 1125 l 492 961 m 428 797 q 344 813 379 797 q 285 856 308 829 q 249 918 261 883 q 235 990 236 953 l 325 990 q 356 924 332 951 q 428 897 381 897 q 499 924 475 897 q 531 990 524 951 l 621 990 q 607 918 619 953 q 571 856 594 883 q 512 813 547 829 q 428 797 476 797 z "},"ẳ":{"ha":833,"x_min":85,"x_max":743,"o":"m 85 192 q 110 294 85 250 q 190 368 135 338 q 331 417 244 399 q 539 443 417 436 q 498 517 533 490 q 392 543 463 543 q 291 526 342 543 q 182 479 240 508 l 110 613 q 262 679 181 653 q 432 706 343 706 q 660 629 576 706 q 743 394 743 553 l 743 0 l 576 0 l 561 78 l 556 78 q 440 10 503 38 q 311 -17 378 -17 q 217 -1 258 -17 q 146 44 175 15 q 101 110 117 72 q 85 192 85 147 m 281 207 q 306 158 281 174 q 376 142 332 142 q 463 160 422 142 q 539 207 503 179 l 539 321 q 413 307 463 317 q 333 283 363 297 q 292 249 304 268 q 281 207 281 229 m 428 797 q 344 813 379 797 q 285 856 308 829 q 249 918 261 883 q 235 990 236 953 l 325 990 q 356 924 332 951 q 428 897 381 897 q 499 924 475 897 q 531 990 524 951 l 621 990 q 607 918 619 953 q 571 856 594 883 q 512 813 547 829 q 428 797 476 797 m 367 1039 q 397 1051 386 1043 q 408 1078 408 1058 q 390 1108 408 1097 q 318 1124 371 1119 l 336 1210 q 496 1176 450 1206 q 542 1099 542 1147 q 528 1042 542 1065 q 494 1005 515 1019 q 442 982 472 990 q 379 969 413 974 l 367 1039 z "},"ẵ":{"ha":833,"x_min":85,"x_max":743,"o":"m 85 192 q 110 294 85 250 q 190 368 135 338 q 331 417 244 399 q 539 443 417 436 q 498 517 533 490 q 392 543 463 543 q 291 526 342 543 q 182 479 240 508 l 110 613 q 262 679 181 653 q 432 706 343 706 q 660 629 576 706 q 743 394 743 553 l 743 0 l 576 0 l 561 78 l 556 78 q 440 10 503 38 q 311 -17 378 -17 q 217 -1 258 -17 q 146 44 175 15 q 101 110 117 72 q 85 192 85 147 m 281 207 q 306 158 281 174 q 376 142 332 142 q 463 160 422 142 q 539 207 503 179 l 539 321 q 413 307 463 317 q 333 283 363 297 q 292 249 304 268 q 281 207 281 229 m 428 797 q 344 810 379 797 q 285 847 308 824 q 249 899 261 869 q 235 963 236 929 l 331 963 q 359 914 338 935 q 428 893 381 893 q 497 914 475 893 q 525 963 518 935 l 621 963 q 607 899 619 929 q 571 847 594 869 q 512 810 547 824 q 428 797 476 797 m 225 1000 q 270 1121 235 1083 q 351 1158 306 1158 q 399 1150 379 1158 q 435 1132 419 1142 q 465 1114 451 1122 q 493 1106 478 1106 q 542 1158 532 1106 l 631 1158 q 585 1038 621 1076 q 504 1000 550 1000 q 456 1008 476 1000 q 420 1026 436 1017 q 390 1044 404 1036 q 363 1053 376 1053 q 314 1000 324 1053 l 225 1000 z "},"ặ":{"ha":833,"x_min":85,"x_max":743,"o":"m 85 192 q 110 294 85 250 q 190 368 135 338 q 331 417 244 399 q 539 443 417 436 q 498 517 533 490 q 392 543 463 543 q 291 526 342 543 q 182 479 240 508 l 110 613 q 262 679 181 653 q 432 706 343 706 q 660 629 576 706 q 743 394 743 553 l 743 0 l 576 0 l 561 78 l 556 78 q 440 10 503 38 q 311 -17 378 -17 q 217 -1 258 -17 q 146 44 175 15 q 101 110 117 72 q 85 192 85 147 m 281 207 q 306 158 281 174 q 376 142 332 142 q 463 160 422 142 q 539 207 503 179 l 539 321 q 413 307 463 317 q 333 283 363 297 q 292 249 304 268 q 281 207 281 229 m 428 797 q 338 815 376 797 q 275 863 300 833 q 238 933 250 893 q 224 1014 225 972 l 338 1014 q 365 940 343 969 q 428 910 386 910 q 491 940 469 910 q 518 1014 513 969 l 632 1014 q 618 933 631 972 q 581 863 606 893 q 517 815 556 833 q 428 797 479 797 m 431 -351 q 333 -318 371 -351 q 294 -228 294 -285 q 333 -135 294 -171 q 431 -100 371 -100 q 528 -135 490 -100 q 567 -228 567 -171 q 528 -318 567 -285 q 431 -351 490 -351 z "},"ą":{"ha":833,"x_min":85,"x_max":771,"o":"m 85 192 q 110 294 85 250 q 190 368 135 338 q 331 417 244 399 q 539 443 417 436 q 498 517 533 490 q 392 543 463 543 q 291 526 342 543 q 182 479 240 508 l 110 613 q 262 679 181 653 q 432 706 343 706 q 660 629 576 706 q 743 394 743 553 l 743 0 q 648 -53 675 -19 q 621 -118 621 -86 q 639 -158 621 -146 q 679 -171 657 -171 q 706 -166 693 -171 q 728 -154 718 -161 l 771 -246 q 703 -279 743 -267 q 631 -292 663 -292 q 526 -260 568 -292 q 483 -165 483 -228 q 493 -109 483 -135 q 517 -62 503 -83 q 549 -26 532 -42 q 578 -3 565 -11 l 561 78 l 556 78 q 440 10 503 38 q 311 -17 378 -17 q 217 -1 258 -17 q 146 44 175 15 q 101 110 117 72 q 85 192 85 147 m 281 207 q 306 158 281 174 q 376 142 332 142 q 463 160 422 142 q 539 207 503 179 l 539 321 q 413 307 463 317 q 333 283 363 297 q 292 249 304 268 q 281 207 281 229 z "},"æ":{"ha":833,"x_min":22,"x_max":824,"o":"m 22 192 q 99 356 22 299 q 335 444 176 414 q 313 518 331 493 q 256 543 296 543 q 188 531 228 543 q 113 496 149 518 l 40 629 q 154 685 99 664 q 269 706 210 706 q 369 678 331 706 q 431 604 407 650 q 507 681 467 656 q 608 706 547 706 q 701 679 661 706 q 769 608 742 653 q 810 502 796 563 q 824 374 824 442 q 820 322 824 346 q 814 285 817 299 l 499 285 q 543 178 510 214 q 625 143 576 143 q 680 151 654 143 q 733 179 706 160 l 803 49 q 713 0 763 17 q 618 -17 663 -17 q 494 13 543 -17 q 408 90 444 42 q 308 8 354 33 q 214 -17 261 -17 q 131 0 167 -17 q 72 44 96 17 q 35 110 47 72 q 22 192 22 149 m 661 410 q 658 464 661 439 q 646 508 654 489 q 624 539 638 528 q 589 550 610 550 q 528 516 554 550 q 496 410 503 482 l 661 410 m 206 208 q 269 142 206 142 q 312 153 289 142 q 354 189 335 165 q 342 238 346 211 q 335 292 338 265 l 333 321 q 235 277 265 306 q 206 208 206 249 z "},"ç":{"ha":833,"x_min":93,"x_max":761,"o":"m 93 344 q 126 498 93 431 q 213 611 158 565 q 340 681 268 657 q 492 706 413 706 q 640 679 574 706 q 750 613 706 653 l 656 486 q 503 540 579 540 q 358 488 414 540 q 303 344 303 435 q 356 201 303 254 q 496 149 410 149 q 596 168 550 149 q 678 214 642 188 l 761 85 q 623 8 699 32 q 476 -17 547 -17 q 325 8 394 -17 q 203 78 256 32 q 122 191 151 124 q 93 344 93 258 m 419 6 l 539 6 l 511 -60 q 569 -95 547 -71 q 592 -162 592 -119 q 572 -224 592 -199 q 518 -268 551 -250 q 440 -295 485 -286 q 346 -307 396 -304 l 331 -225 q 413 -206 381 -219 q 446 -164 446 -192 q 428 -131 446 -146 q 364 -106 411 -117 l 419 6 z "},"ć":{"ha":833,"x_min":93,"x_max":761,"o":"m 93 344 q 126 498 93 431 q 213 611 158 565 q 340 681 268 657 q 492 706 413 706 q 640 679 574 706 q 750 613 706 653 l 656 486 q 503 540 579 540 q 358 488 414 540 q 303 344 303 435 q 356 201 303 254 q 496 149 410 149 q 596 168 550 149 q 678 214 642 188 l 761 85 q 623 8 699 32 q 476 -17 547 -17 q 325 8 394 -17 q 203 78 256 32 q 122 191 151 124 q 93 344 93 258 m 508 797 l 360 797 l 483 1029 l 692 1029 l 508 797 z "},"ĉ":{"ha":833,"x_min":93,"x_max":761,"o":"m 93 344 q 126 498 93 431 q 213 611 158 565 q 340 681 268 657 q 492 706 413 706 q 640 679 574 706 q 750 613 706 653 l 656 486 q 503 540 579 540 q 358 488 414 540 q 303 344 303 435 q 356 201 303 254 q 496 149 410 149 q 596 168 550 149 q 678 214 642 188 l 761 85 q 623 8 699 32 q 476 -17 547 -17 q 325 8 394 -17 q 203 78 256 32 q 122 191 151 124 q 93 344 93 258 m 388 1029 l 560 1029 l 699 797 l 550 797 l 476 929 l 471 929 l 397 797 l 249 797 l 388 1029 z "},"č":{"ha":833,"x_min":93,"x_max":761,"o":"m 93 344 q 126 498 93 431 q 213 611 158 565 q 340 681 268 657 q 492 706 413 706 q 640 679 574 706 q 750 613 706 653 l 656 486 q 503 540 579 540 q 358 488 414 540 q 303 344 303 435 q 356 201 303 254 q 496 149 410 149 q 596 168 550 149 q 678 214 642 188 l 761 85 q 623 8 699 32 q 476 -17 547 -17 q 325 8 394 -17 q 203 78 256 32 q 122 191 151 124 q 93 344 93 258 m 249 1029 l 397 1029 l 471 896 l 476 896 l 550 1029 l 699 1029 l 560 797 l 388 797 l 249 1029 z "},"ċ":{"ha":833,"x_min":93,"x_max":761,"o":"m 93 344 q 126 498 93 431 q 213 611 158 565 q 340 681 268 657 q 492 706 413 706 q 640 679 574 706 q 750 613 706 653 l 656 486 q 503 540 579 540 q 358 488 414 540 q 303 344 303 435 q 356 201 303 254 q 496 149 410 149 q 596 168 550 149 q 678 214 642 188 l 761 85 q 623 8 699 32 q 476 -17 547 -17 q 325 8 394 -17 q 203 78 256 32 q 122 191 151 124 q 93 344 93 258 m 474 790 q 376 824 414 790 q 338 914 338 857 q 376 1006 338 971 q 474 1042 414 1042 q 572 1006 533 1042 q 610 914 610 971 q 572 824 610 857 q 474 790 533 790 z "},"ď":{"ha":833,"x_min":36,"x_max":878,"o":"m 36 344 q 61 496 36 429 q 127 609 86 563 q 221 681 168 656 q 331 706 274 706 q 431 685 390 706 q 507 632 471 665 l 500 739 l 500 974 l 704 974 l 704 0 l 538 0 l 522 71 l 518 71 q 429 8 479 33 q 326 -17 379 -17 q 208 8 261 -17 q 116 80 154 33 q 57 193 78 126 q 36 344 36 260 m 246 347 q 281 197 246 244 q 379 150 315 150 q 443 165 414 150 q 500 214 472 179 l 500 493 q 444 528 472 518 q 385 539 415 539 q 287 492 328 539 q 246 347 246 444 m 754 761 l 747 1069 l 878 1069 l 875 974 l 842 761 l 754 761 z "},"ḍ":{"ha":833,"x_min":65,"x_max":733,"o":"m 65 344 q 90 496 65 429 q 156 609 115 563 q 250 681 197 656 q 360 706 303 706 q 460 685 419 706 q 536 632 500 665 l 529 739 l 529 974 l 733 974 l 733 0 l 567 0 l 551 71 l 547 71 q 458 8 508 33 q 356 -17 408 -17 q 237 8 290 -17 q 145 80 183 33 q 86 193 107 126 q 65 344 65 260 m 275 347 q 310 197 275 244 q 408 150 344 150 q 472 165 443 150 q 529 214 501 179 l 529 493 q 473 528 501 518 q 414 539 444 539 q 316 492 357 539 q 275 347 275 444 m 429 -351 q 331 -318 369 -351 q 293 -228 293 -285 q 331 -135 293 -171 q 429 -100 369 -100 q 527 -135 489 -100 q 565 -228 565 -171 q 527 -318 565 -285 q 429 -351 489 -351 z "},"ḏ":{"ha":833,"x_min":65,"x_max":733,"o":"m 65 344 q 90 496 65 429 q 156 609 115 563 q 250 681 197 656 q 360 706 303 706 q 460 685 419 706 q 536 632 500 665 l 529 739 l 529 974 l 733 974 l 733 0 l 567 0 l 551 71 l 547 71 q 458 8 508 33 q 356 -17 408 -17 q 237 8 290 -17 q 145 80 183 33 q 86 193 107 126 q 65 344 65 260 m 275 347 q 310 197 275 244 q 408 150 344 150 q 472 165 443 150 q 529 214 501 179 l 529 493 q 473 528 501 518 q 414 539 444 539 q 316 492 357 539 q 275 347 275 444 m 621 -262 l 238 -262 l 238 -132 l 621 -132 l 621 -262 z "},"đ":{"ha":833,"x_min":65,"x_max":825,"o":"m 529 465 q 417 511 475 511 q 317 468 358 511 q 275 333 275 425 q 310 194 275 238 q 408 150 344 150 q 472 165 443 150 q 529 214 501 179 l 529 465 m 825 781 l 733 774 l 733 0 l 567 0 l 551 71 l 547 71 q 458 8 508 33 q 356 -17 408 -17 q 237 7 290 -17 q 145 76 183 31 q 86 185 107 121 q 65 331 65 249 q 90 476 65 411 q 156 585 115 540 q 250 654 197 631 q 360 678 303 678 q 460 658 419 678 q 536 604 500 638 l 529 711 l 529 772 l 314 772 l 314 871 l 529 871 l 529 974 l 733 974 l 733 871 l 825 871 l 825 781 z "},"è":{"ha":833,"x_min":76,"x_max":758,"o":"m 76 344 q 106 496 76 429 q 186 609 136 563 q 301 681 236 656 q 435 706 365 706 q 575 681 514 706 q 676 611 636 656 q 738 506 717 567 q 758 375 758 446 q 756 324 758 347 q 750 289 753 301 l 286 289 q 356 174 301 210 q 486 139 410 139 q 576 151 533 139 q 664 186 618 163 l 731 64 q 600 5 672 26 q 458 -17 528 -17 q 308 8 378 -17 q 188 78 239 32 q 106 192 136 125 q 76 344 76 258 m 574 415 q 542 513 574 475 q 439 550 510 550 q 340 517 383 550 q 283 415 296 485 l 574 415 m 217 1029 l 425 1029 l 549 797 l 400 797 l 217 1029 z "},"é":{"ha":833,"x_min":76,"x_max":758,"o":"m 76 344 q 106 496 76 429 q 186 609 136 563 q 301 681 236 656 q 435 706 365 706 q 575 681 514 706 q 676 611 636 656 q 738 506 717 567 q 758 375 758 446 q 756 324 758 347 q 750 289 753 301 l 286 289 q 356 174 301 210 q 486 139 410 139 q 576 151 533 139 q 664 186 618 163 l 731 64 q 600 5 672 26 q 458 -17 528 -17 q 308 8 378 -17 q 188 78 239 32 q 106 192 136 125 q 76 344 76 258 m 574 415 q 542 513 574 475 q 439 550 510 550 q 340 517 383 550 q 283 415 296 485 l 574 415 m 469 797 l 321 797 l 444 1029 l 653 1029 l 469 797 z "},"ê":{"ha":833,"x_min":76,"x_max":758,"o":"m 76 344 q 106 496 76 429 q 186 609 136 563 q 301 681 236 656 q 435 706 365 706 q 575 681 514 706 q 676 611 636 656 q 738 506 717 567 q 758 375 758 446 q 756 324 758 347 q 750 289 753 301 l 286 289 q 356 174 301 210 q 486 139 410 139 q 576 151 533 139 q 664 186 618 163 l 731 64 q 600 5 672 26 q 458 -17 528 -17 q 308 8 378 -17 q 188 78 239 32 q 106 192 136 125 q 76 344 76 258 m 574 415 q 542 513 574 475 q 439 550 510 550 q 340 517 383 550 q 283 415 296 485 l 574 415 m 349 1029 l 521 1029 l 660 797 l 511 797 l 438 929 l 432 929 l 358 797 l 210 797 l 349 1029 z "},"ě":{"ha":833,"x_min":76,"x_max":758,"o":"m 76 344 q 106 496 76 429 q 186 609 136 563 q 301 681 236 656 q 435 706 365 706 q 575 681 514 706 q 676 611 636 656 q 738 506 717 567 q 758 375 758 446 q 756 324 758 347 q 750 289 753 301 l 286 289 q 356 174 301 210 q 486 139 410 139 q 576 151 533 139 q 664 186 618 163 l 731 64 q 600 5 672 26 q 458 -17 528 -17 q 308 8 378 -17 q 188 78 239 32 q 106 192 136 125 q 76 344 76 258 m 574 415 q 542 513 574 475 q 439 550 510 550 q 340 517 383 550 q 283 415 296 485 l 574 415 m 210 1029 l 358 1029 l 432 896 l 438 896 l 511 1029 l 660 1029 l 521 797 l 349 797 l 210 1029 z "},"ë":{"ha":833,"x_min":76,"x_max":758,"o":"m 76 344 q 106 496 76 429 q 186 609 136 563 q 301 681 236 656 q 435 706 365 706 q 575 681 514 706 q 676 611 636 656 q 738 506 717 567 q 758 375 758 446 q 756 324 758 347 q 750 289 753 301 l 286 289 q 356 174 301 210 q 486 139 410 139 q 576 151 533 139 q 664 186 618 163 l 731 64 q 600 5 672 26 q 458 -17 528 -17 q 308 8 378 -17 q 188 78 239 32 q 106 192 136 125 q 76 344 76 258 m 574 415 q 542 513 574 475 q 439 550 510 550 q 340 517 383 550 q 283 415 296 485 l 574 415 m 282 793 q 203 824 233 793 q 172 903 172 856 q 203 980 172 949 q 282 1011 233 1011 q 360 980 331 1011 q 390 903 390 949 q 360 824 390 856 q 282 793 331 793 m 585 793 q 506 824 536 793 q 476 903 476 856 q 506 980 476 949 q 585 1011 536 1011 q 664 980 633 1011 q 694 903 694 949 q 664 824 694 856 q 585 793 633 793 z "},"ē":{"ha":833,"x_min":76,"x_max":758,"o":"m 76 344 q 106 496 76 429 q 186 609 136 563 q 301 681 236 656 q 435 706 365 706 q 575 681 514 706 q 676 611 636 656 q 738 506 717 567 q 758 375 758 446 q 756 324 758 347 q 750 289 753 301 l 286 289 q 356 174 301 210 q 486 139 410 139 q 576 151 533 139 q 664 186 618 163 l 731 64 q 600 5 672 26 q 458 -17 528 -17 q 308 8 378 -17 q 188 78 239 32 q 106 192 136 125 q 76 344 76 258 m 574 415 q 542 513 574 475 q 439 550 510 550 q 340 517 383 550 q 283 415 296 485 l 574 415 m 243 951 l 626 951 l 626 822 l 243 822 l 243 951 z "},"ĕ":{"ha":833,"x_min":76,"x_max":758,"o":"m 76 344 q 106 496 76 429 q 186 609 136 563 q 301 681 236 656 q 435 706 365 706 q 575 681 514 706 q 676 611 636 656 q 738 506 717 567 q 758 375 758 446 q 756 324 758 347 q 750 289 753 301 l 286 289 q 356 174 301 210 q 486 139 410 139 q 576 151 533 139 q 664 186 618 163 l 731 64 q 600 5 672 26 q 458 -17 528 -17 q 308 8 378 -17 q 188 78 239 32 q 106 192 136 125 q 76 344 76 258 m 574 415 q 542 513 574 475 q 439 550 510 550 q 340 517 383 550 q 283 415 296 485 l 574 415 m 435 797 q 345 815 383 797 q 282 863 307 833 q 244 933 257 893 q 231 1014 232 972 l 344 1014 q 372 940 350 969 q 435 910 393 910 q 498 940 476 910 q 525 1014 519 969 l 639 1014 q 625 933 638 972 q 588 863 613 893 q 524 815 563 833 q 435 797 486 797 z "},"ė":{"ha":833,"x_min":76,"x_max":758,"o":"m 76 344 q 106 496 76 429 q 186 609 136 563 q 301 681 236 656 q 435 706 365 706 q 575 681 514 706 q 676 611 636 656 q 738 506 717 567 q 758 375 758 446 q 756 324 758 347 q 750 289 753 301 l 286 289 q 356 174 301 210 q 486 139 410 139 q 576 151 533 139 q 664 186 618 163 l 731 64 q 600 5 672 26 q 458 -17 528 -17 q 308 8 378 -17 q 188 78 239 32 q 106 192 136 125 q 76 344 76 258 m 574 415 q 542 513 574 475 q 439 550 510 550 q 340 517 383 550 q 283 415 296 485 l 574 415 m 435 790 q 337 824 375 790 q 299 914 299 857 q 337 1006 299 971 q 435 1042 375 1042 q 533 1006 494 1042 q 571 914 571 971 q 533 824 571 857 q 435 790 494 790 z "},"ẹ":{"ha":833,"x_min":76,"x_max":758,"o":"m 76 344 q 106 496 76 429 q 186 609 136 563 q 301 681 236 656 q 435 706 365 706 q 575 681 514 706 q 676 611 636 656 q 738 506 717 567 q 758 375 758 446 q 756 324 758 347 q 750 289 753 301 l 286 289 q 356 174 301 210 q 486 139 410 139 q 576 151 533 139 q 664 186 618 163 l 731 64 q 600 5 672 26 q 458 -17 528 -17 q 308 8 378 -17 q 188 78 239 32 q 106 192 136 125 q 76 344 76 258 m 574 415 q 542 513 574 475 q 439 550 510 550 q 340 517 383 550 q 283 415 296 485 l 574 415 m 435 -351 q 337 -318 375 -351 q 299 -228 299 -285 q 337 -135 299 -171 q 435 -100 375 -100 q 533 -135 494 -100 q 571 -228 571 -171 q 533 -318 571 -285 q 435 -351 494 -351 z "},"ẻ":{"ha":833,"x_min":76,"x_max":758,"o":"m 76 344 q 106 496 76 429 q 186 609 136 563 q 301 681 236 656 q 435 706 365 706 q 575 681 514 706 q 676 611 636 656 q 738 506 717 567 q 758 375 758 446 q 756 324 758 347 q 750 289 753 301 l 286 289 q 356 174 301 210 q 486 139 410 139 q 576 151 533 139 q 664 186 618 163 l 731 64 q 600 5 672 26 q 458 -17 528 -17 q 308 8 378 -17 q 188 78 239 32 q 106 192 136 125 q 76 344 76 258 m 574 415 q 542 513 574 475 q 439 550 510 550 q 340 517 383 550 q 283 415 296 485 l 574 415 m 371 854 q 414 867 396 858 q 432 896 432 876 q 407 927 432 915 q 322 942 382 939 l 346 1044 q 526 1006 474 1040 q 579 917 579 972 q 564 855 579 881 q 522 812 549 829 q 460 785 496 794 q 386 774 425 776 l 371 854 z "},"ẽ":{"ha":833,"x_min":76,"x_max":758,"o":"m 76 344 q 106 496 76 429 q 186 609 136 563 q 301 681 236 656 q 435 706 365 706 q 575 681 514 706 q 676 611 636 656 q 738 506 717 567 q 758 375 758 446 q 756 324 758 347 q 750 289 753 301 l 286 289 q 356 174 301 210 q 486 139 410 139 q 576 151 533 139 q 664 186 618 163 l 731 64 q 600 5 672 26 q 458 -17 528 -17 q 308 8 378 -17 q 188 78 239 32 q 106 192 136 125 q 76 344 76 258 m 574 415 q 542 513 574 475 q 439 550 510 550 q 340 517 383 550 q 283 415 296 485 l 574 415 m 197 799 q 253 949 210 900 q 360 997 296 997 q 406 986 385 997 q 445 961 428 975 q 478 936 463 947 q 508 925 493 925 q 544 941 531 925 q 568 997 558 957 l 672 997 q 617 848 660 897 q 510 799 574 799 q 463 810 483 799 q 424 835 442 822 q 390 860 406 849 q 361 872 375 872 q 325 856 339 872 q 301 799 311 840 l 197 799 l 197 799 z "},"ế":{"ha":833,"x_min":76,"x_max":829,"o":"m 76 344 q 106 496 76 429 q 186 609 136 563 q 301 681 236 656 q 435 706 365 706 q 575 681 514 706 q 676 611 636 656 q 738 506 717 567 q 758 375 758 446 q 756 324 758 347 q 750 289 753 301 l 286 289 q 356 174 301 210 q 486 139 410 139 q 576 151 533 139 q 664 186 618 163 l 731 64 q 600 5 672 26 q 458 -17 528 -17 q 308 8 378 -17 q 188 78 239 32 q 106 192 136 125 q 76 344 76 258 m 574 415 q 542 513 574 475 q 439 550 510 550 q 340 517 383 550 q 283 415 296 485 l 574 415 m 354 975 l 515 975 l 628 797 l 503 797 l 438 888 l 432 888 l 367 797 l 242 797 l 354 975 m 678 1061 l 829 1061 l 697 897 l 583 897 l 678 1061 z "},"ề":{"ha":833,"x_min":76,"x_max":781,"o":"m 76 344 q 106 496 76 429 q 186 609 136 563 q 301 681 236 656 q 435 706 365 706 q 575 681 514 706 q 676 611 636 656 q 738 506 717 567 q 758 375 758 446 q 756 324 758 347 q 750 289 753 301 l 286 289 q 356 174 301 210 q 486 139 410 139 q 576 151 533 139 q 664 186 618 163 l 731 64 q 600 5 672 26 q 458 -17 528 -17 q 308 8 378 -17 q 188 78 239 32 q 106 192 136 125 q 76 344 76 258 m 574 415 q 542 513 574 475 q 439 550 510 550 q 340 517 383 550 q 283 415 296 485 l 574 415 m 354 975 l 515 975 l 628 797 l 503 797 l 438 888 l 432 888 l 367 797 l 242 797 l 354 975 m 781 897 l 667 897 l 535 1061 l 686 1061 l 781 897 z "},"ể":{"ha":833,"x_min":76,"x_max":788,"o":"m 76 344 q 106 496 76 429 q 186 609 136 563 q 301 681 236 656 q 435 706 365 706 q 575 681 514 706 q 676 611 636 656 q 738 506 717 567 q 758 375 758 446 q 756 324 758 347 q 750 289 753 301 l 286 289 q 356 174 301 210 q 486 139 410 139 q 576 151 533 139 q 664 186 618 163 l 731 64 q 600 5 672 26 q 458 -17 528 -17 q 308 8 378 -17 q 188 78 239 32 q 106 192 136 125 q 76 344 76 258 m 574 415 q 542 513 574 475 q 439 550 510 550 q 340 517 383 550 q 283 415 296 485 l 574 415 m 354 975 l 515 975 l 628 797 l 503 797 l 438 888 l 432 888 l 367 797 l 242 797 l 354 975 m 613 942 q 643 954 632 946 q 654 981 654 963 q 635 1012 654 1000 q 564 1026 617 1024 l 583 1113 q 742 1081 697 1110 q 788 1003 788 1051 q 774 945 788 968 q 740 908 761 922 q 689 885 718 893 q 626 872 660 876 l 613 942 z "},"ễ":{"ha":833,"x_min":76,"x_max":758,"o":"m 76 344 q 106 496 76 429 q 186 609 136 563 q 301 681 236 656 q 435 706 365 706 q 575 681 514 706 q 676 611 636 656 q 738 506 717 567 q 758 375 758 446 q 756 324 758 347 q 750 289 753 301 l 286 289 q 356 174 301 210 q 486 139 410 139 q 576 151 533 139 q 664 186 618 163 l 731 64 q 600 5 672 26 q 458 -17 528 -17 q 308 8 378 -17 q 188 78 239 32 q 106 192 136 125 q 76 344 76 258 m 574 415 q 542 513 574 475 q 439 550 510 550 q 340 517 383 550 q 283 415 296 485 l 574 415 m 342 950 l 528 950 l 639 796 l 507 796 l 438 878 l 432 878 l 363 796 l 231 796 l 342 950 m 232 1000 q 277 1121 242 1083 q 358 1158 313 1158 q 406 1150 386 1158 q 442 1132 426 1142 q 472 1114 458 1122 q 500 1106 485 1106 q 549 1158 539 1106 l 638 1158 q 592 1038 628 1076 q 511 1000 557 1000 q 463 1008 483 1000 q 427 1026 443 1017 q 397 1044 411 1036 q 369 1053 383 1053 q 321 1000 331 1053 l 232 1000 z "},"ệ":{"ha":833,"x_min":76,"x_max":758,"o":"m 76 344 q 106 496 76 429 q 186 609 136 563 q 301 681 236 656 q 435 706 365 706 q 575 681 514 706 q 676 611 636 656 q 738 506 717 567 q 758 375 758 446 q 756 324 758 347 q 750 289 753 301 l 286 289 q 356 174 301 210 q 486 139 410 139 q 576 151 533 139 q 664 186 618 163 l 731 64 q 600 5 672 26 q 458 -17 528 -17 q 308 8 378 -17 q 188 78 239 32 q 106 192 136 125 q 76 344 76 258 m 574 415 q 542 513 574 475 q 439 550 510 550 q 340 517 383 550 q 283 415 296 485 l 574 415 m 349 1029 l 521 1029 l 660 797 l 511 797 l 438 929 l 432 929 l 358 797 l 210 797 l 349 1029 m 435 -351 q 337 -318 375 -351 q 299 -228 299 -285 q 337 -135 299 -171 q 435 -100 375 -100 q 533 -135 494 -100 q 571 -228 571 -171 q 533 -318 571 -285 q 435 -351 494 -351 z "},"ę":{"ha":833,"x_min":76,"x_max":758,"o":"m 731 64 q 655 7 685 32 q 608 -39 625 -18 q 585 -78 592 -60 q 579 -118 579 -97 q 597 -158 579 -146 q 639 -171 614 -171 q 665 -166 653 -171 q 688 -154 676 -161 l 729 -246 q 663 -279 703 -267 q 589 -292 622 -292 q 485 -260 526 -292 q 444 -165 444 -228 q 470 -74 444 -114 q 524 -10 496 -33 q 487 -16 500 -15 q 458 -17 474 -17 q 308 8 378 -17 q 188 78 239 32 q 106 192 136 125 q 76 344 76 258 q 106 496 76 429 q 186 609 136 563 q 301 681 236 656 q 435 706 365 706 q 575 681 514 706 q 676 611 636 656 q 738 506 717 567 q 758 375 758 446 q 756 324 758 347 q 750 289 753 301 l 286 289 q 356 174 301 210 q 486 139 410 139 q 576 151 533 139 q 664 186 618 163 l 731 64 m 574 415 q 542 513 574 475 q 439 550 510 550 q 340 517 383 550 q 283 415 296 485 l 574 415 z "},"ĝ":{"ha":833,"x_min":72,"x_max":794,"o":"m 239 -86 q 285 -145 239 -125 q 414 -165 332 -165 q 549 -141 497 -165 q 600 -81 600 -117 q 569 -37 600 -47 q 479 -26 539 -26 l 393 -26 q 331 -24 356 -26 q 288 -18 307 -22 q 250 -51 261 -35 q 239 -86 239 -67 m 72 -117 q 179 21 72 -32 l 179 26 q 131 72 151 44 q 110 144 110 100 q 133 214 110 179 q 192 274 156 249 l 192 279 q 128 349 154 304 q 101 456 101 394 q 126 565 101 518 q 190 642 150 611 q 284 690 231 674 q 396 706 338 706 q 510 689 460 706 l 789 689 l 789 540 l 649 540 q 671 501 661 525 q 681 449 681 476 q 658 346 681 389 q 598 274 636 303 q 508 232 560 246 q 396 218 456 218 q 301 232 351 218 q 278 210 286 221 q 271 182 271 199 q 299 142 271 154 q 388 129 326 129 l 515 129 q 723 89 651 129 q 794 -44 794 49 q 765 -144 794 -99 q 683 -223 736 -190 q 554 -274 631 -256 q 385 -293 478 -293 q 260 -283 318 -293 q 161 -251 203 -272 q 96 -196 119 -229 q 72 -117 72 -162 m 396 342 q 470 370 439 342 q 501 456 501 399 q 470 540 501 511 q 396 568 439 568 q 323 540 353 568 q 293 456 293 511 q 323 370 293 399 q 396 342 353 342 m 336 1029 l 508 1029 l 647 797 l 499 797 l 425 929 l 419 929 l 346 797 l 197 797 l 336 1029 z "},"ğ":{"ha":833,"x_min":72,"x_max":794,"o":"m 239 -86 q 285 -145 239 -125 q 414 -165 332 -165 q 549 -141 497 -165 q 600 -81 600 -117 q 569 -37 600 -47 q 479 -26 539 -26 l 393 -26 q 331 -24 356 -26 q 288 -18 307 -22 q 250 -51 261 -35 q 239 -86 239 -67 m 72 -117 q 179 21 72 -32 l 179 26 q 131 72 151 44 q 110 144 110 100 q 133 214 110 179 q 192 274 156 249 l 192 279 q 128 349 154 304 q 101 456 101 394 q 126 565 101 518 q 190 642 150 611 q 284 690 231 674 q 396 706 338 706 q 510 689 460 706 l 789 689 l 789 540 l 649 540 q 671 501 661 525 q 681 449 681 476 q 658 346 681 389 q 598 274 636 303 q 508 232 560 246 q 396 218 456 218 q 301 232 351 218 q 278 210 286 221 q 271 182 271 199 q 299 142 271 154 q 388 129 326 129 l 515 129 q 723 89 651 129 q 794 -44 794 49 q 765 -144 794 -99 q 683 -223 736 -190 q 554 -274 631 -256 q 385 -293 478 -293 q 260 -283 318 -293 q 161 -251 203 -272 q 96 -196 119 -229 q 72 -117 72 -162 m 396 342 q 470 370 439 342 q 501 456 501 399 q 470 540 501 511 q 396 568 439 568 q 323 540 353 568 q 293 456 293 511 q 323 370 293 399 q 396 342 353 342 m 422 797 q 333 815 371 797 q 269 863 294 833 q 232 933 244 893 q 218 1014 219 972 l 332 1014 q 359 940 338 969 q 422 910 381 910 q 485 940 464 910 q 513 1014 507 969 l 626 1014 q 613 933 625 972 q 575 863 600 893 q 512 815 550 833 q 422 797 474 797 z "},"ġ":{"ha":833,"x_min":72,"x_max":794,"o":"m 239 -86 q 285 -145 239 -125 q 414 -165 332 -165 q 549 -141 497 -165 q 600 -81 600 -117 q 569 -37 600 -47 q 479 -26 539 -26 l 393 -26 q 331 -24 356 -26 q 288 -18 307 -22 q 250 -51 261 -35 q 239 -86 239 -67 m 72 -117 q 179 21 72 -32 l 179 26 q 131 72 151 44 q 110 144 110 100 q 133 214 110 179 q 192 274 156 249 l 192 279 q 128 349 154 304 q 101 456 101 394 q 126 565 101 518 q 190 642 150 611 q 284 690 231 674 q 396 706 338 706 q 510 689 460 706 l 789 689 l 789 540 l 649 540 q 671 501 661 525 q 681 449 681 476 q 658 346 681 389 q 598 274 636 303 q 508 232 560 246 q 396 218 456 218 q 301 232 351 218 q 278 210 286 221 q 271 182 271 199 q 299 142 271 154 q 388 129 326 129 l 515 129 q 723 89 651 129 q 794 -44 794 49 q 765 -144 794 -99 q 683 -223 736 -190 q 554 -274 631 -256 q 385 -293 478 -293 q 260 -283 318 -293 q 161 -251 203 -272 q 96 -196 119 -229 q 72 -117 72 -162 m 396 342 q 470 370 439 342 q 501 456 501 399 q 470 540 501 511 q 396 568 439 568 q 323 540 353 568 q 293 456 293 511 q 323 370 293 399 q 396 342 353 342 m 422 790 q 324 824 363 790 q 286 914 286 857 q 324 1006 286 971 q 422 1042 363 1042 q 520 1006 482 1042 q 558 914 558 971 q 520 824 558 857 q 422 790 482 790 z "},"ģ":{"ha":833,"x_min":72,"x_max":794,"o":"m 239 -86 q 285 -145 239 -125 q 414 -165 332 -165 q 549 -141 497 -165 q 600 -81 600 -117 q 569 -37 600 -47 q 479 -26 539 -26 l 393 -26 q 331 -24 356 -26 q 288 -18 307 -22 q 250 -51 261 -35 q 239 -86 239 -67 m 72 -117 q 179 21 72 -32 l 179 26 q 131 72 151 44 q 110 144 110 100 q 133 214 110 179 q 192 274 156 249 l 192 279 q 128 349 154 304 q 101 456 101 394 q 126 565 101 518 q 190 642 150 611 q 284 690 231 674 q 396 706 338 706 q 510 689 460 706 l 789 689 l 789 540 l 649 540 q 671 501 661 525 q 681 449 681 476 q 658 346 681 389 q 598 274 636 303 q 508 232 560 246 q 396 218 456 218 q 301 232 351 218 q 278 210 286 221 q 271 182 271 199 q 299 142 271 154 q 388 129 326 129 l 515 129 q 723 89 651 129 q 794 -44 794 49 q 765 -144 794 -99 q 683 -223 736 -190 q 554 -274 631 -256 q 385 -293 478 -293 q 260 -283 318 -293 q 161 -251 203 -272 q 96 -196 119 -229 q 72 -117 72 -162 m 396 342 q 470 370 439 342 q 501 456 501 399 q 470 540 501 511 q 396 568 439 568 q 323 540 353 568 q 293 456 293 511 q 323 370 293 399 q 396 342 353 342 m 471 757 q 340 792 378 765 q 303 872 303 819 q 323 933 303 907 q 377 977 343 960 q 456 1004 411 994 q 550 1017 500 1014 l 565 935 q 483 917 515 929 q 450 882 450 906 q 510 832 450 846 l 471 757 l 471 757 z "},"ǧ":{"ha":833,"x_min":72,"x_max":794,"o":"m 239 -86 q 285 -145 239 -125 q 414 -165 332 -165 q 549 -141 497 -165 q 600 -81 600 -117 q 569 -37 600 -47 q 479 -26 539 -26 l 393 -26 q 331 -24 356 -26 q 288 -18 307 -22 q 250 -51 261 -35 q 239 -86 239 -67 m 72 -117 q 179 21 72 -32 l 179 26 q 131 72 151 44 q 110 144 110 100 q 133 214 110 179 q 192 274 156 249 l 192 279 q 128 349 154 304 q 101 456 101 394 q 126 565 101 518 q 190 642 150 611 q 284 690 231 674 q 396 706 338 706 q 510 689 460 706 l 789 689 l 789 540 l 649 540 q 671 501 661 525 q 681 449 681 476 q 658 346 681 389 q 598 274 636 303 q 508 232 560 246 q 396 218 456 218 q 301 232 351 218 q 278 210 286 221 q 271 182 271 199 q 299 142 271 154 q 388 129 326 129 l 515 129 q 723 89 651 129 q 794 -44 794 49 q 765 -144 794 -99 q 683 -223 736 -190 q 554 -274 631 -256 q 385 -293 478 -293 q 260 -283 318 -293 q 161 -251 203 -272 q 96 -196 119 -229 q 72 -117 72 -162 m 396 342 q 470 370 439 342 q 501 456 501 399 q 470 540 501 511 q 396 568 439 568 q 323 540 353 568 q 293 456 293 511 q 323 370 293 399 q 396 342 353 342 m 197 1029 l 346 1029 l 419 896 l 425 896 l 499 1029 l 647 1029 l 508 797 l 336 797 l 197 1029 z "},"ḡ":{"ha":833,"x_min":72,"x_max":794,"o":"m 239 -86 q 285 -145 239 -125 q 414 -165 332 -165 q 549 -141 497 -165 q 600 -81 600 -117 q 569 -37 600 -47 q 479 -26 539 -26 l 393 -26 q 331 -24 356 -26 q 288 -18 307 -22 q 250 -51 261 -35 q 239 -86 239 -67 m 72 -117 q 179 21 72 -32 l 179 26 q 131 72 151 44 q 110 144 110 100 q 133 214 110 179 q 192 274 156 249 l 192 279 q 128 349 154 304 q 101 456 101 394 q 126 565 101 518 q 190 642 150 611 q 284 690 231 674 q 396 706 338 706 q 510 689 460 706 l 789 689 l 789 540 l 649 540 q 671 501 661 525 q 681 449 681 476 q 658 346 681 389 q 598 274 636 303 q 508 232 560 246 q 396 218 456 218 q 301 232 351 218 q 278 210 286 221 q 271 182 271 199 q 299 142 271 154 q 388 129 326 129 l 515 129 q 723 89 651 129 q 794 -44 794 49 q 765 -144 794 -99 q 683 -223 736 -190 q 554 -274 631 -256 q 385 -293 478 -293 q 260 -283 318 -293 q 161 -251 203 -272 q 96 -196 119 -229 q 72 -117 72 -162 m 396 342 q 470 370 439 342 q 501 456 501 399 q 470 540 501 511 q 396 568 439 568 q 323 540 353 568 q 293 456 293 511 q 323 370 293 399 q 396 342 353 342 m 231 951 l 614 951 l 614 822 l 231 822 l 231 951 z "},"ĥ":{"ha":833,"x_min":-25,"x_max":750,"o":"m 100 974 l 304 974 l 304 735 l 293 603 q 338 641 314 622 q 391 674 363 660 q 453 697 419 689 q 526 706 488 706 q 697 631 643 706 q 750 425 750 556 l 750 0 l 546 0 l 546 399 q 524 500 546 468 q 444 532 501 532 q 372 514 403 532 q 304 460 340 496 l 304 0 l 100 0 l 100 974 m -25 1042 l 108 1208 l 308 1208 l 442 1042 l 285 1042 l 211 1126 l 206 1126 l 132 1042 l -25 1042 z "},"ḥ":{"ha":833,"x_min":100,"x_max":750,"o":"m 100 974 l 304 974 l 304 735 l 293 603 q 338 641 314 622 q 391 674 363 660 q 453 697 419 689 q 526 706 488 706 q 697 631 643 706 q 750 425 750 556 l 750 0 l 546 0 l 546 399 q 524 500 546 468 q 444 532 501 532 q 372 514 403 532 q 304 460 340 496 l 304 0 l 100 0 l 100 974 m 426 -351 q 328 -318 367 -351 q 290 -228 290 -285 q 328 -135 290 -171 q 426 -100 367 -100 q 524 -135 486 -100 q 563 -228 563 -171 q 524 -318 563 -285 q 426 -351 486 -351 z "},"ḫ":{"ha":833,"x_min":100,"x_max":750,"o":"m 100 974 l 304 974 l 304 735 l 293 603 q 338 641 314 622 q 391 674 363 660 q 453 697 419 689 q 526 706 488 706 q 697 631 643 706 q 750 425 750 556 l 750 0 l 546 0 l 546 399 q 524 500 546 468 q 444 532 501 532 q 372 514 403 532 q 304 460 340 496 l 304 0 l 100 0 l 100 974 m 426 -292 q 342 -276 378 -292 q 283 -233 307 -260 q 247 -172 260 -207 q 233 -99 235 -136 l 347 -99 q 371 -157 351 -133 q 426 -181 390 -181 q 482 -157 463 -181 q 506 -99 501 -133 l 619 -99 q 606 -172 618 -136 q 569 -233 593 -207 q 510 -276 546 -260 q 426 -292 475 -292 z "},"ħ":{"ha":833,"x_min":8,"x_max":750,"o":"m 293 575 q 338 613 314 594 q 391 647 363 632 q 453 669 419 661 q 526 678 488 678 q 697 603 643 678 q 750 397 750 528 l 750 0 l 546 0 l 546 371 q 524 472 546 440 q 444 504 501 504 q 372 486 403 504 q 304 432 340 468 l 304 0 l 100 0 l 100 772 l 8 772 l 8 863 l 100 869 l 100 974 l 304 974 l 304 871 l 557 871 l 557 772 l 304 772 l 304 707 l 293 575 z "},"ì":{"ha":833,"x_min":110,"x_max":593,"o":"m 110 689 l 590 689 l 590 0 l 386 0 l 386 529 l 110 529 l 110 689 m 261 1029 l 469 1029 l 593 797 l 444 797 l 261 1029 z "},"í":{"ha":833,"x_min":110,"x_max":697,"o":"m 110 689 l 590 689 l 590 0 l 386 0 l 386 529 l 110 529 l 110 689 m 514 797 l 365 797 l 489 1029 l 697 1029 l 514 797 z "},"î":{"ha":833,"x_min":110,"x_max":704,"o":"m 110 689 l 590 689 l 590 0 l 386 0 l 386 529 l 110 529 l 110 689 m 393 1029 l 565 1029 l 704 797 l 556 797 l 482 929 l 476 929 l 403 797 l 254 797 l 393 1029 z "},"ĩ":{"ha":833,"x_min":110,"x_max":717,"o":"m 110 689 l 590 689 l 590 0 l 386 0 l 386 529 l 110 529 l 110 689 m 242 799 q 297 949 254 900 q 404 997 340 997 q 451 986 429 997 q 490 961 472 975 q 522 936 507 947 q 553 925 538 925 q 589 941 575 925 q 613 997 603 957 l 717 997 q 661 848 704 897 q 554 799 618 799 q 507 810 528 799 q 468 835 486 822 q 435 860 450 849 q 406 872 419 872 q 369 856 383 872 q 346 799 356 840 l 242 799 l 242 799 z "},"ï":{"ha":833,"x_min":110,"x_max":740,"o":"m 110 689 l 590 689 l 590 0 l 386 0 l 386 529 l 110 529 l 110 689 m 328 793 q 249 824 279 793 q 218 903 218 856 q 249 980 218 949 q 328 1011 279 1011 q 406 980 376 1011 q 436 903 436 949 q 406 824 436 856 q 328 793 376 793 m 631 793 q 552 824 582 793 q 522 903 522 856 q 552 980 522 949 q 631 1011 582 1011 q 710 980 679 1011 q 740 903 740 949 q 710 824 740 856 q 631 793 679 793 z "},"ī":{"ha":833,"x_min":110,"x_max":671,"o":"m 110 689 l 590 689 l 590 0 l 386 0 l 386 529 l 110 529 l 110 689 m 288 951 l 671 951 l 671 822 l 288 822 l 288 951 z "},"ǐ":{"ha":833,"x_min":110,"x_max":704,"o":"m 110 689 l 590 689 l 590 0 l 386 0 l 386 529 l 110 529 l 110 689 m 254 1029 l 403 1029 l 476 896 l 482 896 l 556 1029 l 704 1029 l 565 797 l 393 797 l 254 1029 z "},"ỉ":{"ha":833,"x_min":110,"x_max":624,"o":"m 110 689 l 590 689 l 590 0 l 386 0 l 386 529 l 110 529 l 110 689 m 415 854 q 458 867 440 858 q 476 896 476 876 q 451 927 476 915 q 367 942 426 939 l 390 1044 q 571 1006 518 1040 q 624 917 624 972 q 608 855 624 881 q 567 812 593 829 q 505 785 540 794 q 431 774 469 776 l 415 854 z "},"ị":{"ha":833,"x_min":110,"x_max":615,"o":"m 110 689 l 590 689 l 590 0 l 386 0 l 386 529 l 110 529 l 110 689 m 479 790 q 381 824 419 790 q 343 914 343 857 q 381 1006 343 971 q 479 1042 419 1042 q 577 1006 539 1042 q 615 914 615 971 q 577 824 615 857 q 479 790 539 790 m 479 -351 q 381 -318 419 -351 q 343 -228 343 -285 q 381 -135 343 -171 q 479 -100 419 -100 q 577 -135 539 -100 q 615 -228 615 -171 q 577 -318 615 -285 q 479 -351 539 -351 z "},"į":{"ha":833,"x_min":110,"x_max":642,"o":"m 386 529 l 110 529 l 110 689 l 590 689 l 590 0 q 513 -53 535 -21 q 492 -118 492 -86 q 509 -158 492 -146 q 550 -171 526 -171 q 576 -166 564 -171 q 599 -154 588 -161 l 642 -246 q 574 -279 614 -267 q 501 -292 533 -292 q 397 -260 439 -292 q 354 -165 354 -228 q 363 -109 354 -135 q 386 -62 372 -83 q 416 -26 400 -42 q 444 0 432 -11 l 386 0 l 386 529 m 479 790 q 381 824 419 790 q 343 914 343 857 q 381 1006 343 971 q 479 1042 419 1042 q 577 1006 539 1042 q 615 914 615 971 q 577 824 615 857 q 479 790 539 790 z "},"ı":{"ha":833,"x_min":110,"x_max":590,"o":"m 110 689 l 590 689 l 590 0 l 386 0 l 386 529 l 110 529 l 110 689 z "},"ĵ":{"ha":833,"x_min":58,"x_max":704,"o":"m 110 689 l 590 689 l 590 42 q 576 -78 590 -21 q 524 -178 561 -135 q 426 -247 488 -221 q 271 -272 364 -272 q 155 -259 207 -272 q 58 -225 103 -246 l 118 -79 q 194 -106 160 -99 q 258 -112 228 -112 q 359 -77 332 -112 q 386 33 386 -42 l 386 529 l 110 529 l 110 689 m 393 1029 l 565 1029 l 704 797 l 556 797 l 482 929 l 476 929 l 403 797 l 254 797 l 393 1029 z "},"ķ":{"ha":833,"x_min":106,"x_max":813,"o":"m 106 974 l 310 974 l 310 415 l 314 417 l 568 689 l 792 689 l 531 406 l 813 0 l 592 0 l 413 271 l 310 171 l 310 0 l 106 0 l 106 974 m 400 -58 q 531 -95 494 -68 q 568 -175 568 -122 q 548 -237 568 -211 q 494 -280 528 -262 q 417 -306 461 -297 q 322 -318 372 -315 l 307 -236 q 390 -219 357 -231 q 422 -185 422 -208 q 408 -153 422 -165 q 361 -133 393 -142 l 400 -58 l 400 -58 z "},"ĸ":{"ha":833,"x_min":106,"x_max":813,"o":"m 106 689 l 310 689 l 310 415 l 314 417 l 568 689 l 792 689 l 531 406 l 813 0 l 592 0 l 413 271 l 310 171 l 310 0 l 106 0 l 106 689 z "},"ĺ":{"ha":833,"x_min":86,"x_max":756,"o":"m 86 974 l 490 974 l 490 261 q 499 208 490 229 q 524 173 508 186 q 560 154 540 160 q 601 149 581 149 q 651 153 625 149 q 710 171 678 158 l 756 21 q 704 6 728 13 q 657 -6 681 -1 q 607 -14 633 -11 q 549 -17 581 -17 q 352 60 418 -17 q 286 269 286 138 l 286 813 l 86 813 l 86 974 m 428 1051 l 265 1051 l 378 1218 l 594 1218 l 428 1051 z "},"ľ":{"ha":833,"x_min":86,"x_max":756,"o":"m 86 974 l 490 974 l 490 261 q 499 208 490 229 q 524 173 508 186 q 560 154 540 160 q 601 149 581 149 q 651 153 625 149 q 710 171 678 158 l 756 21 q 704 6 728 13 q 657 -6 681 -1 q 607 -14 633 -11 q 549 -17 581 -17 q 352 60 418 -17 q 286 269 286 138 l 286 813 l 86 813 l 86 974 m 575 761 l 568 1069 l 699 1069 l 696 974 l 663 761 l 575 761 z "},"ŀ":{"ha":833,"x_min":18,"x_max":790,"o":"m 18 974 l 422 974 l 422 261 q 431 208 422 229 q 456 173 440 186 q 492 154 472 160 q 533 149 513 149 q 583 153 557 149 q 642 171 610 158 l 688 21 q 636 6 660 13 q 589 -6 613 -1 q 539 -14 565 -11 q 481 -17 513 -17 q 284 60 350 -17 q 218 269 218 138 l 218 813 l 18 813 l 18 974 m 654 365 q 556 399 594 365 q 518 489 518 432 q 556 581 518 546 q 654 617 594 617 q 752 581 714 617 q 790 489 790 546 q 752 399 790 432 q 654 365 714 365 z "},"ļ":{"ha":833,"x_min":86,"x_max":756,"o":"m 86 974 l 490 974 l 490 261 q 499 208 490 229 q 524 173 508 186 q 560 154 540 160 q 601 149 581 149 q 651 153 625 149 q 710 171 678 158 l 756 21 q 704 6 728 13 q 657 -6 681 -1 q 607 -14 633 -11 q 549 -17 581 -17 q 352 60 418 -17 q 286 269 286 138 l 286 813 l 86 813 l 86 974 m 453 -58 q 584 -95 547 -68 q 621 -175 621 -122 q 601 -237 621 -211 q 547 -280 581 -262 q 469 -306 514 -297 q 375 -318 425 -315 l 360 -236 q 442 -219 410 -231 q 475 -185 475 -208 q 460 -153 475 -165 q 414 -133 446 -142 l 453 -58 l 453 -58 z "},"ḷ":{"ha":833,"x_min":86,"x_max":756,"o":"m 86 974 l 490 974 l 490 261 q 499 208 490 229 q 524 173 508 186 q 560 154 540 160 q 601 149 581 149 q 651 153 625 149 q 710 171 678 158 l 756 21 q 704 6 728 13 q 657 -6 681 -1 q 607 -14 633 -11 q 549 -17 581 -17 q 352 60 418 -17 q 286 269 286 138 l 286 813 l 86 813 l 86 974 m 503 -351 q 405 -318 443 -351 q 367 -228 367 -285 q 405 -135 367 -171 q 503 -100 443 -100 q 601 -135 563 -100 q 639 -228 639 -171 q 601 -318 639 -285 q 503 -351 563 -351 z "},"ḹ":{"ha":833,"x_min":86,"x_max":756,"o":"m 86 974 l 490 974 l 490 261 q 499 208 490 229 q 524 173 508 186 q 560 154 540 160 q 601 149 581 149 q 651 153 625 149 q 710 171 678 158 l 756 21 q 704 6 728 13 q 657 -6 681 -1 q 607 -14 633 -11 q 549 -17 581 -17 q 352 60 418 -17 q 286 269 286 138 l 286 813 l 86 813 l 86 974 m 186 1246 l 569 1246 l 569 1117 l 186 1117 l 186 1246 m 503 -351 q 405 -318 443 -351 q 367 -228 367 -285 q 405 -135 367 -171 q 503 -100 443 -100 q 601 -135 563 -100 q 639 -228 639 -171 q 601 -318 639 -285 q 503 -351 563 -351 z "},"ḻ":{"ha":833,"x_min":86,"x_max":756,"o":"m 86 974 l 490 974 l 490 261 q 499 208 490 229 q 524 173 508 186 q 560 154 540 160 q 601 149 581 149 q 651 153 625 149 q 710 171 678 158 l 756 21 q 704 6 728 13 q 657 -6 681 -1 q 607 -14 633 -11 q 549 -17 581 -17 q 352 60 418 -17 q 286 269 286 138 l 286 813 l 86 813 l 86 974 m 694 -262 l 311 -262 l 311 -132 l 694 -132 l 694 -262 z "},"ł":{"ha":833,"x_min":86,"x_max":756,"o":"m 756 21 q 704 6 728 13 q 657 -6 681 -1 q 607 -14 633 -11 q 549 -17 581 -17 q 352 60 418 -17 q 286 269 286 138 l 286 383 l 129 296 l 129 458 l 286 547 l 286 813 l 86 813 l 86 974 l 490 974 l 490 649 l 696 760 l 696 597 l 490 485 l 490 261 q 499 208 490 229 q 524 173 508 186 q 560 154 540 160 q 601 149 581 149 q 651 153 625 149 q 710 171 678 158 l 756 21 z "},"ṃ":{"ha":833,"x_min":50,"x_max":796,"o":"m 50 689 l 203 689 l 218 603 l 224 603 q 277 676 243 646 q 371 706 311 706 q 448 677 417 706 q 492 593 479 649 q 548 673 511 640 q 643 706 585 706 q 756 647 715 706 q 796 483 796 588 l 796 0 l 604 0 l 604 468 q 565 532 604 532 q 501 465 528 532 l 501 0 l 344 0 l 344 468 q 304 532 344 532 q 271 515 285 532 q 242 465 257 499 l 242 0 l 50 0 l 50 689 m 421 -351 q 323 -318 361 -351 q 285 -228 285 -285 q 323 -135 285 -171 q 421 -100 361 -100 q 519 -135 481 -100 q 557 -228 557 -171 q 519 -318 557 -285 q 421 -351 481 -351 z "},"ń":{"ha":833,"x_min":100,"x_max":750,"o":"m 100 689 l 267 689 l 282 597 l 288 597 q 390 674 332 642 q 525 706 447 706 q 696 631 642 706 q 750 425 750 556 l 750 0 l 546 0 l 546 399 q 524 500 546 468 q 444 532 501 532 q 372 514 403 532 q 304 460 340 496 l 304 0 l 100 0 l 100 689 m 472 797 l 324 797 l 447 1029 l 656 1029 l 472 797 z "},"ň":{"ha":833,"x_min":100,"x_max":750,"o":"m 100 689 l 267 689 l 282 597 l 288 597 q 390 674 332 642 q 525 706 447 706 q 696 631 642 706 q 750 425 750 556 l 750 0 l 546 0 l 546 399 q 524 500 546 468 q 444 532 501 532 q 372 514 403 532 q 304 460 340 496 l 304 0 l 100 0 l 100 689 m 213 1029 l 361 1029 l 435 896 l 440 896 l 514 1029 l 663 1029 l 524 797 l 351 797 l 213 1029 z "},"ñ":{"ha":833,"x_min":100,"x_max":750,"o":"m 100 689 l 267 689 l 282 597 l 288 597 q 390 674 332 642 q 525 706 447 706 q 696 631 642 706 q 750 425 750 556 l 750 0 l 546 0 l 546 399 q 524 500 546 468 q 444 532 501 532 q 372 514 403 532 q 304 460 340 496 l 304 0 l 100 0 l 100 689 m 200 799 q 256 949 213 900 q 363 997 299 997 q 409 986 388 997 q 448 961 431 975 q 481 936 465 947 q 511 925 496 925 q 547 941 533 925 q 571 997 561 957 l 675 997 q 619 848 663 897 q 513 799 576 799 q 465 810 486 799 q 426 835 444 822 q 393 860 408 849 q 364 872 378 872 q 328 856 342 872 q 304 799 314 840 l 200 799 l 200 799 z "},"ņ":{"ha":833,"x_min":100,"x_max":750,"o":"m 100 689 l 267 689 l 282 597 l 288 597 q 390 674 332 642 q 525 706 447 706 q 696 631 642 706 q 750 425 750 556 l 750 0 l 546 0 l 546 399 q 524 500 546 468 q 444 532 501 532 q 372 514 403 532 q 304 460 340 496 l 304 0 l 100 0 l 100 689 m 375 -58 q 506 -95 469 -68 q 543 -175 543 -122 q 523 -237 543 -211 q 469 -280 503 -262 q 392 -306 436 -297 q 297 -318 347 -315 l 282 -236 q 365 -219 332 -231 q 397 -185 397 -208 q 383 -153 397 -165 q 336 -133 368 -142 l 375 -58 l 375 -58 z "},"ṅ":{"ha":833,"x_min":100,"x_max":750,"o":"m 100 689 l 267 689 l 282 597 l 288 597 q 390 674 332 642 q 525 706 447 706 q 696 631 642 706 q 750 425 750 556 l 750 0 l 546 0 l 546 399 q 524 500 546 468 q 444 532 501 532 q 372 514 403 532 q 304 460 340 496 l 304 0 l 100 0 l 100 689 m 438 790 q 340 824 378 790 q 301 914 301 857 q 340 1006 301 971 q 438 1042 378 1042 q 535 1006 497 1042 q 574 914 574 971 q 535 824 574 857 q 438 790 497 790 z "},"ṇ":{"ha":833,"x_min":100,"x_max":750,"o":"m 100 689 l 267 689 l 282 597 l 288 597 q 390 674 332 642 q 525 706 447 706 q 696 631 642 706 q 750 425 750 556 l 750 0 l 546 0 l 546 399 q 524 500 546 468 q 444 532 501 532 q 372 514 403 532 q 304 460 340 496 l 304 0 l 100 0 l 100 689 m 425 -351 q 327 -318 365 -351 q 289 -228 289 -285 q 327 -135 289 -171 q 425 -100 365 -100 q 523 -135 485 -100 q 561 -228 561 -171 q 523 -318 561 -285 q 425 -351 485 -351 z "},"ṉ":{"ha":833,"x_min":100,"x_max":750,"o":"m 100 689 l 267 689 l 282 597 l 288 597 q 390 674 332 642 q 525 706 447 706 q 696 631 642 706 q 750 425 750 556 l 750 0 l 546 0 l 546 399 q 524 500 546 468 q 444 532 501 532 q 372 514 403 532 q 304 460 340 496 l 304 0 l 100 0 l 100 689 m 617 -262 l 233 -262 l 233 -132 l 617 -132 l 617 -262 z "},"ŉ":{"ha":833,"x_min":-64,"x_max":894,"o":"m -64 511 q 92 703 82 576 q 78 701 85 701 q 64 700 71 700 q -28 735 7 700 q -62 828 -62 769 q -26 930 -62 892 q 69 968 11 968 q 191 909 149 968 q 233 746 233 850 q 173 545 233 632 q -10 403 113 458 l -64 511 m 488 600 q 577 674 528 643 q 696 706 626 706 q 847 631 799 706 q 894 428 894 557 l 894 0 l 690 0 l 690 401 q 673 501 690 469 q 614 532 656 532 q 558 514 581 532 q 504 463 535 496 l 504 0 l 300 0 l 300 689 l 467 689 l 482 600 l 488 600 z "},"ò":{"ha":833,"x_min":65,"x_max":768,"o":"m 65 344 q 94 498 65 431 q 173 611 124 565 q 285 681 222 657 q 417 706 349 706 q 548 681 485 706 q 660 611 611 657 q 739 498 710 565 q 768 344 768 431 q 739 191 768 258 q 660 78 710 124 q 548 8 611 32 q 417 -17 485 -17 q 285 8 349 -17 q 173 78 222 32 q 94 191 124 124 q 65 344 65 258 m 275 344 q 310 201 275 254 q 417 149 346 149 q 523 201 488 149 q 558 344 558 254 q 523 488 558 435 q 417 540 488 540 q 310 488 346 540 q 275 344 275 435 m 199 1029 l 407 1029 l 531 797 l 382 797 l 199 1029 z "},"ó":{"ha":833,"x_min":65,"x_max":768,"o":"m 65 344 q 94 498 65 431 q 173 611 124 565 q 285 681 222 657 q 417 706 349 706 q 548 681 485 706 q 660 611 611 657 q 739 498 710 565 q 768 344 768 431 q 739 191 768 258 q 660 78 710 124 q 548 8 611 32 q 417 -17 485 -17 q 285 8 349 -17 q 173 78 222 32 q 94 191 124 124 q 65 344 65 258 m 275 344 q 310 201 275 254 q 417 149 346 149 q 523 201 488 149 q 558 344 558 254 q 523 488 558 435 q 417 540 488 540 q 310 488 346 540 q 275 344 275 435 m 451 797 l 303 797 l 426 1029 l 635 1029 l 451 797 z "},"ô":{"ha":833,"x_min":65,"x_max":768,"o":"m 65 344 q 94 498 65 431 q 173 611 124 565 q 285 681 222 657 q 417 706 349 706 q 548 681 485 706 q 660 611 611 657 q 739 498 710 565 q 768 344 768 431 q 739 191 768 258 q 660 78 710 124 q 548 8 611 32 q 417 -17 485 -17 q 285 8 349 -17 q 173 78 222 32 q 94 191 124 124 q 65 344 65 258 m 275 344 q 310 201 275 254 q 417 149 346 149 q 523 201 488 149 q 558 344 558 254 q 523 488 558 435 q 417 540 488 540 q 310 488 346 540 q 275 344 275 435 m 331 1029 l 503 1029 l 642 797 l 493 797 l 419 929 l 414 929 l 340 797 l 192 797 l 331 1029 z "},"õ":{"ha":833,"x_min":65,"x_max":768,"o":"m 65 344 q 94 498 65 431 q 173 611 124 565 q 285 681 222 657 q 417 706 349 706 q 548 681 485 706 q 660 611 611 657 q 739 498 710 565 q 768 344 768 431 q 739 191 768 258 q 660 78 710 124 q 548 8 611 32 q 417 -17 485 -17 q 285 8 349 -17 q 173 78 222 32 q 94 191 124 124 q 65 344 65 258 m 275 344 q 310 201 275 254 q 417 149 346 149 q 523 201 488 149 q 558 344 558 254 q 523 488 558 435 q 417 540 488 540 q 310 488 346 540 q 275 344 275 435 m 179 799 q 235 949 192 900 q 342 997 278 997 q 388 986 367 997 q 427 961 410 975 q 460 936 444 947 q 490 925 475 925 q 526 941 513 925 q 550 997 540 957 l 654 997 q 599 848 642 897 q 492 799 556 799 q 444 810 465 799 q 406 835 424 822 q 372 860 388 849 q 343 872 357 872 q 307 856 321 872 q 283 799 293 840 l 179 799 l 179 799 z "},"ö":{"ha":833,"x_min":65,"x_max":768,"o":"m 65 344 q 94 498 65 431 q 173 611 124 565 q 285 681 222 657 q 417 706 349 706 q 548 681 485 706 q 660 611 611 657 q 739 498 710 565 q 768 344 768 431 q 739 191 768 258 q 660 78 710 124 q 548 8 611 32 q 417 -17 485 -17 q 285 8 349 -17 q 173 78 222 32 q 94 191 124 124 q 65 344 65 258 m 275 344 q 310 201 275 254 q 417 149 346 149 q 523 201 488 149 q 558 344 558 254 q 523 488 558 435 q 417 540 488 540 q 310 488 346 540 q 275 344 275 435 m 265 793 q 186 824 217 793 q 156 903 156 856 q 186 980 156 949 q 265 1011 217 1011 q 344 980 314 1011 q 374 903 374 949 q 344 824 374 856 q 265 793 314 793 m 568 793 q 490 824 519 793 q 460 903 460 856 q 490 980 460 949 q 568 1011 519 1011 q 647 980 617 1011 q 678 903 678 949 q 647 824 678 856 q 568 793 617 793 z "},"ō":{"ha":833,"x_min":65,"x_max":768,"o":"m 65 344 q 94 498 65 431 q 173 611 124 565 q 285 681 222 657 q 417 706 349 706 q 548 681 485 706 q 660 611 611 657 q 739 498 710 565 q 768 344 768 431 q 739 191 768 258 q 660 78 710 124 q 548 8 611 32 q 417 -17 485 -17 q 285 8 349 -17 q 173 78 222 32 q 94 191 124 124 q 65 344 65 258 m 275 344 q 310 201 275 254 q 417 149 346 149 q 523 201 488 149 q 558 344 558 254 q 523 488 558 435 q 417 540 488 540 q 310 488 346 540 q 275 344 275 435 m 225 951 l 608 951 l 608 822 l 225 822 l 225 951 z "},"ő":{"ha":833,"x_min":65,"x_max":768,"o":"m 65 344 q 94 498 65 431 q 173 611 124 565 q 285 681 222 657 q 417 706 349 706 q 548 681 485 706 q 660 611 611 657 q 739 498 710 565 q 768 344 768 431 q 739 191 768 258 q 660 78 710 124 q 548 8 611 32 q 417 -17 485 -17 q 285 8 349 -17 q 173 78 222 32 q 94 191 124 124 q 65 344 65 258 m 275 344 q 310 201 275 254 q 417 149 346 149 q 523 201 488 149 q 558 344 558 254 q 523 488 558 435 q 417 540 488 540 q 310 488 346 540 q 275 344 275 435 m 338 1006 l 500 1006 l 368 796 l 243 796 l 338 1006 m 575 1006 l 738 1006 l 606 796 l 479 796 l 575 1006 z "},"ǒ":{"ha":833,"x_min":65,"x_max":768,"o":"m 65 344 q 94 498 65 431 q 173 611 124 565 q 285 681 222 657 q 417 706 349 706 q 548 681 485 706 q 660 611 611 657 q 739 498 710 565 q 768 344 768 431 q 739 191 768 258 q 660 78 710 124 q 548 8 611 32 q 417 -17 485 -17 q 285 8 349 -17 q 173 78 222 32 q 94 191 124 124 q 65 344 65 258 m 275 344 q 310 201 275 254 q 417 149 346 149 q 523 201 488 149 q 558 344 558 254 q 523 488 558 435 q 417 540 488 540 q 310 488 346 540 q 275 344 275 435 m 192 1029 l 340 1029 l 414 896 l 419 896 l 493 1029 l 642 1029 l 503 797 l 331 797 l 192 1029 z "},"ọ":{"ha":833,"x_min":65,"x_max":768,"o":"m 65 344 q 94 498 65 431 q 173 611 124 565 q 285 681 222 657 q 417 706 349 706 q 548 681 485 706 q 660 611 611 657 q 739 498 710 565 q 768 344 768 431 q 739 191 768 258 q 660 78 710 124 q 548 8 611 32 q 417 -17 485 -17 q 285 8 349 -17 q 173 78 222 32 q 94 191 124 124 q 65 344 65 258 m 275 344 q 310 201 275 254 q 417 149 346 149 q 523 201 488 149 q 558 344 558 254 q 523 488 558 435 q 417 540 488 540 q 310 488 346 540 q 275 344 275 435 m 417 -351 q 319 -318 357 -351 q 281 -228 281 -285 q 319 -135 281 -171 q 417 -100 357 -100 q 515 -135 476 -100 q 553 -228 553 -171 q 515 -318 553 -285 q 417 -351 476 -351 z "},"ỏ":{"ha":833,"x_min":65,"x_max":768,"o":"m 65 344 q 94 498 65 431 q 173 611 124 565 q 285 681 222 657 q 417 706 349 706 q 548 681 485 706 q 660 611 611 657 q 739 498 710 565 q 768 344 768 431 q 739 191 768 258 q 660 78 710 124 q 548 8 611 32 q 417 -17 485 -17 q 285 8 349 -17 q 173 78 222 32 q 94 191 124 124 q 65 344 65 258 m 275 344 q 310 201 275 254 q 417 149 346 149 q 523 201 488 149 q 558 344 558 254 q 523 488 558 435 q 417 540 488 540 q 310 488 346 540 q 275 344 275 435 m 353 854 q 396 867 378 858 q 414 896 414 876 q 389 927 414 915 q 304 942 364 939 l 328 1044 q 508 1006 456 1040 q 561 917 561 972 q 546 855 561 881 q 504 812 531 829 q 442 785 478 794 q 368 774 407 776 l 353 854 z "},"ố":{"ha":833,"x_min":65,"x_max":811,"o":"m 65 344 q 94 498 65 431 q 173 611 124 565 q 285 681 222 657 q 417 706 349 706 q 548 681 485 706 q 660 611 611 657 q 739 498 710 565 q 768 344 768 431 q 739 191 768 258 q 660 78 710 124 q 548 8 611 32 q 417 -17 485 -17 q 285 8 349 -17 q 173 78 222 32 q 94 191 124 124 q 65 344 65 258 m 275 344 q 310 201 275 254 q 417 149 346 149 q 523 201 488 149 q 558 344 558 254 q 523 488 558 435 q 417 540 488 540 q 310 488 346 540 q 275 344 275 435 m 336 975 l 497 975 l 610 797 l 485 797 l 419 888 l 414 888 l 349 797 l 224 797 l 336 975 m 660 1061 l 811 1061 l 679 897 l 565 897 l 660 1061 z "},"ồ":{"ha":833,"x_min":65,"x_max":768,"o":"m 65 344 q 94 498 65 431 q 173 611 124 565 q 285 681 222 657 q 417 706 349 706 q 548 681 485 706 q 660 611 611 657 q 739 498 710 565 q 768 344 768 431 q 739 191 768 258 q 660 78 710 124 q 548 8 611 32 q 417 -17 485 -17 q 285 8 349 -17 q 173 78 222 32 q 94 191 124 124 q 65 344 65 258 m 275 344 q 310 201 275 254 q 417 149 346 149 q 523 201 488 149 q 558 344 558 254 q 523 488 558 435 q 417 540 488 540 q 310 488 346 540 q 275 344 275 435 m 336 975 l 497 975 l 610 797 l 485 797 l 419 888 l 414 888 l 349 797 l 224 797 l 336 975 m 763 897 l 649 897 l 517 1061 l 668 1061 l 763 897 z "},"ổ":{"ha":833,"x_min":65,"x_max":769,"o":"m 65 344 q 94 498 65 431 q 173 611 124 565 q 285 681 222 657 q 417 706 349 706 q 548 681 485 706 q 660 611 611 657 q 739 498 710 565 q 768 344 768 431 q 739 191 768 258 q 660 78 710 124 q 548 8 611 32 q 417 -17 485 -17 q 285 8 349 -17 q 173 78 222 32 q 94 191 124 124 q 65 344 65 258 m 275 344 q 310 201 275 254 q 417 149 346 149 q 523 201 488 149 q 558 344 558 254 q 523 488 558 435 q 417 540 488 540 q 310 488 346 540 q 275 344 275 435 m 336 975 l 497 975 l 610 797 l 485 797 l 419 888 l 414 888 l 349 797 l 224 797 l 336 975 m 594 942 q 625 954 614 946 q 636 981 636 963 q 617 1012 636 1000 q 546 1026 599 1024 l 565 1113 q 724 1081 679 1110 q 769 1003 769 1051 q 756 945 769 968 q 722 908 743 922 q 671 885 700 893 q 608 872 642 876 l 594 942 z "},"ỗ":{"ha":833,"x_min":65,"x_max":768,"o":"m 65 344 q 94 498 65 431 q 173 611 124 565 q 285 681 222 657 q 417 706 349 706 q 548 681 485 706 q 660 611 611 657 q 739 498 710 565 q 768 344 768 431 q 739 191 768 258 q 660 78 710 124 q 548 8 611 32 q 417 -17 485 -17 q 285 8 349 -17 q 173 78 222 32 q 94 191 124 124 q 65 344 65 258 m 275 344 q 310 201 275 254 q 417 149 346 149 q 523 201 488 149 q 558 344 558 254 q 523 488 558 435 q 417 540 488 540 q 310 488 346 540 q 275 344 275 435 m 324 950 l 510 950 l 621 796 l 489 796 l 419 878 l 414 878 l 344 796 l 213 796 l 324 950 m 214 1000 q 259 1121 224 1083 q 340 1158 294 1158 q 388 1150 368 1158 q 424 1132 408 1142 q 453 1114 440 1122 q 482 1106 467 1106 q 531 1158 521 1106 l 619 1158 q 574 1038 610 1076 q 493 1000 539 1000 q 445 1008 465 1000 q 409 1026 425 1017 q 379 1044 393 1036 q 351 1053 365 1053 q 303 1000 313 1053 l 214 1000 z "},"ộ":{"ha":833,"x_min":65,"x_max":768,"o":"m 65 344 q 94 498 65 431 q 173 611 124 565 q 285 681 222 657 q 417 706 349 706 q 548 681 485 706 q 660 611 611 657 q 739 498 710 565 q 768 344 768 431 q 739 191 768 258 q 660 78 710 124 q 548 8 611 32 q 417 -17 485 -17 q 285 8 349 -17 q 173 78 222 32 q 94 191 124 124 q 65 344 65 258 m 275 344 q 310 201 275 254 q 417 149 346 149 q 523 201 488 149 q 558 344 558 254 q 523 488 558 435 q 417 540 488 540 q 310 488 346 540 q 275 344 275 435 m 331 1029 l 503 1029 l 642 797 l 493 797 l 419 929 l 414 929 l 340 797 l 192 797 l 331 1029 m 417 -351 q 319 -318 357 -351 q 281 -228 281 -285 q 319 -135 281 -171 q 417 -100 357 -100 q 515 -135 476 -100 q 553 -228 553 -171 q 515 -318 553 -285 q 417 -351 476 -351 z "},"ø":{"ha":833,"x_min":65,"x_max":768,"o":"m 333 171 q 417 142 369 142 q 523 198 488 142 q 558 344 558 254 q 556 389 558 368 q 549 429 554 410 l 333 171 m 499 519 q 417 547 464 547 q 310 491 346 547 q 275 344 275 435 q 285 261 275 296 l 499 519 m 682 589 q 745 482 722 543 q 768 344 768 421 q 739 191 768 258 q 660 78 710 124 q 548 8 611 32 q 417 -17 485 -17 q 224 39 311 -17 l 163 -35 l 86 24 l 150 101 q 88 207 111 146 q 65 344 65 268 q 94 498 65 431 q 173 611 124 565 q 285 681 222 657 q 417 706 349 706 q 608 651 522 706 l 671 726 l 747 667 l 682 589 z "},"œ":{"ha":833,"x_min":17,"x_max":822,"o":"m 200 344 q 221 201 200 254 q 286 147 242 147 q 344 201 324 147 q 364 344 364 254 q 344 488 364 435 q 286 542 324 542 q 221 488 242 542 q 200 344 200 435 m 17 344 q 37 498 17 431 q 92 611 57 565 q 175 681 128 657 q 275 706 222 706 q 376 673 335 706 q 443 586 418 640 q 514 675 471 644 q 608 706 557 706 q 700 679 660 706 q 767 608 740 653 q 808 502 794 563 q 822 374 822 442 q 820 327 822 346 q 814 285 818 308 l 506 285 q 549 178 517 214 q 631 143 582 143 q 682 151 658 143 q 733 179 706 160 l 803 49 q 714 0 763 17 q 622 -17 665 -17 q 522 11 568 -17 q 444 90 475 39 q 374 10 414 38 q 271 -17 333 -17 q 172 8 218 -17 q 90 78 125 32 q 36 191 56 124 q 17 344 17 258 m 661 410 q 658 464 661 439 q 647 508 654 489 q 626 539 639 528 q 593 550 613 550 q 533 516 557 550 q 503 410 510 482 l 661 410 z "},"ơ":{"ha":833,"x_min":65,"x_max":813,"o":"m 417 149 q 523 201 488 149 q 558 344 558 254 q 523 488 558 435 q 417 540 488 540 q 310 488 346 540 q 275 344 275 435 q 310 201 275 254 q 417 149 346 149 m 771 886 q 799 838 786 867 q 813 775 813 810 q 771 664 813 704 q 665 607 729 624 q 740 495 713 561 q 768 344 768 429 q 739 191 768 258 q 660 78 710 124 q 548 8 611 32 q 417 -17 485 -17 q 285 8 349 -17 q 173 78 222 32 q 94 191 124 124 q 65 344 65 258 q 94 498 65 431 q 173 611 124 565 q 285 681 222 657 q 417 706 349 706 q 491 698 454 706 q 563 675 528 690 q 629 701 604 683 q 654 761 654 718 q 647 797 654 781 q 632 825 640 814 l 771 886 z "},"ớ":{"ha":833,"x_min":65,"x_max":813,"o":"m 417 149 q 523 201 488 149 q 558 344 558 254 q 523 488 558 435 q 417 540 488 540 q 310 488 346 540 q 275 344 275 435 q 310 201 275 254 q 417 149 346 149 m 771 886 q 799 838 786 867 q 813 775 813 810 q 771 664 813 704 q 665 607 729 624 q 740 495 713 561 q 768 344 768 429 q 739 191 768 258 q 660 78 710 124 q 548 8 611 32 q 417 -17 485 -17 q 285 8 349 -17 q 173 78 222 32 q 94 191 124 124 q 65 344 65 258 q 94 498 65 431 q 173 611 124 565 q 285 681 222 657 q 417 706 349 706 q 491 698 454 706 q 563 675 528 690 q 629 701 604 683 q 654 761 654 718 q 647 797 654 781 q 632 825 640 814 l 771 886 m 451 797 l 303 797 l 426 1029 l 635 1029 l 451 797 z "},"ờ":{"ha":833,"x_min":65,"x_max":813,"o":"m 417 149 q 523 201 488 149 q 558 344 558 254 q 523 488 558 435 q 417 540 488 540 q 310 488 346 540 q 275 344 275 435 q 310 201 275 254 q 417 149 346 149 m 771 886 q 799 838 786 867 q 813 775 813 810 q 771 664 813 704 q 665 607 729 624 q 740 495 713 561 q 768 344 768 429 q 739 191 768 258 q 660 78 710 124 q 548 8 611 32 q 417 -17 485 -17 q 285 8 349 -17 q 173 78 222 32 q 94 191 124 124 q 65 344 65 258 q 94 498 65 431 q 173 611 124 565 q 285 681 222 657 q 417 706 349 706 q 491 698 454 706 q 563 675 528 690 q 629 701 604 683 q 654 761 654 718 q 647 797 654 781 q 632 825 640 814 l 771 886 m 199 1029 l 407 1029 l 531 797 l 382 797 l 199 1029 z "},"ở":{"ha":833,"x_min":65,"x_max":813,"o":"m 417 149 q 523 201 488 149 q 558 344 558 254 q 523 488 558 435 q 417 540 488 540 q 310 488 346 540 q 275 344 275 435 q 310 201 275 254 q 417 149 346 149 m 771 886 q 799 838 786 867 q 813 775 813 810 q 771 664 813 704 q 665 607 729 624 q 740 495 713 561 q 768 344 768 429 q 739 191 768 258 q 660 78 710 124 q 548 8 611 32 q 417 -17 485 -17 q 285 8 349 -17 q 173 78 222 32 q 94 191 124 124 q 65 344 65 258 q 94 498 65 431 q 173 611 124 565 q 285 681 222 657 q 417 706 349 706 q 491 698 454 706 q 563 675 528 690 q 629 701 604 683 q 654 761 654 718 q 647 797 654 781 q 632 825 640 814 l 771 886 m 353 854 q 396 867 378 858 q 414 896 414 876 q 389 927 414 915 q 304 942 364 939 l 328 1044 q 508 1006 456 1040 q 561 917 561 972 q 546 855 561 881 q 504 812 531 829 q 442 785 478 794 q 368 774 407 776 l 353 854 z "},"ỡ":{"ha":833,"x_min":65,"x_max":813,"o":"m 417 149 q 523 201 488 149 q 558 344 558 254 q 523 488 558 435 q 417 540 488 540 q 310 488 346 540 q 275 344 275 435 q 310 201 275 254 q 417 149 346 149 m 771 886 q 799 838 786 867 q 813 775 813 810 q 771 664 813 704 q 665 607 729 624 q 740 495 713 561 q 768 344 768 429 q 739 191 768 258 q 660 78 710 124 q 548 8 611 32 q 417 -17 485 -17 q 285 8 349 -17 q 173 78 222 32 q 94 191 124 124 q 65 344 65 258 q 94 498 65 431 q 173 611 124 565 q 285 681 222 657 q 417 706 349 706 q 491 698 454 706 q 563 675 528 690 q 629 701 604 683 q 654 761 654 718 q 647 797 654 781 q 632 825 640 814 l 771 886 m 179 799 q 235 949 192 900 q 342 997 278 997 q 388 986 367 997 q 427 961 410 975 q 460 936 444 947 q 490 925 475 925 q 526 941 513 925 q 550 997 540 957 l 654 997 q 599 848 642 897 q 492 799 556 799 q 444 810 465 799 q 406 835 424 822 q 372 860 388 849 q 343 872 357 872 q 307 856 321 872 q 283 799 293 840 l 179 799 l 179 799 z "},"ợ":{"ha":833,"x_min":65,"x_max":813,"o":"m 417 149 q 523 201 488 149 q 558 344 558 254 q 523 488 558 435 q 417 540 488 540 q 310 488 346 540 q 275 344 275 435 q 310 201 275 254 q 417 149 346 149 m 771 886 q 799 838 786 867 q 813 775 813 810 q 771 664 813 704 q 665 607 729 624 q 740 495 713 561 q 768 344 768 429 q 739 191 768 258 q 660 78 710 124 q 548 8 611 32 q 417 -17 485 -17 q 285 8 349 -17 q 173 78 222 32 q 94 191 124 124 q 65 344 65 258 q 94 498 65 431 q 173 611 124 565 q 285 681 222 657 q 417 706 349 706 q 491 698 454 706 q 563 675 528 690 q 629 701 604 683 q 654 761 654 718 q 647 797 654 781 q 632 825 640 814 l 771 886 m 417 -351 q 319 -318 357 -351 q 281 -228 281 -285 q 319 -135 281 -171 q 417 -100 357 -100 q 515 -135 476 -100 q 553 -228 553 -171 q 515 -318 553 -285 q 417 -351 476 -351 z "},"ǫ":{"ha":833,"x_min":65,"x_max":768,"o":"m 297 -165 q 323 -74 297 -112 q 374 -14 349 -35 q 255 21 311 -7 q 157 94 199 49 q 90 203 115 140 q 65 344 65 265 q 94 498 65 431 q 172 611 124 565 q 284 681 221 657 q 417 706 347 706 q 549 681 485 706 q 661 611 613 657 q 739 498 710 565 q 768 344 768 431 q 751 222 768 275 q 701 128 733 169 q 625 55 669 86 q 526 0 581 24 q 456 -56 476 -24 q 435 -118 435 -87 q 453 -158 435 -146 q 493 -171 471 -171 q 519 -166 507 -171 q 542 -154 532 -161 l 585 -246 q 517 -279 557 -267 q 444 -292 476 -292 q 340 -260 382 -292 q 297 -165 297 -228 m 275 344 q 310 201 275 254 q 417 149 346 149 q 523 201 488 149 q 558 344 558 254 q 523 488 558 435 q 417 540 488 540 q 310 488 346 540 q 275 344 275 435 z "},"ŕ":{"ha":833,"x_min":161,"x_max":761,"o":"m 161 689 l 328 689 l 344 539 l 349 539 q 472 665 400 624 q 628 706 544 706 q 702 699 674 706 q 761 678 731 692 l 719 507 q 662 522 688 517 q 597 526 636 526 q 472 489 533 526 q 365 358 410 451 l 365 0 l 161 0 l 161 689 m 506 797 l 357 797 l 481 1029 l 689 1029 l 506 797 z "},"ŗ":{"ha":833,"x_min":140,"x_max":761,"o":"m 161 689 l 328 689 l 344 539 l 349 539 q 472 665 400 624 q 628 706 544 706 q 702 699 674 706 q 761 678 731 692 l 719 507 q 662 522 688 517 q 597 526 636 526 q 472 489 533 526 q 365 358 410 451 l 365 0 l 161 0 l 161 689 m 233 -58 q 365 -95 328 -68 q 401 -175 401 -122 q 381 -237 401 -211 q 328 -280 361 -262 q 250 -306 294 -297 q 156 -318 206 -315 l 140 -236 q 223 -219 190 -231 q 256 -185 256 -208 q 241 -153 256 -165 q 194 -133 226 -142 l 233 -58 l 233 -58 z "},"ř":{"ha":833,"x_min":161,"x_max":761,"o":"m 161 689 l 328 689 l 344 539 l 349 539 q 472 665 400 624 q 628 706 544 706 q 702 699 674 706 q 761 678 731 692 l 719 507 q 662 522 688 517 q 597 526 636 526 q 472 489 533 526 q 365 358 410 451 l 365 0 l 161 0 l 161 689 m 246 1029 l 394 1029 l 468 896 l 474 896 l 547 1029 l 696 1029 l 557 797 l 385 797 l 246 1029 z "},"ṛ":{"ha":833,"x_min":147,"x_max":761,"o":"m 161 689 l 328 689 l 344 539 l 349 539 q 472 665 400 624 q 628 706 544 706 q 702 699 674 706 q 761 678 731 692 l 719 507 q 662 522 688 517 q 597 526 636 526 q 472 489 533 526 q 365 358 410 451 l 365 0 l 161 0 l 161 689 m 283 -351 q 185 -318 224 -351 q 147 -228 147 -285 q 185 -135 147 -171 q 283 -100 224 -100 q 381 -135 343 -100 q 419 -228 419 -171 q 381 -318 419 -285 q 283 -351 343 -351 z "},"ṝ":{"ha":833,"x_min":147,"x_max":761,"o":"m 161 689 l 328 689 l 344 539 l 349 539 q 472 665 400 624 q 628 706 544 706 q 702 699 674 706 q 761 678 731 692 l 719 507 q 662 522 688 517 q 597 526 636 526 q 472 489 533 526 q 365 358 410 451 l 365 0 l 161 0 l 161 689 m 279 951 l 663 951 l 663 822 l 279 822 l 279 951 m 283 -351 q 185 -318 224 -351 q 147 -228 147 -285 q 185 -135 147 -171 q 283 -100 224 -100 q 381 -135 343 -100 q 419 -228 419 -171 q 381 -318 419 -285 q 283 -351 343 -351 z "},"ṟ":{"ha":833,"x_min":92,"x_max":761,"o":"m 161 689 l 328 689 l 344 539 l 349 539 q 472 665 400 624 q 628 706 544 706 q 702 699 674 706 q 761 678 731 692 l 719 507 q 662 522 688 517 q 597 526 636 526 q 472 489 533 526 q 365 358 410 451 l 365 0 l 161 0 l 161 689 m 475 -262 l 92 -262 l 92 -132 l 475 -132 l 475 -262 z "},"ś":{"ha":833,"x_min":74,"x_max":750,"o":"m 165 217 q 285 157 225 179 q 415 135 346 135 q 517 150 486 135 q 547 193 547 165 q 497 245 547 225 q 363 289 446 265 q 273 319 317 301 q 194 360 229 336 q 138 417 160 385 q 117 490 117 449 q 139 578 117 538 q 202 646 161 618 q 302 690 243 674 q 435 706 361 706 q 602 676 526 706 q 732 611 678 646 l 640 489 q 543 535 593 517 q 439 554 493 554 q 347 540 374 554 q 319 500 319 526 q 333 472 319 485 q 371 450 347 460 q 427 431 394 440 q 496 413 460 422 q 593 381 547 399 q 674 340 639 364 q 729 283 708 317 q 750 206 750 250 q 728 118 750 158 q 663 48 706 78 q 558 1 621 18 q 411 -17 494 -17 q 229 14 318 -17 q 74 89 140 44 l 165 217 m 468 797 l 319 797 l 443 1029 l 651 1029 l 468 797 z "},"ŝ":{"ha":833,"x_min":74,"x_max":750,"o":"m 165 217 q 285 157 225 179 q 415 135 346 135 q 517 150 486 135 q 547 193 547 165 q 497 245 547 225 q 363 289 446 265 q 273 319 317 301 q 194 360 229 336 q 138 417 160 385 q 117 490 117 449 q 139 578 117 538 q 202 646 161 618 q 302 690 243 674 q 435 706 361 706 q 602 676 526 706 q 732 611 678 646 l 640 489 q 543 535 593 517 q 439 554 493 554 q 347 540 374 554 q 319 500 319 526 q 333 472 319 485 q 371 450 347 460 q 427 431 394 440 q 496 413 460 422 q 593 381 547 399 q 674 340 639 364 q 729 283 708 317 q 750 206 750 250 q 728 118 750 158 q 663 48 706 78 q 558 1 621 18 q 411 -17 494 -17 q 229 14 318 -17 q 74 89 140 44 l 165 217 m 347 1029 l 519 1029 l 658 797 l 510 797 l 436 929 l 431 929 l 357 797 l 208 797 l 347 1029 z "},"š":{"ha":833,"x_min":74,"x_max":750,"o":"m 165 217 q 285 157 225 179 q 415 135 346 135 q 517 150 486 135 q 547 193 547 165 q 497 245 547 225 q 363 289 446 265 q 273 319 317 301 q 194 360 229 336 q 138 417 160 385 q 117 490 117 449 q 139 578 117 538 q 202 646 161 618 q 302 690 243 674 q 435 706 361 706 q 602 676 526 706 q 732 611 678 646 l 640 489 q 543 535 593 517 q 439 554 493 554 q 347 540 374 554 q 319 500 319 526 q 333 472 319 485 q 371 450 347 460 q 427 431 394 440 q 496 413 460 422 q 593 381 547 399 q 674 340 639 364 q 729 283 708 317 q 750 206 750 250 q 728 118 750 158 q 663 48 706 78 q 558 1 621 18 q 411 -17 494 -17 q 229 14 318 -17 q 74 89 140 44 l 165 217 m 208 1029 l 357 1029 l 431 896 l 436 896 l 510 1029 l 658 1029 l 519 797 l 347 797 l 208 1029 z "},"ş":{"ha":833,"x_min":74,"x_max":750,"o":"m 165 217 q 285 157 225 179 q 415 135 346 135 q 517 150 486 135 q 547 193 547 165 q 497 245 547 225 q 363 289 446 265 q 273 319 317 301 q 194 360 229 336 q 138 417 160 385 q 117 490 117 449 q 139 578 117 538 q 202 646 161 618 q 302 690 243 674 q 435 706 361 706 q 602 676 526 706 q 732 611 678 646 l 640 489 q 543 535 593 517 q 439 554 493 554 q 347 540 374 554 q 319 500 319 526 q 333 472 319 485 q 371 450 347 460 q 427 431 394 440 q 496 413 460 422 q 593 381 547 399 q 674 340 639 364 q 729 283 708 317 q 750 206 750 250 q 728 118 750 158 q 663 48 706 78 q 558 1 621 18 q 411 -17 494 -17 q 229 14 318 -17 q 74 89 140 44 l 165 217 m 378 6 l 497 6 l 469 -60 q 528 -95 506 -71 q 550 -162 550 -119 q 530 -224 550 -199 q 476 -268 510 -250 q 399 -295 443 -286 q 304 -307 354 -304 l 289 -225 q 372 -206 339 -219 q 404 -164 404 -192 q 387 -131 404 -146 q 322 -106 369 -117 l 378 6 z "},"ș":{"ha":833,"x_min":74,"x_max":750,"o":"m 165 217 q 285 157 225 179 q 415 135 346 135 q 517 150 486 135 q 547 193 547 165 q 497 245 547 225 q 363 289 446 265 q 273 319 317 301 q 194 360 229 336 q 138 417 160 385 q 117 490 117 449 q 139 578 117 538 q 202 646 161 618 q 302 690 243 674 q 435 706 361 706 q 602 676 526 706 q 732 611 678 646 l 640 489 q 543 535 593 517 q 439 554 493 554 q 347 540 374 554 q 319 500 319 526 q 333 472 319 485 q 371 450 347 460 q 427 431 394 440 q 496 413 460 422 q 593 381 547 399 q 674 340 639 364 q 729 283 708 317 q 750 206 750 250 q 728 118 750 158 q 663 48 706 78 q 558 1 621 18 q 411 -17 494 -17 q 229 14 318 -17 q 74 89 140 44 l 165 217 m 376 -58 q 508 -95 471 -68 q 544 -175 544 -122 q 524 -237 544 -211 q 471 -280 504 -262 q 393 -306 438 -297 q 299 -318 349 -315 l 283 -236 q 366 -219 333 -231 q 399 -185 399 -208 q 384 -153 399 -165 q 338 -133 369 -142 l 376 -58 l 376 -58 z "},"ṡ":{"ha":833,"x_min":74,"x_max":750,"o":"m 165 217 q 285 157 225 179 q 415 135 346 135 q 517 150 486 135 q 547 193 547 165 q 497 245 547 225 q 363 289 446 265 q 273 319 317 301 q 194 360 229 336 q 138 417 160 385 q 117 490 117 449 q 139 578 117 538 q 202 646 161 618 q 302 690 243 674 q 435 706 361 706 q 602 676 526 706 q 732 611 678 646 l 640 489 q 543 535 593 517 q 439 554 493 554 q 347 540 374 554 q 319 500 319 526 q 333 472 319 485 q 371 450 347 460 q 427 431 394 440 q 496 413 460 422 q 593 381 547 399 q 674 340 639 364 q 729 283 708 317 q 750 206 750 250 q 728 118 750 158 q 663 48 706 78 q 558 1 621 18 q 411 -17 494 -17 q 229 14 318 -17 q 74 89 140 44 l 165 217 m 433 790 q 335 824 374 790 q 297 914 297 857 q 335 1006 297 971 q 433 1042 374 1042 q 531 1006 493 1042 q 569 914 569 971 q 531 824 569 857 q 433 790 493 790 z "},"ṣ":{"ha":833,"x_min":74,"x_max":750,"o":"m 165 217 q 285 157 225 179 q 415 135 346 135 q 517 150 486 135 q 547 193 547 165 q 497 245 547 225 q 363 289 446 265 q 273 319 317 301 q 194 360 229 336 q 138 417 160 385 q 117 490 117 449 q 139 578 117 538 q 202 646 161 618 q 302 690 243 674 q 435 706 361 706 q 602 676 526 706 q 732 611 678 646 l 640 489 q 543 535 593 517 q 439 554 493 554 q 347 540 374 554 q 319 500 319 526 q 333 472 319 485 q 371 450 347 460 q 427 431 394 440 q 496 413 460 422 q 593 381 547 399 q 674 340 639 364 q 729 283 708 317 q 750 206 750 250 q 728 118 750 158 q 663 48 706 78 q 558 1 621 18 q 411 -17 494 -17 q 229 14 318 -17 q 74 89 140 44 l 165 217 m 426 -351 q 328 -318 367 -351 q 290 -228 290 -285 q 328 -135 290 -171 q 426 -100 367 -100 q 524 -135 486 -100 q 563 -228 563 -171 q 524 -318 563 -285 q 426 -351 486 -351 z "},"ß":{"ha":833,"x_min":85,"x_max":793,"o":"m 85 688 q 104 807 85 751 q 163 903 124 863 q 261 967 201 944 q 400 990 321 990 q 517 970 467 990 q 599 917 567 950 q 647 842 631 885 q 663 756 663 800 q 649 672 663 706 q 620 610 636 638 q 591 560 604 583 q 578 511 578 538 q 594 471 578 488 q 633 438 610 454 q 685 402 657 421 q 738 358 714 383 q 777 297 761 332 q 793 211 793 261 q 778 122 793 164 q 732 50 763 81 q 656 1 701 19 q 551 -17 611 -17 q 449 -3 493 -17 q 358 35 406 10 l 426 174 q 488 144 458 153 q 544 135 517 135 q 588 151 572 135 q 604 194 604 167 q 588 240 604 221 q 549 276 572 260 q 497 311 525 293 q 444 353 468 329 q 405 408 421 376 q 389 486 389 440 q 402 558 389 528 q 431 617 415 589 q 459 674 446 644 q 472 744 472 704 q 453 805 472 781 q 399 829 433 829 q 315 788 342 829 q 289 675 289 746 l 289 0 l 85 0 l 85 688 z "},"ť":{"ha":833,"x_min":69,"x_max":765,"o":"m 242 529 l 69 529 l 69 681 l 251 689 l 278 872 l 446 872 l 446 689 l 736 689 l 736 529 l 446 529 l 446 288 q 481 176 446 208 q 590 143 515 143 q 665 150 631 143 q 729 168 699 157 l 765 21 q 663 -5 719 7 q 539 -17 606 -17 q 400 6 457 -17 q 308 67 343 28 q 257 163 272 107 q 242 286 242 218 l 242 529 m 542 761 l 535 1069 l 665 1069 l 663 974 l 629 761 l 542 761 z "},"ţ":{"ha":833,"x_min":69,"x_max":765,"o":"m 242 529 l 69 529 l 69 681 l 251 689 l 278 872 l 446 872 l 446 689 l 736 689 l 736 529 l 446 529 l 446 288 q 481 176 446 208 q 590 143 515 143 q 665 150 631 143 q 729 168 699 157 l 765 21 q 663 -5 719 7 q 539 -17 606 -17 q 400 6 457 -17 q 308 67 343 28 q 257 163 272 107 q 242 286 242 218 l 242 529 m 464 6 l 583 6 l 556 -60 q 614 -95 592 -71 q 636 -162 636 -119 q 616 -224 636 -199 q 563 -268 596 -250 q 485 -295 529 -286 q 390 -307 440 -304 l 375 -225 q 458 -206 425 -219 q 490 -164 490 -192 q 473 -131 490 -146 q 408 -106 456 -117 l 464 6 z "},"ț":{"ha":833,"x_min":69,"x_max":765,"o":"m 242 529 l 69 529 l 69 681 l 251 689 l 278 872 l 446 872 l 446 689 l 736 689 l 736 529 l 446 529 l 446 288 q 481 176 446 208 q 590 143 515 143 q 665 150 631 143 q 729 168 699 157 l 765 21 q 663 -5 719 7 q 539 -17 606 -17 q 400 6 457 -17 q 308 67 343 28 q 257 163 272 107 q 242 286 242 218 l 242 529 m 461 -58 q 592 -95 556 -68 q 629 -175 629 -122 q 609 -237 629 -211 q 556 -280 589 -262 q 478 -306 522 -297 q 383 -318 433 -315 l 368 -236 q 451 -219 418 -231 q 483 -185 483 -208 q 469 -153 483 -165 q 422 -133 454 -142 l 461 -58 l 461 -58 z "},"ṭ":{"ha":833,"x_min":69,"x_max":765,"o":"m 242 529 l 69 529 l 69 681 l 251 689 l 278 872 l 446 872 l 446 689 l 736 689 l 736 529 l 446 529 l 446 288 q 481 176 446 208 q 590 143 515 143 q 665 150 631 143 q 729 168 699 157 l 765 21 q 663 -5 719 7 q 539 -17 606 -17 q 400 6 457 -17 q 308 67 343 28 q 257 163 272 107 q 242 286 242 218 l 242 529 m 511 -351 q 413 -318 451 -351 q 375 -228 375 -285 q 413 -135 375 -171 q 511 -100 451 -100 q 609 -135 571 -100 q 647 -228 647 -171 q 609 -318 647 -285 q 511 -351 571 -351 z "},"ṯ":{"ha":833,"x_min":69,"x_max":765,"o":"m 242 529 l 69 529 l 69 681 l 251 689 l 278 872 l 446 872 l 446 689 l 736 689 l 736 529 l 446 529 l 446 288 q 481 176 446 208 q 590 143 515 143 q 665 150 631 143 q 729 168 699 157 l 765 21 q 663 -5 719 7 q 539 -17 606 -17 q 400 6 457 -17 q 308 67 343 28 q 257 163 272 107 q 242 286 242 218 l 242 529 m 703 -262 l 319 -262 l 319 -132 l 703 -132 l 703 -262 z "},"ẗ":{"ha":833,"x_min":69,"x_max":765,"o":"m 242 529 l 69 529 l 69 681 l 251 689 l 278 872 l 446 872 l 446 689 l 736 689 l 736 529 l 446 529 l 446 288 q 481 176 446 208 q 590 143 515 143 q 665 150 631 143 q 729 168 699 157 l 765 21 q 663 -5 719 7 q 539 -17 606 -17 q 400 6 457 -17 q 308 67 343 28 q 257 163 272 107 q 242 286 242 218 l 242 529 m 218 988 q 139 1019 169 988 q 108 1097 108 1050 q 139 1174 108 1143 q 218 1206 169 1206 q 297 1174 267 1206 q 326 1097 326 1143 q 297 1019 326 1050 q 218 988 267 988 m 521 988 q 442 1019 472 988 q 413 1097 413 1050 q 442 1174 413 1143 q 521 1206 472 1206 q 600 1174 569 1206 q 631 1097 631 1143 q 600 1019 631 1050 q 521 988 569 988 z "},"ù":{"ha":833,"x_min":86,"x_max":729,"o":"m 729 0 l 563 0 l 547 99 l 542 99 q 440 15 496 46 q 310 -17 385 -17 q 139 58 192 -17 q 86 264 86 133 l 86 689 l 290 689 l 290 290 q 311 189 290 221 q 390 157 332 157 q 459 174 429 157 q 525 236 489 190 l 525 689 l 729 689 l 729 0 m 194 1029 l 403 1029 l 526 797 l 378 797 l 194 1029 z "},"ú":{"ha":833,"x_min":86,"x_max":729,"o":"m 729 0 l 563 0 l 547 99 l 542 99 q 440 15 496 46 q 310 -17 385 -17 q 139 58 192 -17 q 86 264 86 133 l 86 689 l 290 689 l 290 290 q 311 189 290 221 q 390 157 332 157 q 459 174 429 157 q 525 236 489 190 l 525 689 l 729 689 l 729 0 m 447 797 l 299 797 l 422 1029 l 631 1029 l 447 797 z "},"û":{"ha":833,"x_min":86,"x_max":729,"o":"m 729 0 l 563 0 l 547 99 l 542 99 q 440 15 496 46 q 310 -17 385 -17 q 139 58 192 -17 q 86 264 86 133 l 86 689 l 290 689 l 290 290 q 311 189 290 221 q 390 157 332 157 q 459 174 429 157 q 525 236 489 190 l 525 689 l 729 689 l 729 0 m 326 1029 l 499 1029 l 638 797 l 489 797 l 415 929 l 410 929 l 336 797 l 188 797 l 326 1029 z "},"ũ":{"ha":833,"x_min":86,"x_max":729,"o":"m 729 0 l 563 0 l 547 99 l 542 99 q 440 15 496 46 q 310 -17 385 -17 q 139 58 192 -17 q 86 264 86 133 l 86 689 l 290 689 l 290 290 q 311 189 290 221 q 390 157 332 157 q 459 174 429 157 q 525 236 489 190 l 525 689 l 729 689 l 729 0 m 175 799 q 231 949 188 900 q 338 997 274 997 q 384 986 363 997 q 423 961 406 975 q 456 936 440 947 q 486 925 471 925 q 522 941 508 925 q 546 997 536 957 l 650 997 q 594 848 638 897 q 488 799 551 799 q 440 810 461 799 q 401 835 419 822 q 368 860 383 849 q 339 872 353 872 q 303 856 317 872 q 279 799 289 840 l 175 799 l 175 799 z "},"ü":{"ha":833,"x_min":86,"x_max":729,"o":"m 729 0 l 563 0 l 547 99 l 542 99 q 440 15 496 46 q 310 -17 385 -17 q 139 58 192 -17 q 86 264 86 133 l 86 689 l 290 689 l 290 290 q 311 189 290 221 q 390 157 332 157 q 459 174 429 157 q 525 236 489 190 l 525 689 l 729 689 l 729 0 m 261 793 q 182 824 213 793 q 151 903 151 856 q 182 980 151 949 q 261 1011 213 1011 q 340 980 310 1011 q 369 903 369 949 q 340 824 369 856 q 261 793 310 793 m 564 793 q 485 824 515 793 q 456 903 456 856 q 485 980 456 949 q 564 1011 515 1011 q 643 980 613 1011 q 674 903 674 949 q 643 824 674 856 q 564 793 613 793 z "},"ū":{"ha":833,"x_min":86,"x_max":729,"o":"m 729 0 l 563 0 l 547 99 l 542 99 q 440 15 496 46 q 310 -17 385 -17 q 139 58 192 -17 q 86 264 86 133 l 86 689 l 290 689 l 290 290 q 311 189 290 221 q 390 157 332 157 q 459 174 429 157 q 525 236 489 190 l 525 689 l 729 689 l 729 0 m 221 951 l 604 951 l 604 822 l 221 822 l 221 951 z "},"ŭ":{"ha":833,"x_min":86,"x_max":729,"o":"m 729 0 l 563 0 l 547 99 l 542 99 q 440 15 496 46 q 310 -17 385 -17 q 139 58 192 -17 q 86 264 86 133 l 86 689 l 290 689 l 290 290 q 311 189 290 221 q 390 157 332 157 q 459 174 429 157 q 525 236 489 190 l 525 689 l 729 689 l 729 0 m 413 797 q 323 815 361 797 q 260 863 285 833 q 222 933 235 893 q 208 1014 210 972 l 322 1014 q 349 940 328 969 q 413 910 371 910 q 476 940 454 910 q 503 1014 497 969 l 617 1014 q 603 933 615 972 q 565 863 590 893 q 502 815 540 833 q 413 797 464 797 z "},"ů":{"ha":833,"x_min":86,"x_max":729,"o":"m 729 0 l 563 0 l 547 99 l 542 99 q 440 15 496 46 q 310 -17 385 -17 q 139 58 192 -17 q 86 264 86 133 l 86 689 l 290 689 l 290 290 q 311 189 290 221 q 390 157 332 157 q 459 174 429 157 q 525 236 489 190 l 525 689 l 729 689 l 729 0 m 413 761 q 299 799 342 761 q 256 903 256 838 q 299 1006 256 968 q 413 1044 342 1044 q 526 1006 483 1044 q 569 903 569 968 q 526 799 569 838 q 413 761 483 761 m 413 838 q 453 856 436 838 q 469 903 469 874 q 453 950 469 932 q 413 968 436 968 q 372 950 389 968 q 356 903 356 932 q 372 856 356 874 q 413 838 389 838 z "},"ű":{"ha":833,"x_min":86,"x_max":733,"o":"m 729 0 l 563 0 l 547 99 l 542 99 q 440 15 496 46 q 310 -17 385 -17 q 139 58 192 -17 q 86 264 86 133 l 86 689 l 290 689 l 290 290 q 311 189 290 221 q 390 157 332 157 q 459 174 429 157 q 525 236 489 190 l 525 689 l 729 689 l 729 0 m 333 1006 l 496 1006 l 364 796 l 239 796 l 333 1006 m 571 1006 l 733 1006 l 601 796 l 475 796 l 571 1006 z "}}}
